SplineFontDB: 3.0
FontName: Panchanan-Regular
FullName: Panchanan Regular
FamilyName: Panchanan
Weight: Regular
Copyright: Copyright 2025 Panchanan Project Authors (github.com/mitradranirban/panchanan)
Version: 0.500
ItalicAngle: 0
UnderlinePosition: -205
UnderlineWidth: 102
Ascent: 1638
Descent: 410
InvalidEm: 0
UFOAscent: 1638
UFODescent: -410
LayerCount: 2
Layer: 0 0 "Back" 1
Layer: 1 0 "public.default" 0 "glyphs"
StyleMap: 0x0000
FSType: 0
OS2Version: 0
OS2_WeightWidthSlopeOnly: 0
OS2_UseTypoMetrics: 0
CreationTime: 1738602859
ModificationTime: 1738858897
PfmFamily: 17
TTFWeight: 500
TTFWidth: 5
LineGap: 0
VLineGap: 0
Panose: 2 0 6 3 0 0 0 0 0 0
OS2TypoAscent: 2183
OS2TypoAOffset: 0
OS2TypoDescent: -1260
OS2TypoDOffset: 0
OS2TypoLinegap: 0
OS2WinAscent: 2183
OS2WinAOffset: 0
OS2WinDescent: 1260
OS2WinDOffset: 0
HheadAscent: 2183
HheadAOffset: 0
HheadDescent: -1260
HheadDOffset: 0
OS2SubXSize: 1331
OS2SubYSize: 1433
OS2SubXOff: 0
OS2SubYOff: 286
OS2SupXSize: 1331
OS2SupYSize: 1433
OS2SupXOff: 0
OS2SupYOff: 983
OS2StrikeYSize: 102
OS2StrikeYPos: 530
OS2Vendor: 'anir'
OS2CodePages: 00000001.00000000
OS2UnicodeRanges: 80018001.00002000.00000000.00000000
Lookup: 1 0 0 "initInitialFormsinBengali2lookup0" { "initInitialFormsinBengali2lookup0 subtable"  } ['init' ('DFLT' <'dflt' > 'bng2' <'dflt' > ) ]
Lookup: 4 0 0 "nuktNuktaFormsinBengali2lookup1" { "nuktNuktaFormsinBengali2lookup1 subtable"  } ['nukt' ('DFLT' <'dflt' > 'bng2' <'dflt' > ) ]
Lookup: 4 0 0 "akhnAkhandinBengali2lookup12" { "akhnAkhandinBengali2lookup12 subtable"  } ['akhn' ('DFLT' <'dflt' > 'bng2' <'dflt' > ) ]
Lookup: 4 0 0 "rphfRephForminBengali2lookup3" { "rphfRephForminBengali2lookup3 subtable"  } ['rphf' ('DFLT' <'dflt' > 'bng2' <'dflt' > ) ]
Lookup: 4 0 0 "blwfBelowBaseFormsinBengali2lookup4" { "blwfBelowBaseFormsinBengali2lookup4 subtable"  } ['blwf' ('DFLT' <'dflt' > 'bng2' <'dflt' > ) ]

StartChar: .notdef
Encoding: 0 0 0
GlifName: _notdef
Width: 974
VWidth: 0
Flags: W
HStem: 0 82<150 750> 1570 82<150 750>
VStem: 75 75<82 1570> 750 75<82 1570>
LayerCount: 2
Fore
SplineSet
75 0 m 1
 75 1652 l 1
 825 1652 l 1
 825 0 l 1
 75 0 l 1
150 82 m 1
 750 82 l 1
 750 1570 l 1
 150 1570 l 1
 150 82 l 1
EndSplineSet
EndChar

StartChar: dv_danda
Encoding: 2 2404 2
GlifName: uni0964
Width: 817
VWidth: 0
GlyphClass: 2
Flags: W
HStem: -161 263<428.853 562.574> 887 247<341.151 453.994>
VStem: 270 344<-81.9844 59> 270 157<103.153 291.691> 454 211<782.184 962>
LayerCount: 2
Fore
SplineSet
406 1126 m 0xd8
 424 1131 443 1134 461 1134 c 0
 521 1134 579 1106 622 1056 c 0
 651 1022 665 985 665 939 c 0
 665 886 645 820 606 733 c 0
 573 660 546 589 546 575 c 0
 546 534 496 336 477 302 c 0
 468 287 461 261 461 247 c 0
 461 234 451 206 440 189 c 0
 431 175 427 162 427 150 c 0xd8
 427 122 449 102 486 102 c 0
 539 102 614 29 614 -23 c 0xe0
 614 -78 572 -124 500 -148 c 0
 474 -157 451 -161 431 -161 c 0
 385 -161 352 -137 314 -82 c 0
 278 -30 270 -6 270 82 c 2
 270 120 l 2
 271 219 281 278 307 337 c 0
 352 438 358 549 411 639 c 0
 435 679 450 737 453 795 c 0
 454 814 454 830 454 842 c 0
 454 886 446 887 410 887 c 0
 384 887 343 903 318 922 c 0
 291 943 280 957 280 977 c 0
 280 984 282 992 284 1001 c 0
 298 1057 348 1109 406 1126 c 0xd8
EndSplineSet
EndChar

StartChar: dv_double_danda
Encoding: 3 2405 3
GlifName: uni0965
Width: 1148
VWidth: 0
GlyphClass: 2
Flags: W
HStem: 955 265<192.703 319>
VStem: 96 218<62.5 350.437> 129 185<101.943 401.765> 590 208<40.5 263.243> 666 335<950.194 1138.42> 793 251<685.002 929.271>
LayerCount: 2
Fore
SplineSet
705 1184 m 0x88
 732 1203 764 1212 797 1212 c 0
 879 1212 967 1157 1001 1070 c 0x88
 1030 997 1044 927 1044 863 c 0x84
 1044 814 1035 768 1018 730 c 0
 998 686 972 614 959 568 c 0
 946 522 922 460 904 429 c 0
 863 357 798 171 798 127 c 0x90
 798 124 798 122 799 120 c 0
 803 108 840 97 882 96 c 0
 980 95 1031 52 1031 -23 c 0
 1031 -52 1024 -85 1008 -122 c 0
 984 -179 973 -185 892 -192 c 0
 842 -196 789 -206 772 -214 c 0
 769 -215 766 -216 762 -216 c 0
 741 -216 715 -190 666 -122 c 0x88
 614 -50 590 7 590 74 c 0x90
 590 121 602 172 625 238 c 0
 645 293 682 411 709 503 c 0
 736 595 766 695 776 726 c 0
 786 757 793 811 793 846 c 0x84
 793 901 784 915 733 938 c 0
 678 962 673 973 668 1060 c 0
 667 1076 666 1089 666 1101 c 0
 666 1149 676 1164 705 1184 c 0x88
256 1211 m 0
 278 1217 300 1220 321 1220 c 0
 401 1220 467 1177 498 1103 c 0
 508 1079 513 1041 513 999 c 0
 513 938 503 868 484 817 c 0
 394 570 314 263 314 164 c 0
 314 119 323 109 371 98 c 0
 437 83 472 26 472 -36 c 0
 472 -87 448 -142 399 -179 c 2
 349 -216 l 1
 262 -170 l 2
 194 -134 166 -104 131 -32 c 0
 106 19 96 46 96 79 c 0xc0
 96 101 100 126 108 163 c 0
 120 220 129 281 129 301 c 0
 129 321 145 370 164 411 c 0
 184 452 213 525 231 577 c 0
 260 663 269 701 306 887 c 2
 319 955 l 1
 247 955 l 2
 162 955 129 980 129 1044 c 0xa0
 129 1118 185 1192 256 1211 c 0
EndSplineSet
EndChar

StartChar: bn_aanji
Encoding: 4 2432 4
GlifName: uni0980
Width: 1293
VWidth: 0
GlyphClass: 2
Flags: W
HStem: -154 380<936.358 1071.12> 740 233<292 494.642> 1372 219<385.196 616.054>
VStem: 55 270<1004.73 1315.71> 642 306<981 1345.36> 676 234<229.033 645.137>
LayerCount: 2
Fore
SplineSet
456 1583 m 0xf4
 481 1588 503 1591 524 1591 c 0
 573 1591 619 1576 694 1541 c 0
 813 1485 876 1419 923 1303 c 0
 939 1262 948 1156 948 1038 c 0xf8
 948 924 940 799 924 712 c 0
 914 660 910 595 910 528 c 0
 910 441 918 350 933 280 c 0
 942 239 947 226 969 226 c 0
 977 226 988 228 1003 231 c 0
 1015 233 1025 234 1034 234 c 0
 1061 234 1080 223 1112 194 c 0
 1147 161 1158 145 1158 105 c 0
 1158 92 1157 75 1155 55 c 0
 1142 -79 1047 -154 941 -154 c 0
 870 -154 795 -120 737 -47 c 2
 676 30 l 1
 676 325 l 2
 676 522 683 629 697 646 c 0
 709 660 723 732 731 805 c 2
 745 939 l 1
 656 872 l 2
 551 795 401 740 297 740 c 0
 287 740 277 741 268 742 c 0
 169 753 138 780 124 866 c 0
 118 904 107 937 100 937 c 0
 71 937 55 1028 55 1128 c 0
 55 1207 65 1291 86 1341 c 0
 130 1445 286 1547 456 1583 c 0xf4
597 1351 m 0
 578 1366 551 1372 522 1372 c 0
 448 1372 358 1330 336 1271 c 0
 329 1251 325 1222 325 1191 c 0
 325 1120 342 1034 368 1006 c 0
 385 987 414 973 436 973 c 0
 501 973 593 1043 623 1114 c 0
 636 1144 642 1181 642 1216 c 0
 642 1274 626 1329 597 1351 c 0
EndSplineSet
PickledDataWithLists: "(dp0
Vcom.fontlab.hintData
p1
(dp2
Vhhints
p3
(lp4
(dp5
Vposition
p6
I-154
sVwidth
p7
I380
sa(dp8
g6
I740
sg7
I233
sa(dp9
g6
I1372
sg7
I219
sasVvhints
p10
(lp11
(dp12
g6
I55
sg7
I270
sa(dp13
g6
I642
sg7
I306
sa(dp14
g6
I676
sg7
I234
sass."
EndChar

StartChar: bn_chandrabindu
Encoding: 5 2433 5
GlifName: bn_chandrabindu
Width: 744
VWidth: 0
GlyphClass: 2
Flags: W
HStem: 1082 104<248.973 519.379> 1292 77<323.445 424.997> 1502 75<328.068 424.143>
VStem: 235 81<1377.37 1490.12> 437 57<1387.12 1493.87>
LayerCount: 2
Fore
SplineSet
50 1462 m 0
 57 1481 65 1489 74 1489 c 0
 90 1489 108 1457 119 1400 c 0
 135 1317 178 1246 212 1246 c 0
 221 1246 246 1233 267 1216 c 0
 294 1195 328 1186 381 1186 c 0
 477 1186 554 1237 603 1331 c 0
 631 1385 648 1409 662 1409 c 0
 668 1409 673 1405 679 1396 c 0
 685 1388 687 1378 687 1366 c 0
 687 1332 666 1283 620 1213 c 0
 575 1144 551 1123 498 1104 c 0
 455 1089 412 1082 372 1082 c 0
 220 1082 93 1183 59 1347 c 0
 52 1382 48 1419 48 1442 c 0
 48 1451 49 1458 50 1462 c 0
297 1562 m 0
 315 1572 339 1577 364 1577 c 0
 391 1577 419 1572 443 1561 c 0
 475 1547 494 1500 494 1456 c 0
 494 1433 488 1410 477 1393 c 0
 436 1331 392 1292 363 1292 c 0
 321 1292 246 1361 237 1408 c 0
 236 1414 235 1421 235 1428 c 0
 235 1478 264 1542 297 1562 c 0
414 1493 m 0
 399 1499 386 1502 375 1502 c 0
 359 1502 346 1496 334 1484 c 0
 322 1472 316 1455 316 1438 c 0
 316 1415 326 1393 345 1383 c 0
 362 1374 372 1369 380 1369 c 0
 390 1369 398 1376 413 1391 c 0
 429 1407 437 1430 437 1450 c 0
 437 1470 429 1487 414 1493 c 0
EndSplineSet
EndChar

StartChar: bn_anusvar
Encoding: 6 2434 6
GlifName: bn_anusvar
Width: 580
VWidth: 0
GlyphClass: 2
Flags: W
HStem: 1067 185<211.643 375.539> 1356 228<215.408 364.883>
VStem: -61 28<185.945 236.438> 23 185<1263.02 1345.3> 376 190<1253.97 1340.13>
LayerCount: 2
Fore
SplineSet
-61 224 m 0
 -63 261 -54 284 -43 272 c 0
 -36 265 -33 252 -33 237 c 0
 -33 225 -35 213 -39 201 c 0
 -44 189 -48 183 -51 183 c 0
 -56 183 -60 197 -61 224 c 0
132 1515 m 0
 181 1561 234 1584 289 1584 c 0
 347 1584 408 1559 471 1508 c 0
 534 1458 566 1389 566 1316 c 0
 566 1260 548 1202 509 1147 c 0
 471 1093 402 1067 327 1067 c 0
 233 1067 131 1108 75 1184 c 0
 41 1230 23 1275 23 1319 c 0
 23 1383 59 1447 132 1515 c 0
374 1296 m 0
 362 1332 313 1356 271 1356 c 0
 252 1356 234 1351 222 1339 c 0
 212 1330 208 1320 208 1310 c 0
 208 1280 253 1252 315 1252 c 0
 353 1252 376 1264 376 1285 c 0
 376 1288 375 1292 374 1296 c 0
EndSplineSet
EndChar

StartChar: bn_bisarga
Encoding: 7 2435 7
GlifName: bn_bisarga
Width: 829
VWidth: 0
GlyphClass: 2
Flags: W
HStem: 131 436<298.379 475.621> 761 436<298.379 475.621>
VStem: 187 400<247.667 450.333 877.667 1080.33>
LayerCount: 2
Fore
SplineSet
187 959 m 0
 187 1068 308 1197 407 1197 c 0
 506 1197 587 1108 587 999 c 0
 587 890 466 761 367 761 c 0
 268 761 187 850 187 959 c 0
187 329 m 0
 187 438 308 567 407 567 c 0
 506 567 587 478 587 369 c 0
 587 260 466 131 367 131 c 0
 268 131 187 220 187 329 c 0
EndSplineSet
EndChar

StartChar: bn_a
Encoding: 8 2437 8
GlifName: bn_a
Width: 1701
VWidth: 0
GlyphClass: 2
Flags: W
HStem: 196 221<1199.94 1349.11> 402 215<493.215 888.093> 901 164<767.259 884.354> 1198 289<58.3013 541.099>
VStem: 567 199<1065.31 1192.93> 958 185<675.665 844.5>
LayerCount: 2
Fore
SplineSet
187 1487 m 1x7c
 1669 1427 l 1
 1688 1413 1698 1371 1698 1328 c 0
 1698 1302 1694 1277 1686 1257 c 0
 1680 1242 1645 1221 1609 1210 c 0
 1543 1190 1543 1190 1529 1045 c 1
 1511 355 l 2
 1507 337 1505 324 1505 314 c 0
 1505 290 1518 286 1556 278 c 0
 1588 272 1637 243 1667 215 c 0
 1703 180 1715 158 1715 119 c 0
 1715 112 1715 103 1714 94 c 0
 1709 32 1702 24 1653 19 c 0
 1649 19 1644 18 1640 18 c 0
 1605 18 1573 33 1528 68 c 0
 1490 98 1447 124 1433 124 c 0
 1419 124 1391 140 1371 160 c 0
 1351 180 1321 196 1304 196 c 0xbc
 1287 196 1232 220 1184 250 c 0
 1136 280 1086 305 1072 305 c 0
 1058 305 1022 324 988 350 c 0
 936 390 907 396 750 402 c 0
 649 406 546 421 513 436 c 0
 376 498 156 592 124 601 c 0
 105 606 72 647 48 692 c 0
 26 733 16 754 16 771 c 0
 16 786 24 799 39 820 c 0
 57 845 77 858 100 858 c 0
 132 858 170 834 220 786 c 0
 332 677 380 660 688 618 c 0
 695 617 702 617 710 617 c 0
 797 617 938 669 956 712 c 0
 958 716 958 720 958 725 c 0
 958 740 950 759 936 773 c 0
 918 791 904 814 904 824 c 0
 904 834 886 858 864 876 c 0
 844 893 830 901 802 901 c 0
 779 901 747 896 695 886 c 0
 643 876 588 870 558 870 c 0
 548 870 541 871 537 872 c 0
 518 878 508 896 508 916 c 0
 508 936 518 959 537 973 c 0
 556 988 567 1027 567 1083 c 0
 567 1173 542 1206 453 1206 c 0
 432 1206 408 1204 380 1201 c 0
 360 1199 339 1198 316 1198 c 0
 211 1198 87 1221 39 1253 c 0
 15 1269 3 1305 3 1342 c 0
 3 1379 15 1419 39 1443 c 0
 64 1469 108 1482 187 1487 c 1x7c
1220 1230 m 2
 1141 1237 1047 1241 966 1241 c 0
 898 1241 839 1238 809 1233 c 0
 772 1227 766 1214 766 1145 c 0
 766 1065 766 1065 837 1065 c 0
 921 1065 968 1043 1067 960 c 0
 1135 903 1143 887 1143 802 c 0
 1143 713 1104 608 1063 585 c 0
 1049 577 1043 566 1043 553 c 0
 1043 528 1067 499 1109 480 c 0
 1210 436 1259 417 1293 417 c 0
 1315 417 1331 425 1350 440 c 1
 1365 1219 l 1
 1220 1230 l 2
EndSplineSet
EndChar

StartChar: bn_aa
Encoding: 9 2438 9
GlifName: bn_aa
Width: 2169
VWidth: 0
GlyphClass: 2
Flags: W
HStem: 196 221<1199.94 1349.11> 402 215<493.215 888.093> 901 164<767.259 884.354> 1182 158<1717.41 1820.68> 1198 289<58.3013 541.099>
VStem: 567 199<1065.31 1192.93> 958 185<675.665 844.5> 1350 161<417.982 904.547> 1365 164<495.453 1196.33> 1896 191<-32.9423 815.142> 1924 107<760 1113.44>
LayerCount: 2
Fore
SplineSet
1220 1230 m 2xa680
 1141 1237 1047 1241 966 1241 c 0
 898 1241 839 1238 809 1233 c 0
 772 1227 766 1214 766 1145 c 0
 766 1065 766 1065 837 1065 c 0
 921 1065 968 1043 1067 960 c 0
 1135 903 1143 887 1143 802 c 0
 1143 713 1104 608 1063 585 c 0
 1049 577 1043 566 1043 553 c 0
 1043 528 1067 499 1109 480 c 0
 1210 436 1259 417 1293 417 c 0
 1315 417 1331 425 1350 440 c 1xa7
 1365 1219 l 1
 1220 1230 l 2xa680
187 1487 m 1x6f
 1669 1427 l 1
 1678 1420 1685 1407 1690 1390 c 1
 1720 1386 1754 1376 1778 1366 c 0
 1813 1351 1851 1340 1865 1340 c 0
 1881 1340 1888 1362 1888 1393 c 0
 1888 1426 1880 1469 1863 1509 c 0
 1852 1535 1846 1568 1846 1592 c 0
 1846 1601 1846 1608 1848 1614 c 0
 1856 1646 1871 1656 1909 1656 c 0
 1971 1656 1987 1621 2013 1440 c 0
 2023 1372 2040 1309 2052 1301 c 0
 2068 1290 2068 1287 2052 1287 c 0
 2038 1287 2031 1254 2031 1208 c 0x3720
 2031 1166 2037 1115 2049 1068 c 0
 2067 1001 2087 573 2087 290 c 0
 2087 259 2086 231 2086 204 c 0
 2083 16 2053 -64 1986 -64 c 0
 1934 -64 1928 -47 1906 155 c 0
 1900 213 1896 267 1896 319 c 0x3640
 1896 367 1899 412 1905 457 c 0
 1915 532 1924 700 1924 830 c 2
 1924 872 l 2x3620
 1924 1030 1918 1074 1896 1098 c 0
 1880 1116 1861 1126 1854 1121 c 0
 1847 1116 1828 1128 1811 1147 c 0
 1794 1166 1761 1182 1740 1182 c 0
 1718 1182 1676 1187 1646 1193 c 0
 1626 1197 1613 1201 1605 1208 c 1
 1544 1189 1543 1187 1529 1045 c 1x36c0
 1511 355 l 2
 1507 337 1505 324 1505 314 c 0
 1505 290 1518 286 1556 278 c 0
 1588 272 1637 243 1667 215 c 0
 1703 180 1715 158 1715 119 c 0
 1715 112 1715 103 1714 94 c 0
 1709 32 1702 24 1653 19 c 0
 1649 19 1644 18 1640 18 c 0
 1605 18 1573 33 1528 68 c 0
 1490 98 1447 124 1433 124 c 0
 1419 124 1391 140 1371 160 c 0
 1351 180 1321 196 1304 196 c 0xb7
 1287 196 1232 220 1184 250 c 0
 1136 280 1086 305 1072 305 c 0
 1058 305 1022 324 988 350 c 0
 936 390 907 396 750 402 c 0
 649 406 546 421 513 436 c 0
 376 498 156 592 124 601 c 0
 105 606 72 647 48 692 c 0
 26 733 16 754 16 771 c 0
 16 786 24 799 39 820 c 0
 57 845 77 858 100 858 c 0
 132 858 170 834 220 786 c 0
 332 677 380 660 688 618 c 0
 695 617 702 617 710 617 c 0
 797 617 938 669 956 712 c 0
 958 716 958 720 958 725 c 0
 958 740 950 759 936 773 c 0
 918 791 904 814 904 824 c 0
 904 834 886 858 864 876 c 0
 844 893 830 901 802 901 c 0
 779 901 747 896 695 886 c 0
 643 876 588 870 558 870 c 0
 548 870 541 871 537 872 c 0
 518 878 508 896 508 916 c 0
 508 936 518 959 537 973 c 0
 556 988 567 1027 567 1083 c 0
 567 1173 542 1206 453 1206 c 0
 432 1206 408 1204 380 1201 c 0
 360 1199 339 1198 316 1198 c 0
 211 1198 87 1221 39 1253 c 0
 15 1269 3 1305 3 1342 c 0
 3 1379 15 1419 39 1443 c 0
 64 1469 108 1482 187 1487 c 1x6f
EndSplineSet
EndChar

StartChar: bn_i
Encoding: 10 2439 10
GlifName: bn_i
Width: 1245
VWidth: 0
GlyphClass: 2
Flags: W
HStem: -158 177<1095.01 1205.45> 1260 194<36.9161 489.902> 1269 157<499.015 875.998> 1592 133<364.919 925.077>
VStem: 126 192<1780 1955.58> 336 163<1136.44 1200.88> 581 283<669.465 827.208> 963 268<1354 1529.5>
LayerCount: 2
Fore
SplineSet
152 1925 m 0xbf
 172 1967 193 1982 229 1982 c 0
 295 1982 318 1949 318 1858 c 2
 318 1780 l 1
 421 1755 l 2
 477 1741 610 1728 715 1725 c 0
 896 1720 924 1715 1011 1677 c 0
 1030 1669 1059 1657 1074 1652 c 0
 1089 1647 1113 1604 1126 1556 c 0
 1142 1499 1163 1462 1190 1449 c 0
 1217 1436 1231 1402 1231 1368 c 0
 1231 1340 1222 1312 1202 1294 c 0
 1173 1268 1031 1252 879 1252 c 0
 815 1252 748 1255 688 1261 c 0
 640 1266 603 1269 575 1269 c 0xbf
 519 1269 499 1257 499 1227 c 0
 499 1217 501 1205 505 1191 c 0
 520 1135 522 1134 627 1126 c 0
 664 1123 827 950 827 913 c 0
 827 910 864 819 864 770 c 0
 864 761 863 754 860 749 c 0
 839 709 808 647 791 610 c 0
 774 573 728 510 688 468 c 0
 648 426 617 382 617 368 c 0
 617 334 687 266 757 234 c 0
 791 218 867 181 927 151 c 0
 987 121 1043 95 1052 95 c 0
 1061 95 1082 78 1099 57 c 0
 1116 36 1138 19 1148 19 c 0
 1184 19 1230 -46 1230 -97 c 0
 1230 -138 1218 -158 1192 -158 c 0
 1170 -158 1139 -144 1095 -115 c 0
 1048 -83 972 -48 923 -35 c 0
 874 -22 824 -1 809 12 c 0
 774 43 397 248 374 248 c 0
 364 248 307 278 246 315 c 0
 139 380 58 453 58 481 c 0
 58 484 59 486 61 488 c 0
 67 494 140 506 226 514 c 0
 359 526 395 537 481 593 c 0
 576 654 578 662 581 731 c 2
 586 828 l 1
 517 792 l 2
 452 759 407 747 374 747 c 0
 326 747 303 771 276 791 c 0
 236 820 178 909 178 943 c 0
 178 964 290 1067 313 1067 c 0
 328 1067 336 1080 336 1099 c 0
 336 1128 319 1171 289 1204 c 0
 258 1239 206 1260 166 1260 c 0
 144 1260 125 1254 117 1239 c 0
 111 1229 82 1220 54 1220 c 0
 4 1220 3 1222 3 1310 c 0
 3 1360 9 1412 18 1427 c 0
 28 1443 107 1454 174 1454 c 0xdf
 214 1454 251 1450 264 1441 c 0
 274 1435 409 1428 567 1426 c 2
 627 1426 l 2
 871 1426 963 1443 963 1510 c 0
 963 1549 848 1584 688 1592 c 0
 432 1604 270 1646 187 1720 c 0
 146 1757 126 1791 126 1832 c 0
 126 1859 135 1889 152 1925 c 0xbf
EndSplineSet
EndChar

StartChar: bn_ii
Encoding: 11 2440 11
GlifName: bn_ii
Width: 1443
VWidth: 0
GlyphClass: 2
Flags: W
HStem: 244 310<421 637.5> 1218 227<1295.05 1410.99> 1223 158<542.399 1110.09> 1549 124<504.011 1068.62>
VStem: 253 212<1720.29 1847.24> 640 168<789.009 868.101> 1093 183<603.952 771.776> 1111 304<1292.5 1476>
LayerCount: 2
Fore
SplineSet
275 1856 m 0xbd
 289 1870 317 1877 347 1877 c 0
 383 1877 422 1867 441 1848 c 0
 456 1832 465 1809 465 1787 c 0
 465 1782 465 1778 464 1773 c 0
 459 1743 465 1726 484 1720 c 0
 560 1697 761 1674 897 1673 c 0
 1111 1672 1193 1651 1245 1587 c 0
 1268 1559 1290 1518 1293 1498 c 0
 1296 1474 1319 1455 1357 1445 c 0
 1413 1430 1415 1426 1415 1329 c 0
 1415 1256 1407 1226 1386 1218 c 1xdd
 731 1223 l 2
 626 1222 539 1215 539 1207 c 0
 539 1180 595 1132 627 1132 c 0
 645 1132 687 1109 723 1080 c 0
 779 1035 811 959 811 874 c 0
 811 863 810 851 809 839 c 0
 808 833 808 829 808 824 c 0
 808 801 816 789 829 789 c 0
 845 789 870 805 902 839 c 0
 983 924 1026 955 1075 955 c 0
 1088 955 1103 952 1118 948 c 0
 1218 919 1276 853 1276 760 c 0
 1276 713 1261 659 1229 599 c 1
 1102 248 l 1
 1144 84 1179 6 1222 -20 c 0
 1262 -44 1282 -70 1282 -93 c 0
 1282 -107 1275 -120 1261 -131 c 0
 1241 -147 1222 -154 1198 -154 c 0
 1175 -154 1147 -148 1109 -134 c 0
 992 -93 968 -52 968 105 c 0
 968 249 989 345 1055 504 c 0
 1080 563 1093 633 1093 687 c 0xbe
 1093 731 1084 764 1066 771 c 0
 1062 773 1057 773 1051 773 c 0
 1011 773 932 742 932 722 c 0
 932 714 914 684 890 654 c 0
 867 625 840 575 830 543 c 0
 804 463 679 260 647 246 c 0
 644 245 640 244 635 244 c 0
 616 244 586 253 559 266 c 0
 329 382 296 406 271 474 c 0
 250 531 241 568 241 589 c 0
 241 608 248 615 261 615 c 0
 298 615 381 554 461 554 c 0
 563 554 619 612 637 733 c 0
 639 749 640 764 640 777 c 0
 640 838 617 871 577 871 c 0
 550 871 515 856 475 824 c 0
 443 799 398 778 377 778 c 1
 262 847 l 1
 260 874 260 897 260 916 c 0
 260 997 275 1022 327 1049 c 0
 360 1067 378 1092 378 1110 c 0
 378 1123 369 1132 348 1132 c 0
 330 1132 287 1148 249 1169 c 0
 211 1190 156 1207 123 1207 c 0
 42 1207 -17 1261 -17 1315 c 0
 -17 1337 -7 1359 14 1377 c 0
 35 1395 252 1405 466 1405 c 0
 615 1405 763 1400 843 1389 c 0
 882 1383 930 1381 971 1381 c 0
 996 1381 1019 1382 1035 1384 c 0
 1101 1394 1111 1401 1111 1442 c 0
 1111 1510 1030 1537 798 1549 c 0
 678 1555 560 1574 495 1596 c 0
 436 1616 367 1637 341 1643 c 0
 290 1655 253 1729 253 1790 c 0
 253 1816 260 1840 275 1856 c 0xbd
EndSplineSet
EndChar

StartChar: bn_u
Encoding: 12 2441 12
GlifName: bn_u
Width: 1510
VWidth: 0
GlyphClass: 2
Flags: W
HStem: 91 250<754.016 1116.12> 659 235<885.444 1006.07> 730 191<975.204 1233.5>
VStem: 295 215<1398.5 1525.68> 636 230<902.035 1115.45> 1025 244<1391.16 1549.52> 1186 270<406.668 668.573>
LayerCount: 2
Fore
SplineSet
1352 212 m 0xba
 1213 124 1158 91 1039 91 c 0
 990 91 931 97 851 106 c 0
 757 117 629 195 558 239 c 0
 486 283 408 330 382 344 c 0
 253 413 -40 756 -40 839 c 0
 -40 905 -3 944 38 944 c 0
 63 944 90 930 112 898 c 0
 130 872 181 795 226 725 c 0
 282 639 343 578 416 532 c 0
 475 495 530 452 539 437 c 0
 574 380 705 342 871 341 c 2
 882 341 l 2
 1101 341 1186 391 1186 533 c 0
 1186 555 1184 580 1180 607 c 0
 1168 689 1136 730 1086 730 c 0xba
 1061 730 1032 720 998 699 c 0
 956 673 922 659 890 659 c 0
 848 659 809 683 757 732 c 0
 675 810 636 902 636 1019 c 0
 636 1068 621 1096 576 1127 c 0
 543 1150 509 1169 499 1169 c 0
 462 1169 332 1302 309 1363 c 0
 300 1388 295 1416 295 1444 c 0
 295 1581 397 1744 525 1782 c 0
 562 1793 583 1800 599 1800 c 0
 620 1800 630 1789 656 1763 c 0
 681 1738 694 1713 694 1688 c 0
 694 1656 673 1624 630 1590 c 0
 593 1560 553 1527 538 1515 c 0
 519 1499 510 1482 510 1465 c 0
 510 1433 541 1400 599 1373 c 0
 660 1345 726 1333 787 1333 c 0
 916 1333 1025 1389 1025 1480 c 0
 1025 1511 1017 1537 1008 1537 c 0
 998 1537 968 1559 939 1588 c 0
 911 1616 896 1652 896 1688 c 0
 896 1719 907 1752 929 1779 c 0
 942 1796 968 1804 996 1804 c 0
 1032 1804 1073 1790 1096 1765 c 0
 1117 1742 1150 1718 1170 1712 c 0
 1230 1693 1269 1582 1269 1470 c 0
 1269 1419 1261 1367 1243 1324 c 0
 1207 1237 1136 1189 1009 1166 c 0
 902 1147 866 1126 866 1059 c 0
 866 1040 869 1017 874 990 c 0
 887 919 890 894 955 894 c 0xdc
 991 894 1045 902 1131 913 c 0
 1167 918 1193 921 1212 921 c 0
 1255 921 1271 904 1321 849 c 0
 1360 806 1394 753 1394 734 c 0
 1394 715 1410 667 1428 628 c 0
 1446 590 1456 535 1456 476 c 0
 1456 372 1425 258 1352 212 c 0xba
EndSplineSet
EndChar

StartChar: bn_uu
Encoding: 13 2442 13
GlifName: bn_uu
Width: 1269
VWidth: 0
GlyphClass: 2
Flags: W
HStem: -31 185<571.424 881.436> 793 196<775.322 893.617> 852 160<837.664 1067>
VStem: 286 178<1404.5 1523.33> 570 191<995.8 1179.1> 892 227<175.922 295.441> 894 204<1398.07 1542.25> 1028 221<574.654 837.49>
LayerCount: 2
Fore
SplineSet
478 1729 m 0xd9
 509 1739 526 1744 539 1744 c 0
 556 1744 565 1735 587 1713 c 0
 608 1692 618 1671 618 1651 c 0
 618 1624 601 1598 565 1569 c 0
 534 1544 500 1517 488 1507 c 0
 472 1494 464 1480 464 1465 c 0
 464 1438 490 1410 539 1388 c 0
 590 1365 645 1355 696 1355 c 0
 804 1355 894 1402 894 1477 c 0
 894 1503 888 1525 880 1525 c 0
 872 1525 846 1544 822 1568 c 0
 799 1591 787 1621 787 1651 c 0
 787 1677 796 1703 814 1726 c 0
 825 1740 847 1747 870 1747 c 0
 900 1747 934 1735 953 1714 c 0
 970 1695 998 1675 1015 1670 c 0
 1066 1654 1098 1562 1098 1469 c 0
 1098 1426 1091 1383 1076 1347 c 0
 1046 1274 986 1235 880 1215 c 0
 791 1199 761 1182 761 1127 c 0
 761 1111 764 1092 768 1069 c 0
 779 1010 782 989 836 989 c 0xda
 866 989 911 995 983 1005 c 0
 1013 1009 1033 1012 1049 1012 c 0
 1085 1012 1099 998 1141 951 c 0
 1174 915 1201 872 1201 856 c 0
 1201 840 1215 799 1230 767 c 0
 1243 740 1249 706 1249 668 c 0xb9
 1249 582 1218 479 1166 421 c 0
 1130 380 1119 363 1119 327 c 0
 1119 313 1120 297 1123 276 c 0
 1125 261 1126 247 1126 233 c 0
 1126 152 1091 93 1010 27 c 0
 949 -22 930 -28 829 -30 c 0
 801 -31 777 -31 756 -31 c 0
 654 -31 627 -24 587 3 c 0
 563 19 515 45 479 61 c 0
 386 103 269 186 138 303 c 0
 42 388 24 414 24 460 c 0
 24 508 42 531 68 531 c 0
 95 531 131 506 162 455 c 0
 182 423 218 385 243 369 c 0
 268 354 319 317 357 288 c 0
 468 203 590 154 696 154 c 2
 705 154 l 1
 839 158 892 179 892 230 c 0xbc
 892 233 891 237 891 240 c 0
 886 283 872 292 749 332 c 0
 674 356 564 406 505 443 c 0
 445 480 380 518 358 530 c 0
 250 587 7 874 7 943 c 0
 7 998 37 1031 71 1031 c 0
 92 1031 115 1019 133 992 c 0
 148 970 191 906 229 848 c 0
 276 776 325 725 386 687 c 0
 435 656 483 620 490 608 c 0
 519 561 628 529 766 528 c 2
 772 528 l 2
 957 528 1028 569 1028 688 c 0
 1028 707 1026 728 1023 750 c 0
 1013 818 986 852 945 852 c 0xb9
 924 852 900 843 872 826 c 0
 837 804 808 793 782 793 c 0
 747 793 715 812 671 854 c 0
 603 919 570 996 570 1093 c 0
 570 1134 557 1157 520 1183 c 0
 493 1202 464 1218 456 1218 c 0
 425 1218 316 1329 297 1380 c 0
 289 1400 286 1423 286 1446 c 0
 286 1561 372 1697 478 1729 c 0xd9
EndSplineSet
EndChar

StartChar: bn_ri
Encoding: 14 2443 14
GlifName: bn_ri
Width: 1254
VWidth: 0
GlyphClass: 2
Flags: W
HStem: 845 120<317.009 485.96> 1409 100<953.128 1020.19> 1410 28<1013 1060>
VStem: 183 132<969.995 1107.37> 715 139<207.035 451.178 970.292 1171.04> 748 116<679.317 735.998> 922 99<1439.71 1502.67> 1030 150<703.989 1409.98> 1063 117<631.081 1154.61>
AnchorPoint: "blwm" 977 -135 basechar 0
LayerCount: 2
Back
Fore
SplineSet
743 676 m 0x9a
 746 694 748 707 748 716 c 0x96
 748 734 740 736 716 736 c 0
 696 736 675 730 671 723 c 0
 667 716 636 698 603 683 c 0
 480 627 470 622 449 607 c 0
 437 599 397 580 360 565 c 0
 314 546 292 527 292 506 c 0
 292 490 305 473 331 456 c 0
 352 442 393 409 420 383 c 0
 464 341 531 292 643 220 c 0
 656 212 667 207 676 207 c 0
 704 207 713 254 715 375 c 0
 717 510 720 544 743 676 c 0x9a
659 1180 m 0
 631 1197 604 1205 572 1205 c 0
 543 1205 509 1198 470 1184 c 0
 385 1153 315 1075 315 1019 c 0
 315 1009 317 1000 321 992 c 0
 334 968 354 965 513 965 c 0
 679 965 692 967 707 995 c 0
 714 1007 717 1027 717 1050 c 0
 717 1062 716 1075 714 1089 c 0
 706 1141 696 1157 659 1180 c 0
922 1498 m 0
 922 1504 931 1509 944 1509 c 0xd3
 980 1509 1021 1482 1021 1459 c 0
 1021 1445 1039 1438 1060 1438 c 0
 1083 1438 1110 1446 1119 1462 c 0
 1126 1475 1133 1481 1140 1481 c 0
 1163 1481 1182 1416 1182 1325 c 0
 1182 1315 1181 1305 1181 1294 c 0
 1180 1274 1180 1180 1180 1060 c 0
 1180 1010 1180 956 1180 901 c 0
 1181 630 1187 550 1203 518 c 0
 1215 494 1221 460 1221 428 c 0
 1221 383 1210 342 1190 338 c 0
 1189 338 1188 338 1187 338 c 0
 1169 338 1111 359 1055 385 c 0
 995 413 928 440 907 444 c 2
 868 452 l 1
 858 296 l 2
 855 255 854 221 854 193 c 0xbb
 854 103 870 73 918 36 c 0
 955 8 974 -29 974 -59 c 0
 974 -88 956 -109 921 -109 c 0
 879 -109 731 -11 717 25 c 0
 713 36 675 65 633 89 c 0
 549 137 540 144 380 275 c 0
 320 324 268 371 265 378 c 0
 262 385 251 392 241 392 c 0
 231 392 190 421 151 456 c 0
 112 491 63 526 43 534 c 0
 15 544 3 561 3 578 c 0
 3 604 31 631 83 644 c 0
 107 650 161 672 204 695 c 0
 247 718 293 736 307 736 c 0
 345 736 486 809 486 828 c 0
 486 838 431 844 368 845 c 0
 305 846 247 850 238 855 c 0
 229 860 212 898 199 938 c 0
 188 972 183 993 183 1012 c 0
 183 1027 186 1040 193 1057 c 0
 225 1138 291 1222 390 1307 c 2
 489 1392 l 1
 587 1384 l 2
 641 1380 701 1365 721 1352 c 0
 741 1339 769 1322 785 1314 c 0
 808 1302 816 1278 824 1183 c 0
 829 1120 841 1043 849 1013 c 0
 857 982 864 912 864 855 c 0
 864 722 883 681 963 647 c 0
 995 634 1011 627 1022 627 c 0
 1032 627 1037 633 1045 644 c 0
 1057 660 1063 678 1063 703 c 0xb680
 1063 724 1059 751 1050 789 c 0
 1042 822 1033 970 1030 1118 c 0
 1024 1390 1025 1410 1013 1410 c 0xb3
 1011 1410 1009 1409 1006 1409 c 0xd3
 990 1409 923 1481 922 1498 c 0
EndSplineSet
EndChar

StartChar: bn_li
Encoding: 15 2444 15
GlifName: bn_li
Width: 1602
VWidth: 0
GlyphClass: 2
Flags: W
HStem: -77 191<384.754 485.552> -45 233<1124.04 1296.21> 353 203<434 785.268> 1186 281<643.368 764.871>
VStem: 119 262<114.646 298.484> 409 234<1095.01 1288.5> 1354 241<185 459.751>
LayerCount: 2
Fore
SplineSet
545 1432 m 0x7e
 600 1455 646 1467 682 1467 c 0
 752 1467 786 1422 786 1333 c 0
 786 1235 752 1186 686 1186 c 0
 659 1186 643 1168 643 1137 c 0
 643 1108 656 1091 674 1095 c 1
 676 1095 l 2
 693 1095 742 1065 783 1024 c 1
 1200 833 l 1
 1228 808 1300 769 1362 747 c 0
 1459 712 1483 690 1535 585 c 0
 1581 491 1569 441 1581 371 c 0
 1590 321 1595 275 1595 233 c 0
 1595 137 1568 64 1500 31 c 0
 1455 9 1488 -23 1307 -39 c 0
 1266 -43 1230 -45 1198 -45 c 0x7e
 1061 -45 1007 -8 987 85 c 0
 954 237 934 271 857 310 c 0
 800 339 713 353 631 353 c 0
 543 353 462 337 429 304 c 0
 397 272 381 225 381 185 c 0
 381 145 397 114 429 114 c 0
 453 114 481 137 489 163 c 0
 499 194 514 205 547 205 c 0
 553 205 560 205 568 204 c 0
 622 198 633 186 639 112 c 0
 640 106 640 100 640 94 c 0
 640 -14 556 -77 407 -77 c 0xbe
 312 -77 282 -64 207 9 c 0
 136 79 119 112 119 183 c 0
 119 296 224 447 341 503 c 0
 403 533 550 556 637 556 c 0
 673 556 698 552 704 543 c 0
 710 534 748 519 791 510 c 0
 910 486 1043 386 1091 285 c 0
 1122 220 1160 188 1203 188 c 0
 1233 188 1266 204 1300 236 c 0
 1336 270 1354 302 1354 339 c 0
 1354 374 1338 413 1308 462 c 0
 1276 514 1235 546 1185 557 c 0
 1145 566 1082 592 1050 614 c 0
 909 710 754 805 736 805 c 0
 697 805 496 1009 451 1095 c 0
 423 1150 409 1201 409 1247 c 0
 409 1330 455 1395 545 1432 c 0x7e
EndSplineSet
EndChar

StartChar: bn_e
Encoding: 16 2447 16
GlifName: bn_e
Width: 1357
VWidth: 0
GlyphClass: 2
Flags: W
HStem: 1211 231<745.339 931.038>
VStem: 1085 194<417.253 976.749>
LayerCount: 2
Fore
SplineSet
562 1402 m 0
 612 1429 692 1442 776 1442 c 0
 879 1442 990 1422 1063 1385 c 0
 1190 1320 1279 1075 1279 781 c 0
 1279 665 1265 540 1234 417 c 0
 1221 363 1214 323 1214 289 c 0
 1214 238 1229 203 1254 164 c 0
 1292 105 1308 45 1308 -4 c 0
 1308 -62 1286 -103 1250 -103 c 0
 1227 -103 1199 -87 1168 -48 c 0
 1069 77 951 116 668 116 c 2
 635 116 l 1
 573 116 l 2
 374 116 313 131 214 197 c 0
 86 281 3 401 3 490 c 0
 3 506 6 521 11 534 c 0
 20 557 28 570 41 570 c 0
 59 570 88 545 143 492 c 0
 202 435 276 414 276 413 c 0
 276 412 337 406 377 369 c 0
 432 318 531 293 750 274 c 2
 1048 248 l 1
 1073 435 l 2
 1081 496 1085 561 1085 625 c 0
 1085 844 1039 1060 964 1137 c 0
 916 1186 875 1211 835 1211 c 0
 776 1211 722 1157 660 1046 c 0
 609 954 593 914 529 914 c 0
 411 914 324 1006 324 1130 c 0
 324 1238 386 1309 562 1402 c 0
EndSplineSet
EndChar

StartChar: bn_ai
Encoding: 17 2448 17
GlifName: bn_ai
Width: 1962
VWidth: 0
GlyphClass: 2
Flags: W
HStem: 70 186<244.671 751.566> 133 124<704.228 945.648> 878 192<1207.28 1690.59> 1273 196<604 901.999>
VStem: 328 353<1049.79 1247.31> 944 193<1700.38 1892.69> 1019 151<337.198 857.882> 1706 166<1095.18 1236.33>
LayerCount: 2
Fore
SplineSet
944 1807 m 0x7d
 944 1880 964 1898 1041 1898 c 0
 1118 1898 1137 1879 1137 1805 c 0x7d
 1137 1700 1245 1613 1543 1477 c 0
 1806 1357 1872 1289 1872 1144 c 0
 1872 929 1807 878 1507 878 c 2
 1470 878 l 2
 1422 879 1381 880 1347 880 c 0
 1196 880 1170 861 1170 712 c 0
 1170 669 1172 614 1174 546 c 0
 1177 430 1209 277 1244 211 c 0
 1273 157 1286 123 1286 95 c 0
 1286 71 1276 51 1257 28 c 0
 1224 -12 1185 -32 1146 -32 c 0
 1097 -32 1048 -1 1009 59 c 0
 974 112 955 133 913 133 c 0x7b
 887 133 852 125 801 111 c 0
 702 84 605 70 511 70 c 0
 388 70 273 93 175 140 c 0
 71 189 17 238 17 279 c 0
 17 298 29 315 52 329 c 0
 56 331 63 332 73 332 c 0
 109 332 180 319 253 298 c 0
 336 273 500 256 638 256 c 0xbb
 656 256 672 256 689 257 c 0
 1006 267 1006 267 1018 727 c 0
 1019 752 1019 776 1019 799 c 0x7b
 1019 1124 956 1273 820 1273 c 0
 813 1273 805 1273 797 1272 c 0
 708 1262 691 1240 681 1116 c 0
 670 985 660 971 558 971 c 0
 446 971 328 1056 328 1136 c 0
 328 1353 508 1469 700 1469 c 0
 859 1469 1029 1390 1119 1222 c 0
 1181 1106 1207 1092 1404 1075 c 0
 1442 1072 1476 1070 1507 1070 c 0
 1637 1070 1706 1099 1706 1152 c 0
 1706 1177 1690 1206 1659 1241 c 0
 1621 1284 1569 1318 1543 1318 c 0
 1490 1318 1157 1528 1029 1641 c 0
 982 1683 944 1757 944 1807 c 0x7d
EndSplineSet
EndChar

StartChar: bn_o
Encoding: 18 2451 18
GlifName: bn_o
Width: 1370
VWidth: 0
GlyphClass: 2
Flags: W
HStem: 21 164<685.809 1034> 578 298<755.564 986.758> 1256 162<687.5 905.816>
VStem: 422 270<940.851 1209.5> 730 426<651.5 860.642> 1042 154<888.189 1108.55> 1146 206<301.224 596.943>
LayerCount: 2
Fore
SplineSet
620 1410 m 0xf4
 643 1415 672 1418 703 1418 c 0
 811 1418 950 1392 1016 1383 c 0
 1103 1372 1123 1345 1173 1174 c 0
 1189 1120 1196 1079 1196 1039 c 0xf4
 1196 1001 1190 964 1176 917 c 0
 1163 873 1156 844 1156 820 c 0xf8
 1156 780 1178 756 1233 703 c 0
 1316 623 1352 561 1352 471 c 0
 1352 431 1345 387 1332 332 c 0
 1278 101 1064 21 864 21 c 0
 832 21 801 23 771 27 c 0
 712 34 628 74 576 97 c 0
 462 147 358 207 167 432 c 0
 108 501 83 551 83 579 c 0
 83 598 95 608 114 608 c 0
 159 608 247 556 344 449 c 0
 472 308 725 185 889 185 c 0
 1038 185 1146 300 1146 457 c 0xf2
 1146 559 1085 641 1029 641 c 0
 1012 641 996 633 982 617 c 0
 963 595 905 578 849 578 c 0
 768 578 730 611 730 692 c 0xf8
 730 720 735 753 743 792 c 0
 758 859 772 876 846 876 c 0
 859 876 873 876 889 875 c 0
 899 874 908 874 917 874 c 0
 1003 874 1042 901 1042 964 c 0
 1042 989 1036 1019 1024 1056 c 0
 994 1145 879 1256 815 1256 c 0
 753 1256 692 1166 692 1086 c 0
 692 1076 693 1066 695 1056 c 0
 698 1042 700 1029 700 1017 c 0
 700 981 685 957 654 938 c 0
 616 914 581 903 550 903 c 0
 472 903 422 973 422 1085 c 0
 422 1119 426 1156 436 1196 c 0
 470 1339 511 1385 620 1410 c 0xf4
EndSplineSet
EndChar

StartChar: bn_au
Encoding: 19 2452 19
GlifName: bn_au
Width: 1771
VWidth: 0
GlyphClass: 2
Flags: W
HStem: 34 189<668.946 1073.94> 566 368<1044.61 1207.65>
VStem: 538 223<1006.1 1121.32> 1219 214<226.157 564.792 936.994 1055.09> 1470 187<1259.79 1364.4>
LayerCount: 2
Fore
SplineSet
596 1918 m 0
 611 1958 640 1977 672 1977 c 0
 723 1977 781 1931 808 1853 c 0
 829 1794 1145 1650 1244 1650 c 0
 1251 1650 1256 1651 1261 1652 c 0
 1262 1652 1263 1653 1265 1653 c 0
 1287 1653 1352 1621 1418 1577 c 0
 1489 1530 1578 1514 1578 1514 c 2
 1580 1514 1657 1443 1657 1304 c 0
 1657 1192 1560 1056 1481 1056 c 0
 1451 1056 1433 1012 1433 940 c 0
 1433 876 1409 803 1379 776 c 0
 1355 755 1344 739 1344 716 c 0
 1344 693 1355 663 1379 613 c 0
 1409 550 1433 427 1433 339 c 0
 1433 109 1317 34 962 34 c 0
 734 34 664 53 459 166 c 0
 171 325 32 440 32 523 c 0
 32 531 33 539 36 547 c 0
 51 590 77 612 114 612 c 0
 158 612 216 582 291 521 c 0
 354 470 487 377 584 317 c 0
 694 248 749 223 829 223 c 0
 862 223 900 228 948 235 c 0
 1071 254 1146 287 1170 335 c 0
 1199 394 1219 456 1219 501 c 0
 1219 541 1204 566 1167 566 c 0
 1147 566 1122 559 1089 542 c 0
 1072 533 1057 529 1044 529 c 0
 987 529 958 600 933 691 c 0
 920 737 914 769 914 794 c 0
 914 832 930 854 966 882 c 0
 1006 913 1074 936 1123 936 c 0
 1141 936 1156 934 1168 934 c 0
 1196 934 1209 944 1209 1003 c 2
 1209 1012 l 2
 1208 1101 1074 1216 970 1216 c 0
 884 1216 761 1105 761 1028 c 0
 761 992 726 975 684 975 c 0
 630 975 563 1003 538 1052 c 0
 513 1101 501 1148 501 1192 c 0
 501 1316 597 1412 768 1442 c 0
 788 1446 807 1447 827 1447 c 0
 903 1447 986 1421 1104 1361 c 0
 1236 1294 1350 1258 1414 1258 c 0
 1450 1258 1470 1269 1470 1292 c 0
 1470 1348 1343 1450 1239 1478 c 0
 1183 1493 1119 1530 1095 1561 c 0
 1075 1586 1052 1601 1035 1601 c 0
 1030 1601 1026 1599 1022 1597 c 0
 1021 1597 1020 1596 1019 1596 c 0
 988 1596 739 1681 653 1773 c 0
 616 1813 593 1863 593 1898 c 0
 593 1905 594 1912 596 1918 c 0
EndSplineSet
EndChar

StartChar: bn_ka
Encoding: 20 2453 20
GlifName: bn_ka
Width: 1755
VWidth: 0
GlyphClass: 2
Flags: W
HStem: 514 144<83.9974 197.057> 946 147<1193.78 1319.71> 1194 257<1193.27 1722.94> 1200 280<16.4935 567.042> 1221 250<156.395 815.957>
VStem: 43 419<463.5 621.5> 841 162<211.023 694.059> 860 240<1097.85 1208.43> 873 146<214.943 744.766>
AnchorPoint: "abvm" 964 1226 basechar 0
AnchorPoint: "blwm" 1113 -200 basechar 0
LayerCount: 2
Fore
SplineSet
-24 1451 m 0xe5
 -17 1471 3 1480 152 1480 c 0xd5
 245 1480 387 1476 609 1471 c 0xcd
 950 1463 1334 1453 1462 1451 c 0
 1661 1447 1701 1441 1737 1408 c 0
 1759 1387 1770 1355 1770 1322 c 0
 1770 1283 1755 1242 1724 1219 c 0
 1702 1203 1637 1194 1553 1194 c 0
 1477 1194 1385 1201 1297 1215 c 0
 1254 1222 1219 1226 1192 1226 c 0
 1122 1226 1100 1201 1100 1141 c 0xe5
 1100 1096 1107 1094 1270 1093 c 0
 1416 1092 1449 1084 1498 1044 c 0
 1530 1018 1580 980 1610 958 c 0
 1680 907 1718 806 1718 666 c 0
 1718 553 1714 545 1613 443 c 0
 1555 384 1483 326 1452 312 c 0
 1416 296 1379 288 1353 288 c 0
 1332 288 1318 293 1317 304 c 0
 1310 386 1296 461 1283 485 c 0
 1274 501 1271 520 1271 539 c 0
 1271 587 1295 636 1331 645 c 0
 1362 653 1380 685 1380 709 c 0
 1380 726 1371 740 1351 740 c 0
 1313 740 1292 765 1292 801 c 0
 1292 819 1297 839 1308 861 c 0
 1319 883 1324 900 1324 913 c 0
 1324 935 1311 946 1290 946 c 0
 1254 946 1193 914 1134 851 c 0
 1065 779 1019 661 1019 561 c 2
 1019 555 l 1
 1019 546 l 2xe480
 1019 509 1014 411 1008 317 c 0
 1005 264 1003 225 1003 196 c 0xe6
 1003 138 1010 119 1028 104 c 0
 1046 89 1060 66 1060 52 c 0
 1060 38 1078 10 1100 -11 c 0
 1124 -33 1136 -65 1136 -94 c 0
 1136 -127 1121 -156 1092 -162 c 1
 1088 -162 l 2
 1065 -162 1022 -136 983 -98 c 0
 943 -59 875 -6 831 21 c 0
 786 48 707 104 651 148 c 0
 595 192 542 226 529 226 c 0
 516 226 494 241 479 260 c 0
 445 302 238 430 207 476 c 0
 193 497 169 514 155 514 c 0
 125 514 43 588 43 616 c 0
 43 627 69 647 99 658 c 0
 178 688 181 690 332 790 c 0
 410 841 480 883 490 883 c 0
 522 885 601 970 601 1003 c 0
 601 1018 608 1024 628 1024 c 0
 638 1024 653 1022 671 1019 c 0
 685 1016 700 1015 713 1015 c 0
 796 1015 860 1063 860 1131 c 0
 860 1176 849 1197 817 1209 c 0
 796 1217 694 1221 574 1221 c 0xcd
 426 1221 249 1215 161 1204 c 0
 141 1202 124 1200 110 1200 c 0xd5
 70 1200 47 1210 15 1236 c 0
 -20 1265 -39 1313 -39 1367 c 0
 -39 1394 -34 1423 -24 1451 c 0xe5
870 721 m 0
 863 742 859 755 844 755 c 0
 825 755 787 734 701 687 c 0
 629 648 558 616 540 616 c 0
 494 616 462 574 462 510 c 0
 462 417 494 374 575 358 c 0
 617 350 671 318 700 286 c 0
 728 255 772 223 796 216 c 0
 805 213 812 211 818 211 c 0
 840 211 841 242 841 388 c 0xc6
 841 491 849 598 861 629 c 0
 869 650 873 675 873 695 c 0xc480
 873 705 872 714 870 721 c 0
EndSplineSet
EndChar

StartChar: bn_kha
Encoding: 21 2454 21
GlifName: bn_kha
Width: 1337
VWidth: 0
GlyphClass: 2
Flags: W
HStem: 149 204<765.374 853.58> 1209 234<1240.36 1412.6>
VStem: 242 200<821.5 1090.58> 242 160<859.531 1100.42> 656 153<604.47 917.299> 688 120<725.128 1035.29> 1005 219<398.243 910.654 1173.57 1220> 1042 182<436.091 1172.31> 1046 409<1238.73 1423.12> 1046 193<1424 1508.19>
AnchorPoint: "abvm" 900 1222 basechar 0
AnchorPoint: "blwm" 1261 -152 basechar 0
LayerCount: 2
Fore
SplineSet
1102 1516 m 0xc080
 1138 1538 1157 1549 1171 1549 c 0
 1187 1549 1196 1535 1216 1504 c 0
 1232 1480 1239 1457 1239 1430 c 2
 1239 1424 l 1xc040
 1268 1436 1298 1443 1328 1443 c 0
 1356 1443 1384 1437 1414 1424 c 0
 1443 1411 1455 1384 1455 1353 c 0xc080
 1455 1323 1444 1289 1429 1262 c 0
 1400 1212 1349 1209 1291 1209 c 0
 1267 1209 1246 1212 1228 1220 c 1
 1225 1095 1224 914 1224 724 c 0
 1225 103 1225 101 1304 41 c 0
 1325 25 1336 -4 1336 -32 c 0
 1336 -66 1321 -99 1293 -112 c 0
 1283 -117 1274 -119 1263 -119 c 0
 1234 -119 1194 -101 1105 -53 c 0
 1024 -10 923 53 878 87 c 0
 834 121 791 149 783 149 c 0
 775 149 737 170 700 195 c 0
 663 220 580 268 516 300 c 0
 430 343 399 368 399 395 c 0
 399 436 467 519 500 519 c 0
 511 519 551 548 588 582 c 0
 651 641 656 651 656 753 c 0xca
 656 812 665 872 676 883 c 0
 684 891 688 903 688 918 c 0
 688 1006 553 1183 463 1189 c 0
 454 1190 447 1190 441 1190 c 0
 409 1190 407 1177 403 1104 c 0
 403 1098 402 1090 402 1083 c 0xd4
 402 1035 411 973 424 935 c 0
 436 900 442 871 442 844 c 0
 442 799 425 759 386 707 c 0
 321 620 223 558 150 558 c 0
 146 558 143 559 139 559 c 0
 81 565 77 568 72 644 c 0
 71 655 71 664 71 673 c 0
 71 722 86 743 148 805 c 0
 212 869 242 911 242 963 c 0
 242 1004 223 1051 188 1119 c 0
 152 1189 110 1260 96 1276 c 0
 78 1296 69 1314 69 1332 c 0
 69 1365 102 1398 172 1440 c 0
 239 1480 268 1494 309 1494 c 0
 324 1494 340 1492 361 1489 c 0
 484 1471 566 1432 631 1360 c 0
 663 1325 698 1295 707 1295 c 0
 717 1295 729 1249 736 1192 c 0
 743 1135 760 1070 776 1046 c 0
 796 1015 805 949 808 810 c 0xe4
 809 776 809 748 809 724 c 0
 809 620 801 600 761 543 c 0
 729 497 712 458 712 434 c 0
 712 417 720 408 737 408 c 0
 751 408 773 395 785 380 c 0
 800 362 829 353 862 353 c 0
 899 353 939 364 964 386 c 0
 994 412 1005 441 1005 502 c 0xca
 1005 546 1014 613 1025 648 c 0
 1037 685 1042 802 1042 916 c 0xc1
 1042 1040 1035 1160 1023 1173 c 0
 1011 1185 1005 1207 1005 1229 c 0xc2
 1005 1252 1012 1276 1025 1289 c 0
 1037 1301 1046 1350 1046 1396 c 2
 1046 1409 l 2
 1046 1473 1054 1487 1102 1516 c 0xc080
EndSplineSet
EndChar

StartChar: bn_ga
Encoding: 22 2455 22
GlifName: bn_ga
Width: 1276
VWidth: 0
GlyphClass: 2
Flags: W
HStem: 1167 238<326.287 751.539> 1263 204<1146.89 1303.15>
VStem: 28 266<1001.16 1128.34> 360 146<660.806 786.452> 950 197<1459.68 1642.97> 971 386<1269.94 1434.82> 1003 225<59.2601 716.401>
AnchorPoint: "abvm" 876 1226 basechar 0
AnchorPoint: "blwm" 1125 -8 basechar 0
LayerCount: 2
Fore
SplineSet
987 1666 m 0xb8
 1008 1672 1028 1675 1045 1675 c 0
 1077 1675 1101 1665 1120 1644 c 0
 1140 1622 1147 1604 1147 1527 c 0xb8
 1147 1508 1147 1485 1146 1458 c 1
 1165 1464 1185 1467 1205 1467 c 0
 1244 1467 1283 1456 1321 1433 c 0
 1347 1418 1357 1393 1357 1366 c 0x74
 1357 1333 1343 1295 1327 1262 c 0
 1322 1251 1314 1248 1304 1248 c 0
 1286 1248 1262 1260 1240 1262 c 0
 1234 1262 1229 1263 1223 1263 c 0
 1205 1263 1189 1261 1173 1261 c 0
 1162 1261 1151 1262 1141 1265 c 1
 1141 1108 1154 965 1202 568 c 0
 1220 421 1228 305 1228 218 c 0
 1228 143 1222 90 1209 59 c 0
 1190 13 1178 6 1125 6 c 0
 1065 6 1063 9 1036 93 c 0
 1014 162 1006 259 1003 568 c 0x72
 999 935 997 960 962 1015 c 0
 895 1121 795 1161 584 1167 c 1
 553 1167 l 2
 396 1167 294 1131 294 1073 c 0
 294 1032 400 932 443 932 c 0
 481 932 488 910 502 750 c 0
 505 718 506 693 506 672 c 0
 506 623 498 594 477 544 c 0
 457 498 422 441 397 415 c 0
 368 385 336 371 306 371 c 0
 251 371 204 418 204 496 c 0
 204 545 217 567 282 627 c 0
 325 667 360 710 360 724 c 0
 360 749 280 833 256 833 c 0
 239 833 111 914 65 955 c 0
 39 978 28 1013 28 1053 c 0
 28 1153 98 1283 194 1315 c 0
 226 1326 268 1344 287 1357 c 0
 306 1370 388 1388 468 1397 c 0
 511 1402 544 1405 574 1405 c 0
 661 1405 722 1379 898 1294 c 0
 928 1279 956 1269 966 1269 c 0
 968 1269 968 1269 969 1270 c 0
 970 1271 971 1278 971 1288 c 0xb4
 971 1317 967 1378 960 1447 c 0
 954 1516 950 1563 950 1595 c 0
 950 1649 961 1659 987 1666 c 0xb8
EndSplineSet
EndChar

StartChar: bn_gha
Encoding: 23 2456 23
GlifName: bn_gha
Width: 1546
VWidth: 0
GlyphClass: 2
Flags: W
HStem: 763 196<564.047 655.605> 1204 241<63.4153 293.707> 1219 242<542.123 1128.45>
VStem: 1128 203<753.877 1123.06> 1183 150<267.467 988.56>
AnchorPoint: "abvm" 996 1230 basechar 0
AnchorPoint: "blwm" 1481 -108 basechar 0
LayerCount: 2
Fore
SplineSet
850 1219 m 2xb0
 839 1219 l 2
 798 1219 745 1224 717 1229 c 0
 708 1231 698 1232 688 1232 c 0
 659 1232 626 1224 596 1211 c 0
 551 1191 537 1184 537 1145 c 0
 537 1129 540 1107 543 1076 c 0
 549 1017 558 966 564 960 c 0
 565 959 566 959 568 959 c 0
 580 959 614 976 651 1000 c 0
 700 1033 753 1051 801 1051 c 0
 874 1051 875 1049 917 936 c 0
 940 876 950 846 950 818 c 0
 950 796 943 774 931 740 c 0
 915 696 896 634 889 604 c 0
 882 573 850 525 816 493 c 0
 790 469 774 452 774 435 c 0
 774 407 819 379 935 315 c 0
 1084 232 1158 198 1188 198 c 0
 1195 198 1199 200 1202 203 c 0
 1205 207 1207 224 1207 250 c 0
 1207 285 1204 335 1199 390 c 0
 1191 480 1183 639 1183 757 c 2
 1183 778 l 1
 1183 784 l 2xa8
 1183 1051 1128 940 1128 1033 c 0
 1128 1048 1130 1068 1133 1096 c 0
 1136 1119 1137 1141 1137 1160 c 0
 1137 1187 1134 1206 1129 1210 c 0
 1118 1217 1057 1221 968 1221 c 0
 933 1221 893 1220 850 1219 c 2xb0
556 547 m 0
 619 588 689 606 689 689 c 0
 689 756 684 763 641 763 c 0
 611 763 572 738 534 696 c 0
 502 660 458 629 439 629 c 1
 337 590 l 1
 339 608 297 619 324 640 c 0
 335 649 341 665 341 707 c 0
 341 748 335 815 325 927 c 2
 300 1194 l 1
 205 1204 l 2
 84 1217 6 1268 6 1336 c 0
 6 1393 21 1421 67 1445 c 0xc8
 84 1454 372 1461 732 1461 c 2
 806 1461 l 1
 1514 1460 l 1
 1539 1406 l 2
 1550 1383 1555 1368 1555 1352 c 0
 1555 1335 1549 1318 1536 1290 c 0
 1520 1256 1484 1219 1453 1206 c 0
 1395 1182 1332 1064 1331 976 c 0xb0
 1331 949 1331 763 1333 566 c 0
 1337 151 1351 92 1457 47 c 0
 1506 26 1523 7 1523 -27 c 0
 1523 -66 1508 -87 1469 -87 c 0
 1410 -87 1297 -42 1098 55 c 0
 806 197 476 342 448 342 c 0
 440 342 402 351 362 362 c 0
 305 378 290 392 290 428 c 0
 290 481 461 485 556 547 c 0
EndSplineSet
EndChar

StartChar: bn_nga
Encoding: 24 2457 24
GlifName: bn_nga
Width: 1108
VWidth: 0
GlyphClass: 2
Flags: W
HStem: -1 212<591.82 849.359> 1256 46<254.01 276.25> 1295 159<517.618 798.519>
VStem: 254 223<1132.01 1287> 589 190<766.699 861.316> 854 172<1075.74 1245.73> 986 65<740.427 775>
AnchorPoint: "abvm" 716 1226 basechar 0
AnchorPoint: "blwm" 765 -24 basechar 0
LayerCount: 2
Fore
SplineSet
555 1446 m 0xda
 576 1451 597 1454 620 1454 c 0
 677 1454 743 1438 823 1405 c 2
 943 1355 l 1
 989 1251 l 2
 1016 1190 1026 1163 1026 1140 c 0xbc
 1026 1128 1023 1117 1018 1103 c 0
 992 1031 923 968 848 947 c 2
 780 927 l 1
 779 855 l 1
 779 840 l 2
 779 790 785 781 814 766 c 0
 834 756 878 745 913 742 c 0
 928 740 939 740 948 740 c 0
 975 740 980 748 986 775 c 1
 1030 798 l 1
 1046 793 1051 787 1051 766 c 0
 1051 756 1050 742 1048 724 c 0
 1047 712 1046 700 1046 689 c 0
 1046 658 1051 631 1064 601 c 0
 1077 568 1083 542 1083 491 c 0
 1083 469 1082 443 1080 410 c 0
 1070 222 1060 194 953 75 c 0
 901 17 885 3 811 0 c 0
 802 0 793 -1 784 -1 c 0
 709 -1 645 12 549 65 c 0
 480 103 228 301 108 413 c 0
 43 473 29 492 29 525 c 2
 29 536 l 2
 32 570 43 585 70 596 c 0
 79 600 87 602 94 602 c 0
 113 602 130 587 171 545 c 0
 206 509 253 470 276 459 c 0
 299 448 351 408 392 369 c 0
 504 265 613 211 710 211 c 0
 777 211 838 237 890 289 c 2
 938 337 l 1
 921 453 l 2
 909 535 896 577 876 596 c 0
 858 613 839 622 820 622 c 0
 794 622 768 607 743 577 c 0
 721 551 696 530 686 530 c 0
 676 530 651 559 629 595 c 0
 595 648 589 673 589 747 c 0
 589 796 585 848 580 862 c 0
 575 876 522 914 460 948 c 0
 332 1019 297 1065 285 1179 c 0
 281 1222 272 1256 266 1256 c 0
 260 1256 254 1267 254 1279 c 0
 254 1295 268 1302 296 1302 c 0
 323 1302 357 1321 393 1354 c 0
 445 1402 496 1431 555 1446 c 0xda
780 1263 m 0
 755 1283 696 1295 642 1295 c 0
 611 1295 582 1291 562 1283 c 0
 515 1263 477 1205 477 1158 c 0
 477 1148 479 1138 483 1129 c 0
 506 1078 621 1038 709 1038 c 0
 741 1038 770 1043 789 1055 c 0
 826 1078 854 1155 854 1202 c 0
 854 1225 847 1241 832 1241 c 0
 818 1241 796 1250 780 1263 c 0
EndSplineSet
EndChar

StartChar: bn_ca
Encoding: 25 2458 25
GlifName: bn_cha
Width: 1254
VWidth: 0
GlyphClass: 2
Flags: W
HStem: -2 279<362.591 668.335> 1233 224<47.7537 241.758 480.576 1185.15> 1243 237<610.095 1254.45>
VStem: 148 200<210 614.517> 262 188<1081.65 1229.74> 770 270<361.65 542.912>
AnchorPoint: "abvm" 648 1230 basechar 0
AnchorPoint: "blwm" 410 -40 basechar 0
LayerCount: 2
Fore
SplineSet
1122 1465 m 0xcc
 1147 1475 1168 1480 1186 1480 c 0
 1224 1480 1249 1457 1267 1409 c 0
 1272 1395 1274 1380 1274 1364 c 0
 1274 1314 1252 1261 1221 1252 c 0
 1201 1246 1095 1243 975 1243 c 0
 923 1243 868 1243 817 1245 c 0
 799 1245 779 1246 758 1246 c 0
 648 1246 511 1239 479 1231 c 0
 464 1227 450 1210 450 1196 c 0xac
 450 1141 559 949 603 926 c 0
 627 914 728 823 829 724 c 0
 984 571 1040 501 1040 433 c 0
 1040 410 1033 388 1023 363 c 0
 955 201 895 128 895 113 c 0
 895 111 896 110 898 110 c 2
 899 110 l 2
 907 111 913 111 915 111 c 2
 917 111 l 1
 917 109 762 88 748 74 c 0
 733 59 708 47 691 47 c 0
 674 47 653 39 641 27 c 0
 622 8 546 -2 467 -2 c 0
 398 -2 327 6 288 21 c 0
 224 46 205 63 175 130 c 0
 156 172 148 196 148 224 c 0xb4
 148 242 151 260 157 286 c 0
 167 328 184 490 195 645 c 0
 206 802 225 952 238 984 c 0
 254 1023 262 1086 262 1139 c 0
 262 1186 256 1225 242 1230 c 0
 237 1232 222 1233 202 1233 c 0
 178 1233 147 1232 115 1229 c 0
 84 1226 63 1224 47 1224 c 0
 11 1224 8 1234 0 1264 c 0
 -3 1277 -5 1291 -5 1306 c 0
 -5 1353 11 1403 36 1433 c 0
 51 1450 71 1457 165 1457 c 0
 214 1457 282 1455 379 1452 c 0
 537 1447 687 1443 736 1443 c 2
 749 1443 l 2
 777 1444 864 1447 943 1448 c 0
 1022 1449 1102 1457 1122 1465 c 0xcc
465 856 m 0
 427 875 410 883 403 883 c 0
 400 883 399 881 398 879 c 0
 397 877 393 776 388 653 c 0
 383 530 372 418 363 402 c 0
 353 383 348 360 348 339 c 0x94
 348 310 357 286 373 280 c 0
 379 278 396 277 418 277 c 0
 445 277 480 278 515 281 c 0
 669 294 770 367 770 450 c 0
 770 473 762 498 745 522 c 0
 728 546 707 577 697 592 c 0
 687 607 653 650 618 689 c 0
 583 728 548 774 537 794 c 0
 527 813 494 841 465 856 c 0
EndSplineSet
EndChar

StartChar: bn_cha
Encoding: 26 2459 26
GlifName: bn_chha
Width: 1594
VWidth: 0
GlyphClass: 2
Flags: W
HStem: 164 220<399.354 618.314> 780 181<1049 1121> 1204 247<470 705.11> 1216 203<-10.5197 206.746> 1249 211<864.561 1506.17>
VStem: 196 155<447.474 962.978> 227 243<1077.99 1196.71> 787 262<524.343 734.818> 974 239<187.5 282.821> 1279 234<471.686 702.216>
AnchorPoint: "abvm" 816 1226 basechar 0
AnchorPoint: "blwm" 1758 -242 basechar 0
LayerCount: 2
Fore
SplineSet
391 1440 m 0xd240
 547 1447 693 1451 767 1451 c 0xe240
 794 1451 811 1450 817 1449 c 0
 839 1445 900 1443 978 1443 c 0
 1098 1443 1257 1447 1366 1456 c 0
 1405 1459 1437 1460 1463 1460 c 0
 1510 1460 1536 1455 1550 1445 c 0
 1572 1429 1581 1405 1581 1380 c 0
 1581 1313 1517 1233 1446 1233 c 0
 1439 1233 1432 1233 1425 1235 c 0
 1384 1244 1356 1249 1294 1249 c 0xca40
 1223 1249 1108 1243 880 1229 c 2
 470 1204 l 1
 470 1155 l 2
 470 1094 575 1011 763 923 c 0
 799 906 832 898 859 898 c 0
 894 898 919 912 929 939 c 0
 934 954 990 961 1051 961 c 0
 1120 961 1196 952 1217 935 c 0
 1237 919 1280 901 1316 894 c 0
 1427 873 1513 733 1513 607 c 0
 1513 572 1506 538 1491 508 c 0
 1456 436 1356 341 1257 284 c 0
 1231 269 1213 250 1213 238 c 0
 1213 236 1213 234 1214 233 c 0
 1232 208 1449 115 1524 100 c 0
 1560 93 1626 57 1670 21 c 0
 1714 -15 1774 -62 1802 -83 c 0
 1831 -104 1846 -134 1846 -160 c 0
 1846 -179 1837 -196 1820 -206 c 0
 1818 -207 1815 -207 1811 -207 c 0
 1769 -207 1613 -148 1413 -55 c 0
 1306 -5 1209 37 1199 37 c 0
 1171 37 986 153 976 177 c 0
 975 180 974 185 974 190 c 0xe2c0
 974 240 1027 369 1061 393 c 0
 1078 405 1116 416 1144 416 c 0
 1225 416 1279 498 1279 583 c 0
 1279 623 1266 664 1239 697 c 0
 1215 726 1195 751 1194 752 c 0
 1193 753 1161 760 1121 767 c 2
 1049 780 l 1
 1049 692 l 2
 1049 565 1008 492 859 362 c 0
 699 221 629 187 480 170 c 0
 448 166 425 164 407 164 c 0
 368 164 350 174 321 199 c 0
 294 222 267 270 261 306 c 0
 255 342 241 386 229 405 c 0
 207 440 196 518 196 626 c 0xe540
 196 701 201 791 212 892 c 0
 221 978 227 1040 227 1085 c 0
 227 1192 194 1205 96 1216 c 0
 25 1224 -4 1237 -11 1262 c 0
 -14 1272 -15 1290 -15 1311 c 0
 -15 1356 -9 1411 -1 1419 c 0
 2 1422 179 1431 391 1440 c 0xd240
520 849 m 0
 513 849 479 877 443 913 c 0
 411 945 381 965 369 965 c 0
 367 965 366 965 365 964 c 0
 355 955 351 874 351 778 c 0
 351 647 359 490 373 462 c 0
 385 439 416 409 442 397 c 0
 459 389 474 384 490 384 c 0
 511 384 535 392 575 408 c 0
 716 464 787 548 787 656 c 0xc540
 787 710 776 721 659 782 c 0
 590 818 526 849 520 849 c 0
EndSplineSet
EndChar

StartChar: bn_ja
Encoding: 27 2460 27
GlifName: bn_ja
Width: 1566
VWidth: 0
GlyphClass: 2
Flags: W
HStem: -65 207<1436 1533.57> -33 282<574.38 822.674> 894 181<924.475 1246.64> 1212 201<917.263 1546.8> 1227 236<0.826228 654.035>
VStem: -36 161<508.084 672.174> 654 238<631.245 868.64> 676 237<1098.43 1197.52> 964 191<358.765 583.628> 1303 177<491.991 827> 1310 128<142.658 827> 1320 266<-10.6997 115.432>
AnchorPoint: "abvm" 840 1218 basechar 0
AnchorPoint: "blwm" 1346 -32 basechar 0
LayerCount: 2
Fore
SplineSet
-18 1384 m 2x6d80
 5 1463 l 1x6d80
 168 1454 l 2
 527 1434 1168 1413 1393 1413 c 0
 1432 1413 1459 1414 1469 1415 c 0
 1486 1417 1500 1418 1513 1418 c 0
 1563 1418 1584 1400 1584 1358 c 0
 1584 1346 1582 1333 1579 1317 c 0
 1573 1284 1559 1250 1548 1242 c 0
 1523 1222 1464 1212 1387 1212 c 0
 1354 1212 1317 1214 1278 1218 c 0
 1247 1221 1213 1223 1178 1223 c 0
 1128 1223 1077 1220 1036 1213 c 0
 932 1197 919 1191 913 1155 c 0
 910 1133 915 1107 924 1098 c 0
 933 1089 1015 1079 1108 1075 c 0
 1317 1067 1428 1044 1458 1004 c 0
 1473 984 1480 939 1480 892 c 0x35c0
 1480 853 1475 812 1464 784 c 0
 1455 760 1437 633 1435 502 c 0
 1435 478 1434 456 1434 435 c 0
 1434 328 1438 249 1438 195 c 0x34a0
 1438 173 1438 156 1436 142 c 1
 1502 140 1576 127 1583 110 c 0
 1585 105 1586 100 1586 93 c 0
 1586 51 1547 -20 1505 -46 c 0
 1484 -59 1458 -65 1432 -65 c 0
 1386 -65 1341 -45 1331 -12 c 0
 1324 13 1320 41 1320 65 c 0xb490
 1320 85 1323 104 1328 116 c 1
 1311 136 1312 193 1310 349 c 0xb4a0
 1309 418 1307 552 1306 650 c 2
 1303 827 l 1
 1228 860 l 2
 1177 882 1105 894 1042 894 c 0
 986 894 938 885 919 866 c 0
 901 848 892 831 892 815 c 0
 892 787 918 764 966 756 c 0
 1092 736 1155 670 1155 558 c 0
 1155 535 1152 510 1147 483 c 0
 1112 306 1096 249 1066 194 c 0
 1030 129 918 37 857 23 c 0
 832 17 796 2 776 -11 c 0
 754 -26 720 -33 689 -33 c 0
 665 -33 644 -29 633 -19 c 0
 623 -10 564 17 500 43 c 0
 321 115 303 124 303 146 c 0
 303 157 248 221 181 286 c 0
 32 430 -36 523 -36 583 c 0
 -36 635 9 705 41 705 c 0
 68 705 125 616 125 573 c 0
 125 512 403 290 521 257 c 0
 540 251 578 249 621 249 c 0
 648 249 676 250 702 252 c 0
 816 262 832 268 895 331 c 0
 953 389 964 410 964 472 c 0
 964 524 953 555 927 577 c 0
 909 593 899 600 883 600 c 0
 868 600 849 594 814 581 c 0
 780 569 757 563 738 563 c 0
 723 563 710 567 694 574 c 0
 666 587 654 593 654 669 c 0x66c0
 654 723 660 811 670 963 c 0
 674 1029 676 1077 676 1111 c 0
 676 1167 670 1188 658 1198 c 0
 644 1209 540 1222 428 1227 c 0
 54 1245 -31 1252 -31 1320 c 0
 -31 1337 -26 1358 -18 1384 c 2x6d80
EndSplineSet
EndChar

StartChar: bn_jha
Encoding: 28 2461 28
GlifName: bn_jha
Width: 1757
VWidth: 0
GlyphClass: 2
Flags: W
HStem: -190 140<1209.75 1318.78> 1199 258<10.2177 639.01> 1226 250<222.349 907.999 1506.1 1644.3> 1288 188<1111.12 1289.9>
VStem: 213 233<338 434> 900 198<175.383 458.632 1162.48 1214.76> 1354 150<598.71 1197>
AnchorPoint: "abvm" 988 1210 basechar 0
AnchorPoint: "blwm" 1340 -242 basechar 0
LayerCount: 2
Fore
SplineSet
42 1457 m 0xce
 68 1469 335 1476 806 1476 c 2
 904 1476 l 2
 1728 1475 1770 1480 1770 1381 c 0
 1770 1371 1769 1360 1769 1348 c 0
 1769 1299 1754 1270 1714 1239 c 0
 1685 1217 1668 1208 1645 1208 c 0
 1630 1208 1613 1212 1588 1219 c 0
 1560 1227 1533 1232 1518 1232 c 0
 1512 1232 1508 1231 1506 1229 c 0
 1504 1227 1504 1216 1504 1197 c 0
 1504 1146 1509 1039 1518 918 c 0
 1556 412 1557 411 1598 367 c 0
 1622 342 1633 299 1633 259 c 0
 1633 207 1615 158 1581 154 c 0
 1578 154 1574 153 1571 153 c 0
 1550 153 1527 161 1513 174 c 0
 1441 241 1228 413 1182 441 c 0
 1160 455 1140 463 1129 463 c 0
 1126 463 1123 462 1122 460 c 0
 1105 431 1098 390 1098 343 c 0
 1098 190 1177 -22 1266 -50 c 0
 1304 -62 1333 -105 1333 -141 c 0
 1333 -148 1331 -156 1329 -162 c 0
 1322 -181 1302 -190 1274 -190 c 0
 1242 -190 1201 -178 1157 -154 c 0
 1118 -133 1076 -116 1062 -116 c 0
 1048 -116 1015 -99 990 -77 c 0
 964 -55 919 -27 886 -13 c 0
 656 87 490 174 327 279 c 0
 290 303 251 321 237 321 c 0
 223 321 213 328 213 338 c 0
 213 347 178 369 135 386 c 0
 70 412 36 438 36 467 c 0
 36 504 88 546 193 599 c 0
 263 635 358 696 407 737 c 0
 455 777 553 838 625 872 c 0
 791 951 885 1038 902 1127 c 0
 906 1149 908 1171 908 1188 c 0
 908 1201 907 1210 904 1215 c 0
 899 1223 797 1226 667 1226 c 0xae
 453 1226 164 1217 109 1204 c 0
 95 1201 83 1199 72 1199 c 0
 19 1199 -2 1240 -2 1338 c 0
 -2 1422 5 1440 42 1457 c 0xce
1299 1229 m 0
 1288 1262 1275 1288 1268 1288 c 2
 1267 1288 l 2x9e
 1260 1286 1221 1282 1182 1278 c 2
 1110 1270 l 1
 1120 1105 l 2
 1140 759 1141 754 1235 663 c 0
 1279 621 1308 596 1327 596 c 0
 1346 596 1354 621 1354 681 c 0
 1354 729 1349 799 1341 894 c 0
 1329 1044 1310 1195 1299 1229 c 0
882 582 m 0
 876 668 865 739 858 739 c 0
 851 739 809 713 762 682 c 0
 715 651 669 625 659 625 c 0
 648 625 641 617 641 606 c 0
 641 595 633 587 621 587 c 0
 610 587 567 565 524 537 c 0
 464 498 446 475 446 434 c 0
 446 394 458 379 497 370 c 0
 525 363 571 342 600 322 c 0
 745 224 839 173 871 173 c 2
 875 173 l 2
 892 176 900 196 900 266 c 0
 900 326 894 424 882 582 c 0
EndSplineSet
EndChar

StartChar: bn_nya
Encoding: 29 2462 29
GlifName: bn_nya
Width: 1578
VWidth: 0
GlyphClass: 2
Flags: W
HStem: -11 194<1126.63 1277.5> 47 136<1070.12 1208.89> 1189 262<24.358 372.805> 1204 245<102.153 269.362 273.066 374 844.283 1430.55>
VStem: 860 142<105 559> 1140 258<435.257 556.34> 1199 315<594.966 735.784> 1284 254<150.5 363.833>
AnchorPoint: "abvm" 760 1230 basechar 0
AnchorPoint: "blwm" 1048 -292 basechar 0
LayerCount: 2
Fore
SplineSet
404 1449 m 0x19
 461 1455 600 1458 743 1458 c 0
 780 1458 816 1457 852 1457 c 0
 1470 1453 1511 1450 1579 1409 c 1
 1601 1381 1612 1352 1612 1324 c 0
 1612 1292 1597 1262 1568 1244 c 1
 1497 1229 1242 1211 1002 1204 c 1
 920 1197 849 1187 844 1182 c 0
 843 1181 843 1181 843 1180 c 0
 843 1171 861 1144 887 1117 c 0
 916 1087 942 1048 942 1033 c 0
 943 976 978 947 1054 942 c 0
 1283 927 1483 830 1511 721 c 0
 1513 714 1514 706 1514 699 c 0x1a
 1514 669 1498 636 1461 583 c 0
 1427 535 1398 488 1398 482 c 0x1c
 1398 475 1430 436 1468 394 c 0
 1528 328 1538 303 1538 218 c 0
 1538 83 1460 -41 1376 -41 c 0
 1344 -41 1319 -31 1319 -19 c 0
 1319 -7 1305 -2 1287 -9 c 0
 1284 -10 1280 -11 1275 -11 c 0x99
 1251 -11 1205 1 1164 19 c 0
 1125 36 1087 47 1068 47 c 0
 1063 47 1059 46 1057 44 c 0
 1055 42 1053 34 1053 23 c 0
 1053 -3 1060 -50 1070 -100 c 0
 1082 -156 1088 -189 1088 -210 c 0
 1088 -233 1081 -243 1066 -254 c 0
 1044 -271 1022 -279 1000 -279 c 0
 963 -279 926 -255 887 -206 c 2
 828 -132 l 1
 619 -119 l 2
 504 -112 400 -100 388 -93 c 0
 376 -86 315 -70 251 -58 c 0
 187 -46 106 -19 70 3 c 0
 22 32 9 47 9 84 c 0
 9 91 9 98 10 106 c 0
 16 166 21 168 124 174 c 0
 135 175 145 175 156 175 c 0
 207 175 259 169 283 161 c 0
 311 151 402 131 484 119 c 0
 566 107 673 84 722 68 c 0
 772 52 804 41 825 41 c 0
 852 41 860 59 860 105 c 0
 860 127 858 157 856 194 c 0
 821 735 772 941 671 966 c 0
 662 968 654 969 645 969 c 0
 578 969 513 907 507 828 c 0
 501 757 500 757 393 744 c 0
 365 741 343 738 325 738 c 0
 281 738 260 751 215 784 c 0
 169 819 146 853 146 886 c 0
 146 961 215 1081 299 1151 c 2
 374 1214 l 1
 315 1204 l 2x59
 250 1194 166 1189 99 1189 c 0
 47 1189 5 1192 -7 1199 c 0
 -23 1209 -30 1231 -30 1259 c 0
 -30 1297 -16 1345 10 1389 c 1
 47 1437 60 1451 111 1451 c 0x29
 129 1451 152 1450 181 1447 c 0
 204 1444 236 1443 271 1443 c 0
 315 1443 364 1445 404 1449 c 0x19
1176 731 m 0
 1160 747 1137 754 1112 754 c 0
 1083 754 1053 744 1032 723 c 0
 1012 703 1002 642 1002 559 c 0
 1002 499 1008 427 1018 349 c 0
 1032 245 1096 183 1159 183 c 0
 1197 183 1235 205 1262 254 c 0
 1276 280 1284 302 1284 322 c 0x89
 1284 358 1260 387 1207 419 c 0
 1162 447 1140 482 1140 517 c 0x8c
 1140 540 1150 563 1170 583 c 0
 1189 602 1199 633 1199 663 c 0
 1199 690 1191 716 1176 731 c 0
EndSplineSet
EndChar

StartChar: bn_tta
Encoding: 30 2463 30
GlifName: bn_T_a
Width: 1315
VWidth: 0
GlyphClass: 2
Flags: W
HStem: -15 173<485.887 678.174> 547 143<545.696 738.026> 905 167<392.458 791.137> 1259 167<29.0323 172.952 383.536 815.764 921.655 1109.65>
VStem: 225 87<352.394 796.4> 232 130<1084.55 1231> 796 167<282.35 481.383> 819 98<1104.94 1226.86>
AnchorPoint: "abvm" 644 1230 basechar 0
AnchorPoint: "blwm" 608 -32 basechar 0
LayerCount: 2
Fore
SplineSet
813 1218 m 0xf5
 789 1242 677 1259 574 1259 c 0
 538 1259 503 1257 474 1252 c 0
 395 1240 362 1210 362 1153 c 0
 362 1084 393 1072 573 1072 c 0
 723 1072 791 1091 807 1137 c 0
 815 1160 819 1181 819 1196 c 0
 819 1206 817 1214 813 1218 c 0xf5
443 358 m 1
 420 389 349 474 349 500 c 0
 349 504 350 507 354 508 c 1
 351 513 349 520 349 526 c 0
 349 586 475 690 617 690 c 0
 680 690 745 670 805 616 c 0
 901 530 963 437 963 320 c 0
 963 279 955 234 938 186 c 0
 888 45 792 -15 612 -15 c 0
 320 -15 225 157 225 726 c 0xfa
 225 753 226 781 226 809 c 2
 232 1231 l 1xf4
 111 1255 l 2
 23 1273 -18 1302 -18 1331 c 0
 -18 1369 55 1406 186 1415 c 0
 304 1422 456 1426 609 1426 c 0
 905 1426 1204 1413 1269 1392 c 0
 1328 1373 1365 1328 1365 1277 c 0
 1365 1238 1354 1216 1336 1216 c 0
 1331 1216 1325 1218 1319 1222 c 0
 1292 1239 1187 1247 1092 1247 c 0
 1010 1247 934 1241 921 1227 c 0
 919 1224 917 1220 917 1214 c 0
 917 1193 932 1155 955 1116 c 0
 976 1081 987 1058 987 1039 c 0
 987 1014 969 995 928 965 c 0
 881 930 753 905 623 905 c 0
 414 905 396 896 345 775 c 0
 320 717 312 634 312 572 c 0xf9
 312 559 312 546 313 535 c 2
 362 320 l 1
 445 236 l 2
 497 184 541 158 584 158 c 0
 633 158 680 192 735 261 c 0
 776 313 796 353 796 389 c 0xf6
 796 408 790 426 780 445 c 0
 745 509 696 547 644 547 c 0
 595 547 543 514 495 440 c 2
 443 358 l 1
EndSplineSet
Substitution2: "ss01StyleSet1inBengali2lookup11 subtable" bn_tta.alt
EndChar

StartChar: bn_ttha
Encoding: 31 2464 31
GlifName: bn_T_ha
Width: 1103
VWidth: 0
GlyphClass: 2
Flags: W
HStem: 48 249<369.212 655.32> 1232 255<-28.5767 62.2758> 1248 216<3.94041 132.352> 1250 191<465.816 1102.92>
VStem: 139 146<445.026 1014.83> 785 263<425.5 631.11>
AnchorPoint: "abvm" 684 1254 basechar 0
AnchorPoint: "blwm" 468 33 basechar 0
LayerCount: 2
Fore
SplineSet
532 843 m 0x8c
 426 937 331 1015 323 1015 c 0
 315 1015 308 979 308 935 c 0
 308 892 301 808 292 751 c 0
 287 719 285 687 285 659 c 0
 285 634 287 613 291 600 c 0
 300 575 315 512 326 460 c 0
 352 334 376 309 475 299 c 0
 488 298 501 297 513 297 c 0
 597 297 660 331 728 410 c 0
 764 452 785 488 785 527 c 0
 785 601 710 686 532 843 c 0x8c
-9 1844 m 0
 -3 1859 7 1866 27 1866 c 0
 36 1866 46 1864 60 1862 c 0
 131 1849 161 1820 181 1750 c 0
 217 1621 276 1490 310 1464 c 0xac
 332 1447 364 1441 489 1441 c 0
 533 1441 589 1442 660 1443 c 0
 834 1446 1009 1451 1049 1454 c 2
 1122 1459 l 1
 1121 1377 l 2
 1119 1285 1086 1251 996 1250 c 0x9c
 738 1248 418 1227 418 1212 c 0
 418 1156 551 1023 937 693 c 0
 1039 606 1048 597 1048 526 c 2
 1048 508 l 2
 1047 441 1036 404 1004 361 c 0
 923 254 816 144 793 144 c 0
 781 144 756 129 740 112 c 0
 704 75 569 48 456 48 c 0
 416 48 378 52 349 59 c 0
 287 75 265 92 233 149 c 0
 173 256 139 492 139 770 c 0
 139 875 144 986 154 1099 c 0
 159 1152 162 1196 165 1234 c 1
 141 1237 115 1248 87 1248 c 0xac
 82 1248 76 1248 71 1247 c 0
 47 1243 23 1232 3 1232 c 0
 -9 1232 -20 1236 -29 1247 c 0
 -49 1271 -55 1295 -55 1322 c 0
 -55 1343 -52 1364 -49 1388 c 0
 -49 1429 -49 1466 -46 1483 c 1
 -38 1486 -32 1487 -25 1487 c 0xcc
 4 1487 27 1464 64 1464 c 0xac
 81 1464 101 1469 125 1483 c 0
 128 1484 130 1484 133 1485 c 1
 118 1513 99 1544 73 1583 c 0
 8 1682 -20 1741 -20 1791 c 0
 -20 1810 -16 1827 -9 1844 c 0
EndSplineSet
PickledDataWithLists: "(dp0
Vcom.fontlab.hintData
p1
(dp2
Vhhints
p3
(lp4
(dp5
Vposition
p6
I48
sVwidth
p7
I249
sa(dp8
g6
I1232
sg7
I255
sa(dp9
g6
I1248
sg7
I216
sa(dp10
g6
I1250
sg7
I191
sasVvhints
p11
(lp12
(dp13
g6
I139
sg7
I146
sa(dp14
g6
I785
sg7
I263
sass."
EndChar

StartChar: bn_dda
Encoding: 32 2465 32
GlifName: bn_D_a
Width: 1372
VWidth: 0
GlyphClass: 2
Flags: W
HStem: -62 215<617.406 986.482> 576 211<893.363 1109.48> 576 162<874.142 1024.19> 1235 212<76.1603 597.346 855.653 1235.87>
VStem: -9 241<457.87 555.745> 656 191<738.293 1069> 1150 203<287.649 536.481>
AnchorPoint: "abvm" 748 1222 basechar 0
AnchorPoint: "blwm" 812 -107 basechar 0
LayerCount: 2
Fore
SplineSet
57 1189 m 0xde
 7 1189 -2 1218 -2 1272 c 0
 -2 1326 9 1402 26 1429 c 0
 34 1442 107 1447 341 1447 c 0
 431 1447 546 1446 689 1445 c 0
 1046 1442 1347 1434 1359 1426 c 0
 1373 1417 1381 1380 1381 1343 c 0
 1381 1308 1375 1274 1361 1260 c 0
 1347 1246 1263 1239 1106 1239 c 0
 941 1239 868 1233 855 1218 c 0
 849 1211 847 1178 847 1131 c 0
 847 998 866 760 885 741 c 0
 887 739 891 738 897 738 c 0xbe
 931 738 1015 787 1047 787 c 0
 1064 787 1082 782 1107 774 c 0
 1143 762 1206 717 1246 677 c 2
 1246 677 1316 644 1327 603 c 0
 1345 536 1353 468 1353 400 c 0
 1353 349 1348 297 1339 246 c 0
 1333 213 1276 183 1276 183 c 2
 1246 149 1193 93 1162 60 c 0
 1088 -19 983 -75 916 -75 c 0
 883 -75 841 -62 813 -62 c 2
 807 -62 l 2
 780 -62 757 -63 737 -63 c 0
 648 -63 619 -54 556 -18 c 0
 510 8 450 48 426 69 c 0
 401 91 353 125 316 147 c 0
 279 169 249 192 249 198 c 0
 249 204 205 257 151 315 c 0
 43 430 -9 515 -9 579 c 0
 -9 626 37 684 81 684 c 0
 107 684 129 662 151 616 c 0
 166 584 191 548 205 536 c 0
 219 524 232 504 232 493 c 0
 232 465 319 377 396 324 c 0
 431 300 462 274 462 267 c 0
 462 260 474 254 486 254 c 0
 499 254 547 234 591 210 c 0
 662 172 728 153 797 153 c 0
 838 153 880 160 925 173 c 0
 1065 214 1150 306 1150 414 c 0
 1150 510 1090 576 1012 576 c 0
 988 576 963 571 938 558 c 0
 905 541 833 525 776 521 c 2
 674 514 l 1
 656 978 l 1
 646 1069 l 2
 641 1118 626 1169 615 1181 c 0
 594 1203 412 1235 341 1235 c 0
 298 1235 261 1229 203 1215 c 0
 129 1197 85 1189 57 1189 c 0xde
EndSplineSet
PickledDataWithLists: "(dp0
Vcom.fontlab.hintData
p1
(dp2
Vhhints
p3
(lp4
(dp5
Vposition
p6
I-62
sVwidth
p7
I215
sa(dp8
g6
I576
sg7
I211
sa(dp9
g6
I576
sg7
I162
sa(dp10
g6
I1235
sg7
I212
sasVvhints
p11
(lp12
(dp13
g6
I-9
sg7
I241
sa(dp14
g6
I656
sg7
I191
sass."
EndChar

StartChar: bn_ddha
Encoding: 33 2466 33
GlifName: bn_D_ha
Width: 1129
VWidth: 0
GlyphClass: 2
Flags: W
HStem: -22 282<482.681 716.589> 596 230<565.064 825.675> 1182 258<15 183.38> 1220 220<43.9866 189.952 417.465 1027.56>
VStem: 192 188<364 1186.7> 854 227<371.85 567.856>
AnchorPoint: "abvm" 576 1234 basechar 0
AnchorPoint: "blwm" 673 -36 basechar 0
LayerCount: 2
Fore
SplineSet
1028 1465 m 0xec
 1031 1468 1038 1469 1046 1469 c 0
 1074 1469 1125 1454 1141 1438 c 0
 1148 1430 1159 1392 1164 1355 c 0
 1166 1342 1166 1330 1166 1320 c 0
 1166 1290 1160 1272 1144 1255 c 0
 1114 1223 1113 1223 677 1218 c 0
 497 1216 446 1210 425 1188 c 0
 403 1165 397 1090 389 762 c 2
 380 364 l 1
 426 314 l 2
 460 278 506 260 559 260 c 0
 612 260 673 278 734 314 c 0
 815 362 854 413 854 469 c 0
 854 485 851 500 845 517 c 0
 825 571 784 596 699 596 c 0
 651 596 588 588 508 572 c 0
 496 570 486 568 478 568 c 0
 456 568 446 577 434 599 c 0
 429 608 427 617 427 627 c 0
 427 706 564 811 701 824 c 0
 715 825 728 826 740 826 c 0
 785 826 817 814 885 774 c 0
 985 716 1002 693 1059 549 c 0
 1073 512 1081 491 1081 465 c 0
 1081 439 1074 407 1058 345 c 0
 1031 234 1015 205 934 118 c 0
 845 22 768 -22 673 -22 c 0
 631 -22 586 -14 534 3 c 0
 448 30 320 108 284 154 c 0
 234 218 192 383 192 499 c 0
 192 520 193 539 196 556 c 0
 203 595 206 715 206 843 c 0
 206 1021 200 1213 190 1219 c 0
 189 1220 187 1220 184 1220 c 0xdc
 171 1220 144 1212 116 1200 c 0
 88 1188 64 1182 43 1182 c 0
 -1 1182 -28 1209 -28 1260 c 0
 -28 1294 -16 1349 -5 1382 c 2
 15 1440 l 1
 517 1448 l 2
 793 1452 1022 1459 1028 1465 c 0xec
EndSplineSet
EndChar

StartChar: bn_nna
Encoding: 34 2467 34
GlifName: bn_N_a
Width: 1272
VWidth: 0
GlyphClass: 2
Flags: W
HStem: 455 193<284.281 389.792> 530 410<545.5 685.731> 737 262<726 910.682> 777 239<236.766 494.704>
VStem: 33 203<657.093 776.768> 549 166<542.784 726.011> 1018 192<-2.46259 419.074> 1042 195<94.5583 641.708 1248.85 1627.37> 1060 154<836.548 1145.16>
AnchorPoint: "abvm" 934 1467 basechar 0
AnchorPoint: "blwm" 1126 -75 basechar 0
LayerCount: 2
Fore
SplineSet
1052 1643 m 0x2c80
 1059 1660 1078 1668 1100 1668 c 0
 1129 1668 1164 1654 1191 1629 c 0
 1229 1594 1235 1572 1235 1492 c 0
 1235 1441 1243 1361 1253 1317 c 0
 1259 1289 1263 1266 1263 1248 c 0
 1263 1229 1259 1215 1252 1203 c 0
 1229 1163 1214 998 1214 838 c 0x2c80
 1214 776 1216 716 1221 663 c 0
 1230 567 1237 481 1237 472 c 0x2d
 1236 305 1220 16 1210 -5 c 0
 1198 -31 1173 -44 1142 -44 c 0
 1128 -44 1113 -42 1097 -36 c 0
 1053 -20 1018 90 1018 192 c 0x2e
 1018 212 1019 232 1022 251 c 0
 1035 333 1042 380 1042 421 c 0
 1042 462 1035 496 1022 551 c 0
 981 723 967 737 836 737 c 2
 726 737 l 1x2d
 715 650 l 2
 703 564 681 530 635 530 c 0x4d
 630 530 625 530 619 531 c 0
 590 535 573 558 549 625 c 0
 498 766 484 777 351 777 c 2
 236 777 l 1
 236 722 l 2
 236 670 242 665 315 648 c 0
 419 623 433 614 433 570 c 0
 433 524 368 468 301 455 c 0x9d
 296 454 290 454 284 454 c 0
 222 454 108 501 108 530 c 0x4d
 108 539 92 567 72 593 c 0
 46 625 33 687 33 748 c 0
 33 804 44 860 66 895 c 0
 99 948 109 953 211 971 c 0
 243 977 279 986 288 993 c 0
 309 1008 333 1016 361 1016 c 0x1d
 390 1016 423 1007 457 991 c 0
 496 972 531 951 536 944 c 0
 538 941 542 940 549 940 c 0x4d
 583 940 669 967 691 989 c 0
 698 996 718 999 742 999 c 0
 787 999 849 988 883 971 c 0
 953 936 1030 875 1030 854 c 0
 1030 843 1038 834 1047 834 c 0
 1065 834 1076 851 1076 874 c 0
 1076 886 1073 900 1067 915 c 0
 1062 927 1060 937 1060 947 c 0
 1060 961 1065 973 1075 986 c 0
 1090 1005 1098 1041 1098 1073 c 0
 1098 1098 1093 1121 1083 1131 c 0
 1069 1145 1048 1442 1048 1578 c 0
 1048 1612 1049 1636 1052 1643 c 0x2c80
EndSplineSet
EndChar

StartChar: bn_ta
Encoding: 35 2468 35
GlifName: bn_ta
Width: 1509
VWidth: 0
GlyphClass: 2
Flags: W
HStem: -57 241<761.076 1166.38> 1177 268<24.4673 364.72> 1218 214<172.173 599.661> 1235 231<989.571 1517.02>
VStem: 1272 216<317.266 634.317>
AnchorPoint: "abvm" 834 1244 basechar 0
AnchorPoint: "blwm" 1006 -79 basechar 0
LayerCount: 2
Fore
SplineSet
967 1447 m 0xa8
 999 1454 1140 1462 1282 1464 c 0
 1340 1465 1385 1466 1420 1466 c 0
 1534 1466 1541 1459 1549 1431 c 0
 1560 1396 1565 1370 1565 1349 c 0
 1565 1317 1552 1298 1524 1283 c 0
 1449 1243 1395 1236 1186 1235 c 0x98
 1029 1234 987 1229 987 1209 c 0
 987 1168 1093 1076 1210 1016 c 0
 1300 970 1331 941 1379 864 c 0
 1411 812 1449 736 1463 696 c 0
 1480 648 1488 561 1488 483 c 0
 1488 406 1480 336 1464 320 c 0
 1451 307 1436 274 1429 244 c 0
 1401 119 1383 95 1267 37 c 0
 1107 -43 1093 -48 1005 -56 c 0
 998 -57 991 -57 983 -57 c 0
 905 -57 772 -27 737 1 c 0
 728 8 698 21 672 27 c 0
 613 42 468 160 297 335 c 0
 116 521 73 572 73 599 c 0
 73 613 60 635 45 648 c 0
 12 677 -3 702 -3 722 c 0
 -3 753 32 771 93 775 c 0
 131 777 138 777 144 772 c 2
 163 761 l 1
 163 761 181 700 387 493 c 0
 537 342 610 283 702 237 c 0
 782 197 813 184 866 184 c 0
 887 184 911 186 943 189 c 0
 1010 195 1090 202 1121 203 c 0
 1170 205 1182 216 1218 296 c 0
 1254 376 1272 434 1272 488 c 0
 1272 554 1245 614 1187 703 c 0
 1167 734 1152 750 1140 750 c 0
 1127 750 1117 733 1106 701 c 0
 1085 639 1003 574 929 562 c 0
 918 560 907 559 896 559 c 0
 816 559 751 611 705 710 c 0
 676 773 661 821 661 861 c 0
 661 905 679 940 714 978 c 0
 739 1005 754 1025 754 1044 c 0
 754 1075 718 1103 635 1155 c 0
 539 1215 529 1218 369 1218 c 0xa8
 278 1218 167 1207 124 1193 c 0
 91 1183 72 1177 58 1177 c 0xc8
 42 1177 34 1185 24 1202 c 0
 13 1221 4 1275 4 1323 c 0
 4 1407 6 1411 66 1432 c 0xa8
 92 1441 128 1445 171 1445 c 0xc8
 196 1445 223 1444 252 1441 c 0
 316 1435 440 1432 567 1432 c 0
 741 1432 921 1437 967 1447 c 0xa8
EndSplineSet
EndChar

StartChar: bn_tha
Encoding: 36 2469 36
GlifName: bn_tha
Width: 1163
VWidth: 0
GlyphClass: 2
Flags: W
HStem: 139 132<805 911> 812 257<238.301 341.553> 1212 229<1134.71 1342.97> 1226 190<249.609 470.648>
VStem: 10 227<1069.76 1216.53> 223 361<492.79 614.272> 362 154<1023.5 1204.24> 594 173<851.366 1140.32> 973 158<286.051 1212>
AnchorPoint: "abvm" 942 1232 basechar 0
AnchorPoint: "blwm" 1206 -191 basechar 0
LayerCount: 2
Fore
SplineSet
1059 1417 m 0xd580
 1077 1431 1143 1441 1223 1441 c 0
 1366 1441 1378 1433 1378 1340 c 0
 1378 1266 1339 1235 1233 1223 c 2
 1134 1212 l 1
 1131 978 l 2
 1129 850 1127 680 1126 604 c 0
 1125 528 1117 414 1110 353 c 0
 1107 328 1106 303 1106 278 c 0
 1106 150 1142 27 1200 -21 c 0
 1232 -47 1248 -77 1248 -111 c 0
 1248 -151 1233 -172 1208 -172 c 0
 1188 -172 1161 -159 1129 -131 c 0
 885 82 817 139 805 139 c 0
 797 139 760 161 723 188 c 0
 686 215 612 262 560 290 c 0
 508 318 425 376 379 417 c 0
 332 459 285 492 272 492 c 0
 259 492 242 516 232 548 c 0
 227 565 223 577 223 588 c 0xe580
 223 617 251 634 359 696 c 0
 479 765 535 816 570 887 c 0
 586 919 594 993 594 1050 c 0
 594 1092 590 1125 579 1125 c 0
 569 1125 546 1143 526 1165 c 2
 490 1205 l 1
 507 1141 l 2
 513 1119 516 1095 516 1071 c 0
 516 976 472 883 417 883 c 0
 402 883 370 866 344 844 c 0
 316 821 294 812 262 812 c 0
 252 812 241 812 229 814 c 0
 121 829 60 888 27 1007 c 0
 16 1048 10 1087 10 1123 c 0xeb80
 10 1287 127 1390 345 1411 c 0
 378 1414 407 1416 432 1416 c 0
 519 1416 565 1394 622 1334 c 0
 710 1244 767 1084 767 947 c 0
 767 922 765 897 761 874 c 0
 755 838 710 745 662 669 c 0
 607 582 584 533 584 504 c 0
 584 499 585 496 586 492 c 0
 592 471 642 431 703 398 c 0
 762 366 831 323 857 302 c 0
 880 284 897 271 911 271 c 0
 950 271 957 380 973 784 c 0
 994 1284 1005 1374 1059 1417 c 0xd580
359 1164 m 0
 361 1173 362 1181 362 1188 c 0
 362 1213 349 1226 323 1226 c 0
 314 1226 304 1225 293 1222 c 0
 257 1213 237 1169 237 1130 c 0xdb80
 237 1097 251 1069 281 1069 c 0
 318 1069 344 1101 359 1164 c 0
EndSplineSet
EndChar

StartChar: bn_da
Encoding: 37 2470 37
GlifName: bn_da
Width: 1214
VWidth: 0
GlyphClass: 2
Flags: W
HStem: 838 214<777.127 932.5> 1240 200<47.8965 146.698 344 1125.41>
VStem: -17 4<1327.56 1359.53> 165 175<725.665 1216.53> 762 165<196.264 601.109> 855 229<761.263 922.5>
AnchorPoint: "abvm" 660 1232 basechar 0
AnchorPoint: "blwm" 1070 -139 basechar 0
LayerCount: 2
Fore
SplineSet
1142 1464 m 0xf4
 1161 1473 1172 1479 1182 1479 c 0
 1193 1479 1204 1472 1225 1458 c 0
 1243 1445 1251 1433 1251 1407 c 0
 1251 1396 1250 1382 1247 1365 c 0
 1229 1241 1230 1242 761 1240 c 2
 344 1238 l 1
 340 1100 l 1
 340 1072 l 2
 340 997 346 900 356 842 c 2
 377 722 l 1
 519 847 l 2
 598 916 690 983 723 996 c 0
 755 1008 788 1026 794 1035 c 0
 801 1046 858 1052 913 1052 c 0
 952 1052 990 1049 1009 1042 c 0
 1025 1036 1050 1011 1066 983 c 0
 1078 961 1084 936 1084 909 c 0xf4
 1084 863 1067 809 1031 747 c 0
 980 659 927 467 927 389 c 0
 927 378 929 369 931 363 c 0
 940 342 946 303 946 275 c 0
 946 231 1028 72 1082 13 c 0
 1094 0 1110 -31 1117 -54 c 0
 1120 -63 1121 -71 1121 -78 c 0
 1121 -110 1094 -127 1031 -141 c 0
 1025 -142 1018 -143 1012 -143 c 0
 965 -143 916 -102 822 13 c 0
 782 62 762 171 762 295 c 0xf8
 762 426 784 573 828 681 c 0
 845 725 855 773 855 804 c 0
 855 825 851 838 842 838 c 0
 829 838 724 753 472 541 c 0
 434 509 392 464 379 440 c 0
 360 406 308 380 272 380 c 0
 260 380 249 382 242 389 c 0
 232 398 220 452 216 510 c 0
 212 568 200 674 191 747 c 0
 182 820 169 951 165 1040 c 0
 161 1129 153 1208 147 1217 c 0
 141 1226 107 1233 73 1233 c 0
 8 1233 4 1238 -13 1327 c 0
 -15 1339 -17 1350 -17 1360 c 0
 -17 1427 66 1431 587 1440 c 0
 876 1445 1126 1456 1142 1464 c 0xf4
EndSplineSet
EndChar

StartChar: bn_dha
Encoding: 38 2471 38
GlifName: bn_dha
Width: 1161
VWidth: 0
GlyphClass: 2
Flags: W
HStem: 948 183<343.383 576.751> 1000 131<447.857 640.903> 1216 229<953.456 1137.18>
VStem: 18 290<1209.87 1438.29> 87 281<509.722 621.941> 643 295<866.172 994.906> 768 137<252.31 741.227>
AnchorPoint: "abvm" 972 1232 basechar 0
AnchorPoint: "blwm" 1058 -79 basechar 0
LayerCount: 2
Fore
SplineSet
391 1680 m 0xb4
 414 1690 443 1695 474 1695 c 0
 530 1695 592 1679 633 1649 c 0
 658 1631 688 1616 698 1616 c 0
 732 1616 850 1526 873 1482 c 0
 890 1450 898 1441 955 1441 c 0
 972 1441 994 1442 1021 1443 c 0
 1049 1444 1072 1445 1089 1445 c 0
 1147 1445 1151 1436 1164 1397 c 0
 1169 1381 1172 1368 1172 1354 c 0
 1172 1334 1166 1314 1154 1289 c 0
 1130 1241 1113 1229 1042 1216 c 0
 961 1201 958 1198 937 1118 c 0
 929 1086 925 1053 925 1021 c 0
 925 998 927 976 931 953 c 0
 935 930 938 894 938 852 c 0xb4
 938 808 935 758 930 709 c 0
 914 560 905 457 905 382 c 0xa2
 905 256 930 206 989 137 c 0
 1054 61 1083 15 1083 -18 c 0
 1083 -31 1078 -42 1070 -52 c 0
 1056 -69 1040 -77 1023 -77 c 0
 1001 -77 977 -64 949 -38 c 0
 924 -15 817 57 709 123 c 0
 601 189 493 257 467 276 c 0
 441 295 415 310 409 310 c 0
 396 310 283 392 223 446 c 0
 198 468 166 491 150 496 c 0
 134 501 112 529 101 555 c 0
 93 575 87 592 87 607 c 0
 87 654 140 685 317 771 c 0
 359 792 421 824 453 842 c 0
 468 850 502 867 532 881 c 0
 590 907 643 960 643 987 c 0
 643 990 642 993 641 995 c 0
 639 998 633 1000 624 1000 c 0x6c
 603 1000 565 991 515 975 c 0
 457 956 424 948 396 948 c 0
 377 948 362 952 342 959 c 0
 310 971 268 981 250 981 c 0
 184 982 82 1093 82 1164 c 0
 82 1182 68 1208 53 1219 c 0
 33 1233 23 1272 19 1341 c 0
 18 1354 18 1365 18 1375 c 0
 18 1445 34 1467 99 1467 c 0
 116 1467 137 1466 162 1463 c 0
 277 1451 308 1427 308 1330 c 0
 308 1322 307 1313 307 1304 c 0
 306 1288 306 1275 306 1263 c 0
 306 1211 315 1197 352 1169 c 0
 387 1142 437 1131 489 1131 c 0
 594 1131 705 1178 714 1249 c 1
 714 1256 l 2
 714 1281 701 1324 683 1355 c 0
 648 1415 644 1417 531 1419 c 0
 407 1422 377 1436 327 1517 c 0
 315 1537 309 1557 309 1576 c 0
 309 1618 337 1657 391 1680 c 0xb4
767 601 m 0
 763 700 759 742 724 742 c 0
 700 742 660 722 594 688 c 0
 532 656 456 627 427 624 c 0
 383 620 372 610 368 571 c 1
 368 566 l 2
 368 512 455 422 582 347 c 0
 623 323 664 293 674 282 c 0
 683 271 705 257 721 251 c 0
 725 250 728 249 731 249 c 0
 748 249 754 272 762 350 c 0
 766 391 768 458 768 521 c 0x2a
 768 549 768 577 767 601 c 0
EndSplineSet
EndChar

StartChar: bn_na
Encoding: 39 2472 39
GlifName: bn_na
Width: 1031
VWidth: 0
GlyphClass: 2
Flags: W
HStem: 947 79<520.834 636.794> 1225 204<-9.94516 318.377 332.198 385.897 398.887 777.315> 1243 210<34.0289 768.133>
VStem: 48 403<643.497 846.529> 781 208<36.5135 659.772 662.211 770.173> 781 134<1024.88 1213.48>
AnchorPoint: "abvm" 600 1250 basechar 0
AnchorPoint: "blwm" 922 -31 basechar 0
LayerCount: 2
Fore
SplineSet
1 1429 m 0xd4
 23 1444 163 1453 326 1453 c 0xb4
 458 1453 605 1447 716 1436 c 0
 753 1432 786 1431 816 1431 c 0
 861 1431 898 1435 930 1444 c 0
 960 1452 980 1457 994 1457 c 0
 1014 1457 1024 1449 1044 1429 c 0
 1068 1405 1080 1385 1080 1357 c 0
 1080 1336 1073 1310 1060 1274 c 0
 1042 1225 1031 1215 983 1215 c 0
 932 1215 925 1209 917 1149 c 0
 915 1137 915 1120 915 1101 c 0xd4
 915 1061 918 1011 924 968 c 0
 933 904 948 736 958 589 c 0
 968 442 980 294 986 257 c 0
 988 246 989 235 989 222 c 0
 989 184 981 139 967 94 c 0
 946 28 927 -2 898 -2 c 0
 879 -2 857 11 827 34 c 0
 783 68 781 77 781 234 c 0
 781 324 790 464 801 544 c 0
 808 597 812 635 812 661 c 0
 812 687 808 702 801 709 c 0
 790 720 781 744 781 765 c 0xd8
 781 806 608 947 559 947 c 2
 555 947 l 2
 542 944 520 914 508 880 c 0
 495 846 469 777 451 728 c 0
 433 679 404 616 387 590 c 0
 367 559 357 548 325 548 c 0
 310 548 291 551 264 554 c 0
 125 571 48 665 48 767 c 0
 48 842 89 921 178 977 c 2
 261 1030 l 1
 521 1026 l 1
 781 1023 l 1
 781 1118 l 2
 781 1171 774 1218 764 1224 c 0
 745 1236 559 1243 391 1243 c 0xb4
 282 1243 181 1240 139 1233 c 0
 109 1228 85 1225 65 1225 c 0
 3 1225 -14 1253 -25 1334 c 0
 -27 1349 -28 1361 -28 1371 c 0
 -28 1400 -20 1414 1 1429 c 0xd4
EndSplineSet
EndChar

StartChar: bn_pa
Encoding: 40 2474 40
GlifName: bn_pa
Width: 1208
VWidth: 0
GlyphClass: 2
Flags: W
HStem: 471 389<211.5 374.5> 1089 230<830.003 928.109> 1223 207<1078.93 1233.35> 1238 192<1078.93 1233.35> 1258 145<354.418 747.096>
VStem: 187 112<853 1059> 930 142<1419.02 1607.04> 976 131<543.583 1048.83>
AnchorPoint: "abvm" 642 1226 basechar 0
AnchorPoint: "blwm" 1098 -47 basechar 0
LayerCount: 2
Fore
SplineSet
943 1608 m 0xc6
 950 1615 964 1619 980 1619 c 0
 998 1619 1017 1614 1031 1605 c 0
 1051 1592 1065 1531 1072 1418 c 1
 1096 1424 1127 1430 1155 1430 c 2
 1166 1430 l 2xa6
 1203 1428 1234 1435 1234 1388 c 0
 1234 1350 1249 1316 1258 1277 c 0
 1259 1273 1259 1270 1259 1267 c 0
 1259 1243 1232 1238 1214 1238 c 0x96
 1188 1238 1162 1223 1140 1223 c 2
 1136 1223 l 2xa6
 1113 1225 1094 1229 1078 1235 c 1
 1078 1220 l 2
 1079 1102 1087 998 1094 991 c 0
 1101 984 1107 922 1107 853 c 0
 1107 785 1123 664 1142 588 c 0
 1161 511 1182 361 1187 253 c 0
 1190 193 1192 152 1192 121 c 0
 1192 54 1182 41 1152 7 c 0
 1124 -24 1099 -38 1070 -38 c 0
 1066 -38 1062 -37 1058 -37 c 0
 1015 -32 1008 -21 994 57 c 0
 985 106 977 339 976 577 c 0
 975 815 968 1028 960 1050 c 0
 952 1073 932 1089 913 1089 c 0xc5
 871 1089 770 1003 681 890 c 0
 644 843 571 770 518 727 c 0
 465 684 393 610 357 561 c 0
 305 490 281 471 242 471 c 0
 181 471 157 496 157 572 c 0
 157 587 158 605 160 625 c 0
 165 681 174 758 181 795 c 0
 185 816 187 836 187 853 c 0
 187 913 162 955 102 1010 c 0
 48 1060 31 1091 16 1172 c 0
 10 1205 6 1232 6 1254 c 0
 6 1328 47 1350 169 1378 c 0
 244 1395 343 1403 442 1403 c 0x8d
 616 1403 789 1379 830 1338 c 0
 841 1327 867 1319 890 1319 c 0
 929 1319 930 1326 930 1458 c 0
 930 1534 936 1601 943 1608 c 0xc6
611 1258 m 0x8c
 537 1258 449 1251 390 1239 c 0
 344 1229 299 1134 299 1059 c 0
 299 1050 300 1041 301 1033 c 0
 326 888 335 860 360 860 c 0
 389 860 748 1212 748 1240 c 0
 748 1253 672 1258 611 1258 c 0x8c
EndSplineSet
EndChar

StartChar: bn_pha
Encoding: 41 2475 41
GlifName: bn_pha
Width: 1557
VWidth: 0
GlyphClass: 2
Flags: W
HStem: 441 224<1160.2 1334.5> 1256 158<1105.72 1468.59>
VStem: -1 339<1152.47 1363.5> 156 330<250.5 393.086> 355 159<513.775 876.002> 762 213<511.56 725.232> 1010 127<671.589 725.314> 1281 250<600 770.57>
AnchorPoint: "abvm" 816 1226 basechar 0
AnchorPoint: "blwm" 1370 -172 basechar 0
LayerCount: 2
Fore
SplineSet
125 1433 m 0xef
 148 1434 210 1435 296 1435 c 0
 685 1435 1568 1422 1588 1414 c 0
 1590 1414 1590 1404 1590 1389 c 0
 1590 1374 1590 1355 1588 1333 c 0
 1583 1263 1576 1252 1528 1238 c 0
 1514 1234 1494 1232 1470 1232 c 0
 1440 1232 1404 1235 1369 1242 c 0
 1328 1251 1289 1256 1267 1256 c 0
 1258 1256 1252 1255 1249 1253 c 0
 1241 1247 1079 1242 890 1242 c 0
 570 1241 338 1218 338 1186 c 0
 338 1179 366 1118 400 1052 c 0
 480 897 514 792 514 658 c 0xef
 514 592 506 520 491 431 c 0
 488 414 486 401 486 390 c 0
 486 359 504 349 572 313 c 0
 623 286 711 252 767 236 c 0
 823 220 880 198 895 186 c 0
 913 171 927 171 941 185 c 0
 945 189 947 195 947 202 c 0
 947 220 935 247 908 291 c 0
 879 338 849 377 842 377 c 0
 834 377 828 387 828 400 c 0
 828 413 817 447 803 475 c 0
 776 527 762 601 762 671 c 0
 762 719 769 765 783 800 c 0
 839 941 924 1050 995 1072 c 0
 1035 1084 1061 1091 1090 1091 c 0
 1120 1091 1153 1084 1212 1071 c 0
 1365 1037 1492 870 1526 663 c 0
 1529 644 1531 629 1531 617 c 0
 1531 583 1517 566 1473 521 c 0
 1419 467 1365 441 1304 441 c 0
 1281 441 1256 445 1230 452 c 0
 1125 483 1010 610 1010 697 c 0
 1010 720 1002 732 992 725 c 0
 981 718 975 702 975 680 c 0
 975 558 1132 245 1277 106 c 0
 1368 19 1404 -28 1404 -73 c 0
 1404 -90 1399 -106 1390 -124 c 0
 1371 -161 1350 -178 1316 -178 c 0
 1287 -178 1249 -165 1197 -140 c 0
 1026 -56 956 -27 914 -27 c 0
 906 -27 900 -28 894 -30 c 0
 891 -31 886 -31 882 -31 c 0
 848 -31 778 -8 678 36 c 0
 582 79 488 113 470 114 c 0
 452 115 422 128 404 142 c 0
 386 156 336 174 294 181 c 0
 185 199 156 220 156 281 c 0xd7
 156 335 209 421 271 468 c 0
 325 510 355 601 355 695 c 0
 355 756 342 819 315 868 c 0
 293 908 266 941 256 941 c 0
 246 941 206 976 169 1017 c 0
 131 1058 81 1101 58 1110 c 0
 23 1123 14 1144 4 1240 c 0
 1 1272 -1 1298 -1 1320 c 0
 -1 1407 29 1427 125 1433 c 0xef
1279 767 m 0
 1274 833 1269 838 1205 843 c 2
 1137 849 l 1
 1137 776 l 2
 1137 703 1159 665 1199 665 c 0
 1211 665 1224 668 1239 675 c 0
 1271 690 1281 701 1281 737 c 0
 1281 745 1280 756 1279 767 c 0
EndSplineSet
EndChar

StartChar: bn_ba
Encoding: 42 2476 42
GlifName: bn_ba
Width: 1315
VWidth: 0
GlyphClass: 2
Flags: W
HStem: 51 160<819.651 924.335> 1187 260<-34 617.641> 1223 229<17.7522 736.155> 1248 207<191.728 841.799 1081 1184>
VStem: 863 218<1072.43 1225.17> 925 157<316.204 786.219>
AnchorPoint: "abvm" 642 1232 basechar 0
AnchorPoint: "blwm" 1250 -152 basechar 0
LayerCount: 2
Fore
SplineSet
467 1452 m 2xa8
 663 1454 821 1455 945 1455 c 0
 1220 1455 1334 1450 1351 1439 c 0
 1362 1432 1372 1401 1372 1371 c 0
 1372 1301 1323 1273 1184 1259 c 2
 1081 1249 l 1x98
 1082 814 l 2x94
 1083 574 1090 362 1098 342 c 0
 1106 322 1117 260 1121 203 c 0
 1128 112 1137 91 1203 23 c 0
 1252 -28 1278 -71 1278 -105 c 0
 1278 -133 1269 -156 1259 -156 c 0
 1227 -156 1100 -87 1074 -55 c 0
 1061 -39 1029 -24 1007 -24 c 0
 984 -24 944 -8 918 13 c 0
 892 34 860 51 849 51 c 0
 822 51 688 137 608 206 c 0
 574 235 537 259 526 259 c 0
 515 259 470 289 427 325 c 0
 384 361 340 391 331 391 c 0
 314 391 166 485 119 525 c 0
 113 531 109 536 109 543 c 0
 109 556 123 574 154 607 c 0
 186 640 250 686 295 709 c 0
 340 732 380 757 383 764 c 0
 392 783 652 956 673 956 c 0
 682 956 730 993 781 1038 c 0
 843 1094 863 1117 863 1145 c 0
 863 1152 862 1158 860 1166 c 0
 848 1218 800 1248 737 1248 c 0x98
 719 1248 699 1245 679 1240 c 0
 642 1230 581 1223 536 1223 c 2
 527 1223 l 1
 501 1223 l 2xa8
 389 1223 183 1208 74 1192 c 0
 52 1189 33 1187 17 1187 c 0
 -11 1187 -30 1192 -42 1202 c 0
 -60 1217 -70 1255 -70 1299 c 0
 -70 1332 -65 1367 -53 1398 c 2
 -34 1447 l 1xc8
 467 1452 l 2xa8
910 745 m 0
 903 784 891 804 868 804 c 0
 839 804 794 772 722 705 c 0
 662 650 578 590 535 571 c 0
 480 547 452 518 452 491 c 0
 452 466 475 444 522 428 c 0
 559 416 630 376 684 339 c 0
 792 266 892 211 917 211 c 0
 921 211 923 213 923 215 c 0
 924 224 925 251 925 288 c 0x84
 925 426 917 705 910 745 c 0
EndSplineSet
EndChar

StartChar: bn_bha
Encoding: 43 2477 43
GlifName: bn_bha
Width: 1712
VWidth: 0
GlyphClass: 2
Flags: W
HStem: -70 291<931.642 1225.48> 615 218<754.656 1044.21> 1218 229<-9 786.132 1016.01 1423.67>
VStem: 1478 192<444.894 640.541>
AnchorPoint: "abvm" 858 1220 basechar 0
AnchorPoint: "blwm" 1094 -96 basechar 0
LayerCount: 2
Fore
SplineSet
1228 991 m 0
 1293 1025 1354 1043 1407 1044 c 2
 1420 1044 l 2
 1484 1044 1496 1035 1552 961 c 0
 1623 868 1670 710 1670 587 c 0
 1670 560 1668 535 1663 512 c 0
 1615 291 1591 234 1512 154 c 0
 1422 62 1316 -5 1231 -24 c 0
 1199 -31 1170 -44 1164 -53 c 0
 1157 -65 1124 -70 1086 -70 c 0
 1034 -70 973 -60 959 -42 c 0
 947 -27 908 -15 874 -15 c 0
 833 -15 793 0 758 30 c 0
 728 56 695 75 683 75 c 0
 658 75 346 377 256 489 c 0
 220 533 169 615 142 669 c 0
 115 723 77 787 59 811 c 0
 36 841 26 866 26 885 c 0
 26 908 41 920 66 920 c 0
 90 920 124 908 163 882 c 0
 217 845 232 822 304 671 c 0
 358 557 640 307 785 243 c 0
 819 228 887 221 963 221 c 0
 1027 221 1097 226 1158 237 c 0
 1244 253 1267 267 1367 370 c 0
 1444 449 1478 498 1478 541 c 0
 1478 564 1469 585 1452 608 c 0
 1438 626 1426 654 1426 667 c 0
 1425 710 1350 777 1303 777 c 0
 1279 777 1223 748 1182 714 c 0
 1139 678 1086 651 1060 651 c 0
 1035 651 1009 643 1003 633 c 0
 996 621 964 615 935 615 c 0
 910 615 887 619 881 629 c 0
 876 638 821 651 760 656 c 0
 658 665 643 672 572 746 c 0
 492 831 430 938 430 988 c 0
 430 993 431 998 432 1002 c 0
 438 1018 446 1027 460 1027 c 0
 478 1027 507 1013 555 984 c 0
 731 880 834 833 915 833 c 0
 965 833 1007 850 1052 883 c 0
 1094 913 1174 963 1228 991 c 0
1568 1430 m 1
 1744 1420 1783 1406 1783 1353 c 0
 1783 1275 1726 1206 1666 1206 c 0
 1662 1206 1658 1206 1654 1207 c 0
 1646 1208 1610 1209 1574 1209 c 0
 737 1213 576 1218 543 1234 c 0
 527 1242 501 1241 489 1233 c 0
 476 1225 359 1218 228 1218 c 2
 -9 1218 l 1
 -27 1271 l 2
 -34 1291 -38 1319 -38 1346 c 0
 -38 1360 -36 1373 -34 1385 c 2
 -22 1447 l 1
 647 1441 l 1
 1568 1430 l 1
EndSplineSet
EndChar

StartChar: bn_ma
Encoding: 44 2478 44
GlifName: bn_ma
Width: 1435
VWidth: 0
GlyphClass: 2
Flags: W
HStem: 208 357<285.527 520.439> 1236 222<1260.85 1449.32> 1257 173<577.394 1044.49>
VStem: 632 142<584.447 775.005> 1107 148<608.468 1197.21>
AnchorPoint: "abvm" 804 1214 basechar 0
AnchorPoint: "blwm" 1107 -161 basechar 0
LayerCount: 2
Fore
SplineSet
29 1469 m 0xd8
 32 1471 39 1472 48 1472 c 0
 71 1472 111 1466 151 1456 c 0
 220 1439 543 1430 838 1430 c 0xb8
 1094 1430 1327 1437 1355 1451 c 0
 1365 1456 1375 1458 1384 1458 c 0
 1434 1458 1477 1392 1477 1331 c 0
 1477 1305 1469 1279 1450 1261 c 0
 1436 1247 1387 1236 1342 1236 c 2
 1260 1236 l 1
 1255 1011 l 2
 1247 646 1240 389 1238 344 c 0
 1238 336 1237 327 1237 318 c 0
 1237 204 1271 35 1305 -16 c 0
 1334 -59 1347 -94 1347 -119 c 0
 1347 -151 1326 -169 1293 -169 c 0
 1250 -169 1184 -140 1114 -76 c 0
 1069 -35 997 16 954 38 c 0
 883 74 731 186 651 261 c 0
 636 275 621 282 604 282 c 0
 592 282 578 279 561 272 c 0
 531 260 499 242 492 230 c 0
 483 216 465 208 438 208 c 0
 400 208 344 223 272 252 c 0
 167 294 120 334 120 393 c 0
 120 418 128 447 144 480 c 0
 184 566 235 609 298 609 c 0
 320 609 344 603 369 593 c 0
 415 574 468 565 513 565 c 0
 554 565 588 573 605 589 c 0
 623 606 632 629 632 655 c 0
 632 703 602 765 545 835 c 0
 497 894 447 942 433 942 c 0
 419 942 359 978 298 1022 c 0
 237 1066 142 1123 87 1149 c 0
 18 1182 -19 1213 -28 1249 c 0
 -30 1257 -31 1268 -31 1279 c 0
 -31 1344 0 1450 29 1469 c 0xd8
1058 1202 m 0
 1005 1253 989 1257 796 1257 c 0xb8
 681 1257 584 1248 577 1236 c 0xd8
 570 1225 540 1216 512 1215 c 0
 444 1213 417 1203 417 1188 c 0
 417 1167 476 1135 551 1101 c 0
 607 1076 733 877 763 770 c 0
 770 744 774 723 774 703 c 0
 774 675 767 649 751 614 c 0
 731 567 719 533 719 501 c 0
 719 441 761 393 863 306 c 0
 947 235 995 202 1018 202 c 0
 1023 202 1026 204 1029 206 c 0
 1041 218 1059 344 1067 485 c 0
 1075 626 1089 834 1098 945 c 0
 1103 1013 1107 1059 1107 1091 c 0
 1107 1153 1094 1167 1058 1202 c 0
EndSplineSet
EndChar

StartChar: bn_ya
Encoding: 45 2479 45
GlifName: bn_ya
Width: 1280
VWidth: 0
GlyphClass: 2
Flags: W
HStem: 325 234<115.344 279.172> 1227 209<485.275 909.879>
VStem: 475 217<687.814 895.981> 924 175<541.262 1186.18>
AnchorPoint: "abvm" 708 1220 basechar 0
AnchorPoint: "blwm" 1242 -180 basechar 0
LayerCount: 2
Fore
SplineSet
-2 1390 m 0
 21 1420 370 1436 702 1436 c 0
 1006 1436 1295 1423 1305 1395 c 0
 1311 1378 1314 1360 1314 1343 c 0
 1314 1280 1275 1225 1214 1212 c 0
 1129 1193 1099 1171 1099 1056 c 0
 1099 1009 1104 947 1112 863 c 0
 1126 720 1137 495 1137 362 c 2
 1137 121 l 1
 1230 55 l 2
 1290 13 1320 -28 1320 -67 c 0
 1320 -93 1307 -119 1280 -144 c 0
 1264 -159 1250 -167 1234 -167 c 0
 1215 -167 1192 -156 1155 -135 c 0
 1108 -108 1013 -66 939 -39 c 0
 866 -12 680 81 524 168 c 0
 368 255 218 325 189 325 c 0
 127 325 88 369 88 427 c 0
 88 446 92 466 101 486 c 0
 118 527 145 559 164 559 c 0
 182 559 259 591 336 631 c 0
 447 688 475 717 475 773 c 0
 475 887 398 959 184 1049 c 0
 -12 1131 -14 1134 -22 1242 c 0
 -23 1252 -23 1263 -23 1274 c 0
 -23 1325 -15 1373 -2 1390 c 0
910 1185 m 0
 900 1215 869 1227 807 1227 c 2
 785 1227 l 1
 573 1218 475 1199 475 1167 c 0
 475 1149 522 1080 581 1010 c 0
 655 922 692 838 692 758 c 0
 692 694 668 633 621 577 c 0
 584 533 555 480 555 457 c 0
 555 422 809 267 867 267 c 0
 896 267 924 693 924 968 c 0
 924 1073 920 1157 910 1185 c 0
EndSplineSet
EndChar

StartChar: bn_ra
Encoding: 46 2480 46
GlifName: bn_ra
Width: 1325
VWidth: 0
GlyphClass: 2
Flags: W
HStem: 2 187<470.424 615.576> 77 160<819.651 924.335> 1213 260<-34 617.641> 1249 229<17.7522 736.155> 1274 207<191.728 841.799 1081 1184>
VStem: 457 172<13.3281 177.702> 863 218<1098.43 1251.17> 925 157<342.204 812.219>
AnchorPoint: "abvm" 684 1214 basechar 0
AnchorPoint: "blwm" 1200 -130 basechar 0
LayerCount: 2
Fore
SplineSet
457 96 m 0x84
 457 147 495 189 543 189 c 0
 591 189 629 147 629 96 c 0
 629 44 591 2 543 2 c 0
 495 2 457 44 457 96 c 0x84
467 1478 m 2x16
 663 1480 821 1481 945 1481 c 0
 1220 1481 1334 1476 1351 1465 c 0
 1362 1458 1372 1427 1372 1397 c 0
 1372 1327 1323 1299 1184 1285 c 2
 1081 1275 l 1x0e
 1082 840 l 2
 1083 600 1090 388 1098 368 c 0
 1106 348 1117 286 1121 229 c 0
 1128 138 1137 117 1203 49 c 0
 1252 -2 1278 -45 1278 -79 c 0
 1278 -107 1269 -130 1259 -130 c 0
 1227 -130 1100 -61 1074 -29 c 0
 1061 -13 1029 2 1007 2 c 0x8d
 984 2 944 18 918 39 c 0
 892 60 860 77 849 77 c 0
 822 77 688 163 608 232 c 0
 574 261 537 285 526 285 c 0
 515 285 470 315 427 351 c 0
 384 387 340 417 331 417 c 0
 314 417 166 511 119 551 c 0
 113 557 109 562 109 569 c 0
 109 582 123 600 154 633 c 0
 186 666 250 712 295 735 c 0
 340 758 380 783 383 790 c 0
 392 809 652 982 673 982 c 0
 682 982 730 1019 781 1064 c 0
 843 1120 863 1143 863 1171 c 0
 863 1178 862 1184 860 1192 c 0
 848 1244 800 1274 737 1274 c 0x4e
 719 1274 699 1271 679 1266 c 0
 642 1256 581 1249 536 1249 c 2
 527 1249 l 1
 501 1249 l 2x16
 389 1249 183 1234 74 1218 c 0
 52 1215 33 1213 17 1213 c 0
 -11 1213 -30 1218 -42 1228 c 0
 -60 1243 -70 1281 -70 1325 c 0
 -70 1358 -65 1393 -53 1424 c 2
 -34 1473 l 1x26
 467 1478 l 2x16
910 771 m 0
 903 810 891 830 868 830 c 0
 839 830 794 798 722 731 c 0
 662 676 578 616 535 597 c 0
 480 573 452 544 452 517 c 0
 452 492 475 470 522 454 c 0
 559 442 630 402 684 365 c 0
 792 292 892 237 917 237 c 0
 921 237 923 239 923 241 c 0
 924 250 925 277 925 314 c 0x45
 925 452 917 731 910 771 c 0
EndSplineSet
Substitution2: "ss01StyleSet1inBengali2lookup11 subtable" bn_asamia_ra
EndChar

StartChar: bn_la
Encoding: 47 2482 47
GlifName: bn_la
Width: 1297
VWidth: 0
GlyphClass: 2
Flags: W
HStem: 413 203<279.933 440.094> 844 198<368.085 709.425> 1224 227<-9.49121 875.643>
VStem: 50 218<630.863 765.082> 912 222<18.9371 685.598> 913 142<923.281 1165.39>
AnchorPoint: "abvm" 690 1214 basechar 0
AnchorPoint: "blwm" 1030 -52 basechar 0
LayerCount: 2
Fore
SplineSet
175 1448 m 0xf4
 239 1450 309 1451 382 1451 c 0
 779 1451 1270 1424 1307 1394 c 0
 1321 1383 1333 1345 1333 1312 c 0
 1333 1236 1302 1210 1186 1191 c 0
 1096 1176 1055 1148 1055 1100 c 0xf4
 1055 1089 1057 1077 1061 1064 c 0
 1083 993 1134 375 1134 176 c 2
 1134 160 l 2
 1131 0 1118 -26 1033 -26 c 0
 949 -26 912 68 912 288 c 0xf8
 912 307 912 328 913 349 c 0xf4
 914 373 914 396 914 418 c 0
 914 650 873 736 739 806 c 0
 692 831 653 844 601 844 c 0
 549 844 486 831 388 806 c 0
 317 787 268 732 268 684 c 0
 268 667 274 651 287 638 c 0
 302 623 323 616 345 616 c 0
 389 616 439 643 459 687 c 0
 478 730 523 759 559 759 c 0
 569 759 579 757 587 752 c 0
 602 743 609 721 609 692 c 0
 609 653 596 603 572 562 c 0
 531 493 399 413 324 413 c 0
 238 413 111 496 73 577 c 0
 58 609 50 646 50 683 c 0
 50 790 111 907 212 975 c 0
 278 1020 378 1042 479 1042 c 0
 590 1042 701 1015 767 963 c 0
 796 941 840 918 863 914 c 0
 868 913 873 912 877 912 c 0
 903 912 907 936 912 1031 c 0xf8
 913 1047 913 1062 913 1075 c 0
 913 1201 867 1224 641 1224 c 2
 583 1224 l 2
 456 1222 359 1221 282 1221 c 0
 41 1221 13 1233 -17 1279 c 0
 -33 1304 -43 1335 -43 1363 c 0
 -43 1371 -42 1380 -40 1387 c 0
 -27 1438 -18 1442 175 1448 c 0xf4
EndSplineSet
Substitution2: "ss01StyleSet1inBengali2lookup11 subtable" bn_la.alt
EndChar

StartChar: bn_sha
Encoding: 48 2486 48
GlifName: bn_sha
Width: 1386
VWidth: 0
GlyphClass: 2
Flags: W
HStem: 1067 296<794.019 997.942> 1188 278<61.5191 315.938> 1208 246<1268.75 1465.72>
VStem: 566 247<702.946 886.061> 1109 132<1466 1589.48> 1123 364<1221.32 1425.02> 1126 261<50.9882 497.977>
AnchorPoint: "abvm" 846 1220 basechar 0
AnchorPoint: "blwm" 1278 -156 basechar 0
LayerCount: 2
Fore
SplineSet
1132 1590 m 0x98
 1149 1602 1175 1613 1185 1613 c 0
 1207 1613 1225 1566 1241 1466 c 1x58
 1260 1466 1283 1454 1306 1454 c 2
 1386 1454 l 2
 1402 1454 1411 1459 1426 1454 c 0
 1447 1447 1464 1445 1474 1426 c 0
 1485 1405 1487 1388 1487 1369 c 0
 1487 1359 1486 1350 1486 1338 c 2
 1486 1331 l 2
 1486 1312 1487 1295 1487 1279 c 0
 1487 1254 1484 1232 1466 1208 c 0
 1460 1200 1452 1197 1444 1197 c 0
 1427 1197 1407 1208 1386 1208 c 0
 1369 1208 1357 1206 1344 1206 c 0
 1337 1206 1330 1207 1322 1208 c 0x34
 1302 1211 1284 1210 1268 1214 c 1
 1271 1172 1275 1127 1278 1078 c 0
 1291 861 1323 587 1351 464 c 0
 1375 357 1387 259 1387 174 c 0
 1387 69 1369 -17 1333 -76 c 0
 1310 -114 1288 -133 1262 -133 c 0
 1237 -133 1209 -116 1170 -84 c 2
 1107 -31 l 1
 1122 303 l 2
 1125 361 1126 418 1126 472 c 0
 1126 751 1093 970 1039 1028 c 0
 1019 1049 909 1067 842 1067 c 0x92
 811 1067 789 1063 789 1054 c 0
 789 1048 804 1012 823 973 c 0
 838 943 845 916 845 887 c 0
 845 867 842 845 835 821 c 0
 823 777 813 736 813 733 c 0
 813 730 782 710 743 688 c 0
 711 670 685 661 663 661 c 0
 616 661 588 703 566 796 c 0
 552 855 532 903 525 903 c 0
 524 903 524 903 524 902 c 0
 487 847 405 808 308 792 c 0
 283 788 268 785 256 785 c 0
 233 785 224 796 191 832 c 0
 170 856 160 884 160 911 c 0
 160 962 194 1012 252 1038 c 0
 335 1075 375 1115 375 1145 c 0
 375 1171 346 1188 290 1188 c 0
 265 1188 235 1185 201 1177 c 0
 158 1167 115 1162 87 1162 c 0
 69 1162 57 1164 53 1168 c 0
 33 1188 20 1272 20 1341 c 0
 20 1380 25 1415 34 1430 c 0
 49 1455 80 1466 120 1466 c 0x52
 214 1466 357 1403 454 1305 c 2
 522 1237 l 1
 582 1299 l 2
 632 1350 671 1362 800 1363 c 2
 820 1363 l 2
 941 1363 968 1353 1026 1293 c 0
 1065 1253 1103 1221 1114 1221 c 0
 1120 1221 1123 1244 1123 1281 c 0x94
 1123 1311 1121 1351 1117 1395 c 0
 1112 1445 1109 1484 1109 1512 c 0
 1109 1558 1116 1579 1132 1590 c 0x98
EndSplineSet
EndChar

StartChar: bn_ssa
Encoding: 49 2487 49
GlifName: bn_S_ha
Width: 1188
VWidth: 0
GlyphClass: 2
Flags: W
HStem: 680 122<704.875 820.312> 1227 188<1090.26 1268> 1236 230<426.008 870.873>
VStem: 140 421<382.806 518.29> 866 200<350.497 618 802.001 1197.8>
AnchorPoint: "abvm" 666 1220 basechar 0
AnchorPoint: "blwm" 1170 -144 basechar 0
LayerCount: 2
Fore
SplineSet
554 1455 m 0xd8
 576 1462 606 1466 631 1466 c 0xb8
 646 1466 660 1465 671 1462 c 0
 700 1454 845 1440 995 1431 c 2
 1268 1415 l 1
 1276 1330 l 2
 1277 1316 1278 1304 1278 1294 c 0
 1278 1250 1263 1239 1211 1227 c 0
 1172 1218 1122 1205 1104 1200 c 0
 1079 1193 1066 1078 1066 891 c 0
 1066 754 1073 578 1087 378 c 0
 1102 175 1114 133 1167 82 c 0
 1207 44 1228 -1 1228 -40 c 0
 1228 -69 1216 -96 1193 -116 c 0
 1184 -124 1174 -128 1161 -128 c 0
 1133 -128 1092 -109 1018 -65 c 0
 943 -21 861 23 840 32 c 0
 777 57 552 176 412 259 c 0
 339 302 250 350 209 369 c 0
 164 390 140 420 140 451 c 0
 140 478 159 506 196 525 c 0
 300 579 476 773 476 832 c 0
 476 906 248 1088 87 1143 c 0
 -1 1173 -39 1206 -39 1263 c 0
 -39 1289 -31 1319 -17 1357 c 0
 9 1428 13 1428 249 1431 c 0
 381 1432 518 1443 554 1455 c 0xd8
871 1198 m 0
 846 1214 580 1236 471 1236 c 0
 443 1236 425 1235 425 1231 c 0
 425 1222 464 1162 514 1095 c 0
 564 1028 610 955 618 928 c 0
 633 880 767 802 821 802 c 0
 830 802 836 804 840 808 c 0
 859 830 879 1026 879 1132 c 0
 879 1169 877 1194 871 1198 c 0
780 650 m 2
 729 669 695 680 671 680 c 0
 636 680 621 658 603 610 c 0
 577 537 561 490 561 454 c 0
 561 397 599 366 694 302 c 0
 774 247 846 202 853 202 c 0
 860 202 866 295 866 410 c 2
 866 618 l 1
 780 650 l 2
EndSplineSet
EndChar

StartChar: bn_sa
Encoding: 50 2488 50
GlifName: bn_sa
Width: 1422
VWidth: 0
GlyphClass: 2
Flags: W
HStem: 666 160<39.3969 170.966> 799 189<804.875 1047.43> 1242 200<146.214 400.063 623 1156.58> 1249 174<-24.1798 381.166 1356.93 1456.63>
VStem: 479 149<890.189 1152.48> 1122 249<28.0029 564.402> 1194 133<916.988 1224.54>
AnchorPoint: "abvm" 882 1232 basechar 0
AnchorPoint: "blwm" 1234 -100 basechar 0
LayerCount: 2
Fore
SplineSet
-15 1423 m 0x1c
 -11 1435 332 1442 683 1442 c 0x2c
 1034 1442 1394 1435 1433 1423 c 0
 1449 1418 1462 1375 1462 1325 c 0
 1462 1253 1453 1237 1414 1237 c 0
 1353 1237 1327 1192 1327 1022 c 0x1a
 1327 940 1333 829 1344 679 c 0
 1361 441 1371 302 1371 214 c 0
 1371 98 1354 68 1315 9 c 0
 1272 -56 1243 -88 1218 -88 c 0
 1197 -88 1180 -66 1159 -24 c 0
 1134 27 1122 69 1122 166 c 0
 1122 229 1127 316 1136 443 c 0
 1139 492 1141 532 1141 566 c 0
 1141 699 1110 730 1000 777 c 0
 966 792 944 799 922 799 c 0x5c
 894 799 867 787 814 760 c 0
 744 724 701 682 678 624 c 0
 644 539 598 507 491 507 c 0
 466 507 438 509 407 512 c 0
 306 522 258 541 202 595 c 0
 161 634 110 666 87 666 c 0
 54 666 23 728 23 776 c 0
 23 790 25 803 31 813 c 0
 37 822 53 826 75 826 c 0
 114 826 169 813 200 790 c 0
 213 780 259 759 302 742 c 0
 331 730 351 723 366 723 c 0
 388 723 403 737 429 770 c 0
 462 811 479 884 479 959 c 0
 479 1035 462 1113 428 1162 c 0
 382 1228 364 1235 205 1242 c 2xac
 -38 1249 l 1
 -31 1324 l 2
 -27 1366 -20 1409 -15 1423 c 0x1c
1190 1081 m 0
 1182 1158 1168 1226 1157 1234 c 0
 1149 1240 1080 1244 988 1244 c 0
 954 1244 918 1243 880 1242 c 2
 623 1234 l 1
 628 1062 l 2
 631 968 636 890 640 890 c 0
 644 890 691 913 741 940 c 0
 801 972 870 988 932 988 c 0
 987 988 1037 975 1072 950 c 0
 1103 928 1127 916 1146 916 c 0
 1178 916 1194 948 1194 1014 c 0x6a
 1194 1033 1193 1056 1190 1081 c 0
EndSplineSet
EndChar

StartChar: bn_ha
Encoding: 51 2489 51
GlifName: bn_ha
Width: 942
VWidth: 0
GlyphClass: 2
Flags: W
HStem: -171 174<1000.2 1137.84> 1235 207<-31.6562 193.991 396.01 910.821>
VStem: 255 141<1058 1215> 628 192<590.757 830.507>
AnchorPoint: "blwm" 948 -208 basechar 0
AnchorPoint: "abvm" 330 1214 basechar 0
LayerCount: 2
Fore
SplineSet
-34 1415 m 0
 -28 1434 81 1442 341 1442 c 2
 432 1442 l 2
 682 1441 902 1438 920 1435 c 0
 942 1432 953 1411 953 1384 c 0
 953 1343 929 1287 888 1259 c 0
 851 1233 813 1223 731 1223 c 0
 697 1223 656 1225 604 1228 c 0
 533 1232 485 1235 453 1235 c 0
 409 1235 396 1230 396 1215 c 0
 396 1208 399 1199 403 1187 c 0
 415 1152 451 1127 506 1118 c 0
 679 1088 786 980 814 806 c 0
 818 781 820 757 820 734 c 0
 820 614 767 516 647 405 c 2
 523 291 l 1
 668 221 l 2
 747 183 845 146 883 137 c 0
 920 129 963 100 976 76 c 0
 989 50 1032 19 1074 3 c 0
 1131 -18 1148 -40 1148 -92 c 0
 1148 -145 1134 -171 1097 -171 c 0
 1068 -171 1024 -154 960 -122 c 0
 891 -87 791 -46 733 -29 c 0
 676 -12 623 14 613 29 c 0
 604 44 543 79 481 107 c 0
 191 237 139 272 86 376 c 0
 57 433 33 489 33 499 c 0
 33 512 52 518 78 518 c 0
 111 518 154 509 186 491 c 0
 237 463 290 449 340 449 c 0
 495 449 628 573 628 754 c 0
 628 806 615 831 596 831 c 0
 578 831 554 807 533 757 c 0
 503 687 438 649 371 649 c 0
 319 649 267 672 231 720 c 0
 199 763 186 796 186 845 c 0
 186 861 187 878 190 898 c 0
 197 955 216 1006 231 1011 c 0
 247 1017 255 1034 255 1058 c 0
 255 1088 243 1127 219 1163 c 0
 192 1203 150 1222 76 1228 c 0
 -18 1235 -30 1244 -37 1310 c 0
 -39 1327 -39 1344 -39 1360 c 0
 -39 1384 -38 1405 -34 1415 c 0
EndSplineSet
EndChar

StartChar: bn_nukta
Encoding: 52 2492 52
GlifName: bn_nukta
Width: 0
VWidth: 0
GlyphClass: 2
Flags: W
HStem: -375 234<-85.0741 85.0741>
VStem: -108 216<-351.575 -164.425>
AnchorPoint: "blwm" 896 6 basechar 0
LayerCount: 2
Fore
SplineSet
-108 -258 m 0
 -108 -194 -60 -141 0 -141 c 0
 60 -141 108 -194 108 -258 c 0
 108 -322 60 -375 0 -375 c 0
 -60 -375 -108 -322 -108 -258 c 0
EndSplineSet
EndChar

StartChar: bn_abagraha
Encoding: 53 2493 53
GlifName: bn_abagraha
Width: 942
VWidth: 0
GlyphClass: 2
Flags: W
HStem: -171 174<1000.2 1137.84>
VStem: 628 192<590.757 830.507>
LayerCount: 2
Fore
SplineSet
-34 1415 m 0
 -32 1432 10 1437 111 1437 c 1
 403 1187 l 1
 415 1152 451 1127 506 1118 c 0
 679 1088 786 980 814 806 c 0
 818 781 820 757 820 734 c 0
 820 614 767 516 647 405 c 2
 523 291 l 1
 668 221 l 2
 747 183 845 146 883 137 c 0
 920 129 963 100 976 76 c 0
 989 50 1032 19 1074 3 c 0
 1131 -18 1148 -40 1148 -92 c 0
 1148 -145 1134 -171 1097 -171 c 0
 1068 -171 1024 -154 960 -122 c 0
 891 -87 791 -46 733 -29 c 0
 676 -12 623 14 613 29 c 0
 604 44 543 79 481 107 c 0
 191 237 139 272 86 376 c 0
 57 433 33 489 33 499 c 0
 33 512 52 518 78 518 c 0
 111 518 154 509 186 491 c 0
 237 463 290 449 340 449 c 0
 495 449 628 573 628 754 c 0
 628 806 615 831 596 831 c 0
 578 831 554 807 533 757 c 0
 503 687 438 649 371 649 c 0
 319 649 267 672 231 720 c 0
 199 763 186 796 186 845 c 0
 186 861 187 878 190 898 c 0
 197 955 216 1006 231 1011 c 0
 247 1017 255 1034 255 1058 c 0
 255 1088 243 1127 219 1163 c 0
 192 1203 150 1222 76 1228 c 0
 -18 1235 -30 1244 -37 1310 c 0
 -38 1321 -39 1333 -39 1344 c 0
 -39 1374 -35 1402 -34 1415 c 0
EndSplineSet
EndChar

StartChar: bn_aakaar
Encoding: 54 2494 54
GlifName: bn_aakaar
Width: 586
VWidth: 0
GlyphClass: 2
Flags: W
HStem: 1217 201<444.514 591.859> 1230 212<482.038 631.444>
VStem: 300 191<21.0577 869.142>
LayerCount: 2
Fore
SplineSet
252 1668 m 0xa0
 260 1700 275 1710 313 1710 c 0
 375 1710 391 1675 417 1494 c 1
 423 1431 l 1
 439 1426 454 1418 481 1418 c 0xa0
 503 1418 534 1423 582 1440 c 0
 586 1441 589 1442 592 1442 c 0
 625 1442 643 1379 643 1322 c 0
 643 1274 631 1230 606 1230 c 0x60
 558 1230 507 1217 459 1217 c 0
 454 1217 449 1217 444 1217 c 1
 453 1122 l 1
 471 1055 491 627 491 344 c 0
 491 313 490 285 490 258 c 0
 487 70 457 -10 390 -10 c 0
 338 -10 332 7 310 209 c 0
 304 267 300 321 300 373 c 0
 300 421 303 466 309 511 c 0
 319 586 328 754 328 884 c 2
 328 926 l 2
 328 1084 322 1128 300 1152 c 0
 284 1170 265 1180 258 1175 c 1
 50 1247 l 1
 -3 1258 -4 1262 -4 1353 c 2
 -4 1447 l 1
 58 1447 l 2
 93 1447 147 1435 182 1420 c 0
 217 1405 255 1394 269 1394 c 0
 285 1394 292 1416 292 1447 c 0
 292 1480 284 1523 267 1563 c 0
 256 1589 250 1622 250 1646 c 0
 250 1655 250 1662 252 1668 c 0xa0
EndSplineSet
EndChar

StartChar: bn_ikaar
Encoding: 55 2495 55
GlifName: bn_ikaar
Width: 575
VWidth: 0
GlyphClass: 2
Flags: W
HStem: 1238 223<2.55313 171.287> 1242 183<490.018 609.072> 1500 208<490.107 1025.14>
VStem: 203 196<113.323 1217.09>
LayerCount: 2
Back
Fore
SplineSet
389 1667 m 0xb0
 484 1695 589 1708 694 1708 c 0
 942 1708 1196 1636 1352 1507 c 0
 1404 1464 1428 1444 1428 1434 c 0
 1428 1425 1408 1423 1369 1421 c 0
 1349 1420 1330 1419 1313 1419 c 0
 1228 1419 1178 1433 1160 1461 c 0xb0
 1147 1481 888 1500 669 1500 c 0
 626 1500 586 1499 548 1497 c 0
 508 1495 490 1479 490 1463 c 0
 490 1444 514 1425 559 1425 c 0
 626 1425 656 1397 656 1363 c 0
 656 1314 595 1254 495 1242 c 2x70
 399 1231 l 1
 399 650 l 2
 399 140 392 65 339 32 c 0
 316 18 298 10 282 10 c 0
 217 10 203 146 203 576 c 0
 203 596 203 615 203 636 c 0
 203 672 203 705 203 737 c 0
 203 1145 193 1238 108 1238 c 0
 87 1238 61 1233 31 1225 c 0
 17 1221 5 1219 -4 1219 c 0
 -34 1219 -43 1240 -43 1291 c 0
 -43 1390 17 1461 102 1461 c 0
 134 1461 189 1502 219 1548 c 0
 251 1597 325 1648 389 1667 c 0xb0
EndSplineSet
EndChar

StartChar: bn_iikaar
Encoding: 56 2496 56
GlifName: bn_iikaar
Width: 697
VWidth: 0
GlyphClass: 2
Flags: W
HStem: 22 260<423.797 594.612> 1263 173<22.2366 162.606> 1300 140<556.135 711.392> 1685 191<-68.9746 180.773>
VStem: -285 139<1513.67 1598.67> 257 157<1496.42 1607.88> 269 154<276 1028.93> 282 185<520.688 1204>
LayerCount: 2
Fore
SplineSet
-32 1862 m 0xdc
 -13 1869 42 1875 89 1876 c 2
 98 1876 l 2
 160 1876 194 1865 243 1832 c 0
 331 1772 414 1656 414 1596 c 0xdc
 414 1514 432 1492 500 1491 c 0
 535 1491 578 1479 597 1465 c 0
 616 1451 649 1440 672 1440 c 0
 707 1440 712 1431 712 1370 c 0
 712 1312 706 1300 679 1300 c 0
 661 1300 605 1280 556 1255 c 2
 467 1211 l 1
 467 1046 l 2xb9
 467 955 460 862 451 839 c 0
 442 816 432 681 429 537 c 2
 423 276 l 1
 516 281 l 2
 526 281 535 282 544 282 c 0
 628 282 659 259 659 202 c 0
 659 111 577 23 491 22 c 0
 451 22 419 42 354 109 c 2
 269 195 l 1xba
 275 419 l 2
 278 542 282 770 282 924 c 2xb9
 283 1204 l 1
 213 1209 l 2
 174 1212 128 1227 111 1243 c 0
 97 1256 87 1263 76 1263 c 0
 67 1263 58 1259 46 1251 c 0
 35 1244 27 1240 22 1240 c 0
 12 1240 12 1255 12 1295 c 0
 12 1332 7 1377 2 1397 c 0
 0 1403 -1 1409 -1 1413 c 0
 -1 1432 20 1434 101 1436 c 0
 161 1438 221 1449 234 1460 c 0
 249 1473 257 1491 257 1511 c 0
 257 1545 236 1586 197 1625 c 0
 144 1678 127 1685 48 1685 c 0
 -36 1685 -44 1680 -93 1612 c 0
 -122 1572 -146 1530 -146 1517 c 0
 -146 1501 -171 1493 -199 1493 c 0
 -224 1493 -251 1499 -265 1513 c 0
 -279 1527 -285 1557 -285 1592 c 0
 -285 1639 -273 1695 -252 1727 c 0
 -223 1771 -132 1827 -32 1862 c 0xdc
EndSplineSet
EndChar

StartChar: bn_ukaar
Encoding: 57 2497 57
GlifName: bn_ukaar
Width: 0
VWidth: 0
GlyphClass: 4
Flags: W
HStem: -806 157<-152.003 179.318> -672 95<-1010.23 -812.162> -386 112<-999.479 -780.184>
VStem: -1166 155<-558.698 -393.248> -696 203<-207.617 -76.5664>
AnchorPoint: "blwm" -592 -3 mark 0
LayerCount: 2
Fore
SplineSet
-696 -175 m 2x78
 -696 -59 l 1
 -601 -65 l 2
 -531 -69 -493 -91 -493 -121 c 0
 -493 -135 -501 -152 -519 -170 c 0
 -541 -192 -553 -271 -553 -339 c 0
 -553 -389 -545 -432 -531 -442 c 0
 -517 -452 -468 -485 -425 -515 c 0
 -338 -575 -145 -628 60 -649 c 0
 166 -659 196 -670 202 -697 c 0
 203 -702 204 -706 204 -711 c 0
 204 -766 132 -806 23 -806 c 0xb8
 -35 -806 -92 -798 -99 -788 c 0
 -106 -778 -160 -757 -221 -742 c 0
 -282 -727 -382 -684 -448 -646 c 0
 -514 -608 -579 -577 -595 -577 c 0
 -611 -577 -653 -597 -689 -623 c 0
 -735 -656 -789 -672 -859 -672 c 0
 -900 -672 -946 -666 -1000 -656 c 0
 -1044 -647 -1074 -639 -1074 -637 c 2
 -1074 -637 -1073 -636 -1072 -636 c 0
 -1070 -636 -1070 -635 -1070 -633 c 0
 -1070 -624 -1085 -599 -1111 -571 c 0
 -1148 -530 -1166 -508 -1166 -482 c 0
 -1166 -459 -1151 -432 -1123 -386 c 0
 -1081 -316 -1001 -274 -917 -274 c 0
 -889 -274 -860 -279 -833 -289 c 0
 -800 -300 -775 -306 -756 -306 c 0
 -709 -306 -696 -269 -696 -175 c 2x78
-820 -408 m 0
 -858 -394 -903 -386 -940 -386 c 0
 -965 -386 -985 -390 -995 -398 c 0
 -1004 -405 -1011 -448 -1011 -494 c 0
 -1011 -576 -1010 -577 -936 -577 c 0x78
 -886 -577 -843 -562 -812 -533 c 0
 -781 -505 -766 -481 -766 -461 c 0
 -766 -439 -784 -422 -820 -408 c 0
EndSplineSet
EndChar

StartChar: bn_uukaar
Encoding: 58 2498 58
GlifName: bn_uukaar
Width: 0
VWidth: 0
GlyphClass: 4
Flags: W
HStem: -569 168<-767.15 -603.596> -361 171<-524.5 -370.016>
VStem: -951 138<-439.5 -195.749>
AnchorPoint: "blwm" -832 -85 mark 0
LayerCount: 2
Fore
SplineSet
-893 -166 m 0
 -867 -113 -830 -83 -798 -83 c 0
 -781 -83 -767 -91 -755 -108 c 0
 -753 -111 -752 -116 -752 -122 c 0
 -752 -143 -763 -180 -782 -215 c 0
 -802 -253 -813 -274 -813 -292 c 0
 -813 -310 -801 -324 -777 -349 c 0
 -743 -384 -709 -401 -679 -401 c 0
 -627 -401 -584 -352 -562 -261 c 0
 -549 -208 -540 -190 -509 -190 c 0
 -499 -190 -486 -192 -470 -195 c 0
 -428 -203 -367 -230 -328 -256 c 0
 -289 -282 -228 -314 -186 -328 c 0
 -144 -342 -107 -368 -98 -387 c 0
 -90 -405 -43 -438 7 -457 c 0
 137 -507 345 -685 345 -742 c 0
 345 -744 344 -747 343 -749 c 0
 332 -775 294 -787 251 -787 c 0
 166 -787 57 -745 57 -689 c 0
 57 -663 19 -627 -33 -603 c 0
 -83 -580 -152 -534 -190 -499 c 0
 -227 -465 -287 -414 -321 -389 c 0
 -345 -371 -360 -361 -376 -361 c 0
 -402 -361 -429 -388 -501 -457 c 0
 -605 -556 -634 -569 -733 -569 c 0
 -876 -569 -951 -499 -951 -380 c 0
 -951 -320 -932 -248 -893 -166 c 0
EndSplineSet
EndChar

StartChar: bn_rikaar
Encoding: 59 2499 59
GlifName: bn_rikaar
Width: 0
VWidth: 0
GlyphClass: 4
Flags: W
HStem: -314 164<-631.281 -498.937> -218 141<-488.738 -314.921>
VStem: -891 636
AnchorPoint: "blwm" -380 -88 mark 0
LayerCount: 2
Fore
SplineSet
-487 -114 m 0xa0
 -480 -84 -463 -77 -399 -77 c 0
 -330 -77 -321 -83 -313 -123 c 0
 -311 -131 -311 -139 -311 -146 c 0
 -311 -191 -338 -221 -378 -221 c 0
 -384 -221 -389 -221 -395 -220 c 0
 -401 -219 -407 -218 -413 -218 c 0x60
 -439 -218 -461 -231 -491 -262 c 0
 -518 -291 -559 -314 -582 -314 c 0
 -617 -314 -637 -320 -637 -336 c 0
 -637 -365 -573 -427 -429 -550 c 0
 -376 -595 -325 -636 -316 -639 c 0
 -307 -642 -287 -669 -273 -696 c 0
 -260 -720 -255 -742 -255 -760 c 0
 -255 -794 -275 -815 -308 -815 c 0
 -331 -815 -360 -804 -392 -782 c 0
 -426 -758 -533 -663 -627 -571 c 0
 -721 -479 -821 -393 -846 -381 c 0
 -875 -367 -891 -344 -891 -316 c 0
 -891 -254 -695 -150 -578 -150 c 0
 -511 -150 -494 -144 -487 -114 c 0xa0
EndSplineSet
EndChar

StartChar: bn_rrikaar
Encoding: 60 2500 60
GlifName: bn_rrikaar
Width: 0
VWidth: 0
GlyphClass: 4
Flags: W
HStem: -633 164<-917.335 -813.612> -349 164<-663.281 -529.961> -253 140<-521.154 -345.852>
AnchorPoint: "blwm" -442 -134 mark 0
LayerCount: 2
Fore
SplineSet
-519 -149 m 0xc0
 -512 -119 -495 -113 -431 -113 c 0
 -362 -113 -353 -118 -345 -158 c 0
 -343 -166 -342 -174 -342 -181 c 0
 -342 -226 -370 -257 -410 -257 c 0
 -416 -257 -420 -256 -426 -255 c 0
 -432 -254 -439 -253 -445 -253 c 0xa0
 -471 -253 -492 -266 -522 -297 c 0
 -549 -326 -591 -349 -614 -349 c 0
 -649 -349 -669 -355 -669 -371 c 0
 -669 -377 -665 -387 -658 -397 c 1
 -613 -399 -606 -407 -599 -441 c 0
 -597 -449 -597 -458 -597 -465 c 1
 -564 -497 -519 -535 -461 -585 c 0
 -408 -630 -357 -671 -348 -674 c 0
 -339 -677 -319 -705 -305 -732 c 0
 -292 -756 -286 -778 -286 -796 c 0
 -286 -830 -307 -850 -340 -850 c 0
 -363 -850 -392 -839 -424 -817 c 0
 -458 -793 -565 -698 -659 -606 c 0
 -681 -584 -705 -563 -727 -542 c 1
 -742 -548 -759 -561 -777 -581 c 0
 -804 -610 -845 -633 -868 -633 c 0
 -903 -633 -923 -638 -923 -654 c 0
 -923 -683 -859 -746 -715 -869 c 0
 -662 -914 -611 -954 -602 -957 c 0
 -593 -960 -573 -988 -559 -1015 c 0
 -546 -1039 -541 -1061 -541 -1079 c 0
 -541 -1113 -561 -1133 -594 -1133 c 0
 -617 -1133 -646 -1123 -678 -1101 c 0
 -712 -1077 -820 -981 -914 -889 c 0
 -1008 -797 -1107 -712 -1132 -700 c 0
 -1161 -686 -1178 -662 -1178 -634 c 0
 -1178 -572 -981 -469 -864 -469 c 0
 -842 -469 -826 -468 -813 -466 c 1
 -844 -440 -868 -422 -878 -417 c 0
 -907 -403 -923 -379 -923 -351 c 0
 -923 -289 -727 -185 -610 -185 c 0
 -543 -185 -526 -179 -519 -149 c 0xc0
EndSplineSet
EndChar

StartChar: bn_ekaar
Encoding: 61 2503 61
GlifName: bn_ekaar
Width: 828
VWidth: 0
GlyphClass: 2
Flags: W
HStem: -201 189<536.853 776.646> 1191 275<-56.9233 139.571> 1209 257<-33.0022 196.593 614.22 826.205>
VStem: 92 210<453.734 986.23>
LayerCount: 2
Fore
SplineSet
-114 1359 m 0xb0
 -101 1415 -56 1441 0 1455 c 0
 33 1463 62 1466 89 1466 c 0xd0
 144 1466 193 1455 259 1455 c 2
 270 1455 l 2
 395 1458 617 1466 617 1470 c 2
 617 1470 615 1471 613 1471 c 1
 639 1474 667 1476 696 1476 c 2
 828 1477 l 1
 828 1337 l 2
 828 1231 825 1205 801 1205 c 0
 796 1205 790 1206 782 1208 c 0
 774 1210 763 1211 750 1211 c 0
 723 1211 688 1207 660 1200 c 0
 398 1134 401 1135 358 1047 c 0
 332 993 311 887 305 770 c 0
 303 734 302 703 302 676 c 0
 302 587 313 536 343 460 c 0
 369 393 402 293 415 238 c 0
 428 183 473 101 514 56 c 0
 560 6 578 -12 606 -12 c 0
 622 -12 642 -6 672 5 c 0
 700 15 724 20 745 20 c 0
 800 20 828 -16 828 -90 c 0
 828 -163 782 -201 703 -201 c 0
 650 -201 581 -184 502 -149 c 0
 333 -74 278 0 151 329 c 0
 103 453 92 523 92 691 c 0
 92 806 102 905 115 913 c 0
 127 920 138 966 138 1012 c 0
 138 1072 161 1142 198 1207 c 1
 180 1209 161 1209 142 1209 c 0xb0
 90 1208 49 1191 7 1191 c 0xd0
 -14 1191 -35 1196 -58 1209 c 0
 -100 1234 -119 1273 -119 1318 c 0
 -119 1331 -117 1345 -114 1359 c 0xb0
EndSplineSet
Substitution2: "initInitialFormsinBengali2lookup0 subtable" bn_ekaar_init
EndChar

StartChar: bn_aikaar
Encoding: 62 2504 62
GlifName: bn_aikaar
Width: 724
VWidth: 0
GlyphClass: 2
Flags: W
HStem: -195 286<451.85 618.489> 1200 275<-35.957 211.958> 1210 216<673.672 1148.15> 1740 146<349.171 775.19> 1798 157<843.22 1057>
VStem: 90 216<401.7 973.995> 91 266<1887.17 2123.3> 920 286<1740.22 1892.5>
LayerCount: 2
Fore
SplineSet
145 2134 m 0x93
 180 2169 199 2183 222 2183 c 0
 236 2183 252 2178 274 2168 c 0
 333 2142 357 2097 357 2011 c 0
 357 1996 357 1979 355 1961 c 2
 349 1886 l 1x93
 569 1878 l 2
 592 1877 614 1877 636 1877 c 0
 730 1877 806 1884 820 1895 c 0
 864 1931 959 1955 1042 1955 c 0
 1072 1955 1100 1952 1124 1945 c 0
 1191 1926 1206 1921 1206 1864 c 0
 1206 1848 1205 1829 1203 1804 c 0
 1196 1697 1189 1683 1109 1644 c 0
 927 1555 851 1525 770 1510 c 0
 725 1502 681 1477 674 1456 c 0
 673 1452 672 1449 672 1446 c 0
 672 1432 689 1426 746 1426 c 0
 788 1426 852 1429 947 1435 c 2
 1233 1452 l 1
 1233 1345 l 2
 1233 1221 1219 1180 1149 1180 c 0
 1131 1180 1108 1183 1081 1188 c 0
 1021 1199 904 1209 822 1210 c 0xab
 740 1211 658 1223 640 1234 c 0
 631 1240 618 1243 604 1243 c 0
 537 1243 427 1179 375 1103 c 0
 329 1036 306 920 306 777 c 0
 306 675 318 560 342 440 c 0
 394 183 425 91 482 91 c 0
 501 91 522 101 548 118 c 0
 574 135 594 144 610 144 c 0
 645 144 657 99 662 -8 c 0
 664 -47 665 -78 665 -103 c 0
 665 -193 648 -195 575 -195 c 0
 508 -195 464 -170 367 -77 c 0
 300 -12 222 93 195 154 c 0
 126 310 90 499 90 673 c 0
 90 809 112 936 157 1031 c 0
 187 1096 212 1160 212 1174 c 0
 212 1189 154 1200 77 1200 c 0
 -49 1200 -105 1232 -105 1308 c 0
 -105 1324 -103 1342 -98 1362 c 0
 -80 1436 32 1475 226 1475 c 0
 321 1475 393 1495 513 1556 c 0
 600 1600 719 1650 775 1667 c 0
 871 1696 920 1739 920 1768 c 0
 920 1786 902 1798 864 1798 c 0xcd
 845 1798 820 1795 790 1788 c 0
 658 1756 561 1740 478 1740 c 0
 421 1740 371 1748 321 1762 c 0
 171 1805 115 1860 96 1981 c 0
 93 2000 91 2016 91 2030 c 0
 91 2070 106 2095 145 2134 c 0x93
EndSplineSet
Substitution2: "initInitialFormsinBengali2lookup0 subtable" bn_aikaar_init
EndChar

StartChar: bn_okaar
Encoding: 63 2507 63
GlifName: bn_okaar
Width: 1414
VWidth: 0
GlyphClass: 2
Flags: W
HStem: -201 189<536.853 776.646> 1191 275<-56.9233 139.571> 1209 257<-33.0022 196.593 614.22 825.486> 1217 201<1272.51 1419.86> 1230 212<1310.04 1459.44>
VStem: 92 210<453.734 986.23> 1128 191<21.0577 869.142>
LayerCount: 2
Fore
SplineSet
-114 1359 m 0xa6
 -101 1415 -56 1441 0 1455 c 0
 33 1463 62 1466 89 1466 c 0xc6
 144 1466 193 1455 259 1455 c 2
 270 1455 l 2
 395 1458 617 1466 617 1470 c 2
 617 1470 615 1471 613 1471 c 1
 639 1474 667 1476 696 1476 c 2
 828 1477 l 1
 828 1447 l 1
 886 1447 l 2
 921 1447 975 1435 1010 1420 c 0
 1045 1405 1083 1394 1097 1394 c 0
 1113 1394 1120 1416 1120 1447 c 0
 1120 1480 1112 1523 1095 1563 c 0
 1084 1589 1078 1622 1078 1646 c 0
 1078 1655 1078 1662 1080 1668 c 0
 1088 1700 1103 1710 1141 1710 c 0
 1203 1710 1219 1675 1245 1494 c 1
 1251 1431 l 1
 1267 1426 1282 1418 1309 1418 c 0x96
 1331 1418 1362 1423 1410 1440 c 0
 1414 1441 1417 1442 1420 1442 c 0
 1453 1442 1471 1379 1471 1322 c 0
 1471 1274 1459 1230 1434 1230 c 0x8e
 1386 1230 1335 1217 1287 1217 c 0
 1282 1217 1277 1217 1272 1217 c 1x96
 1281 1122 l 1
 1299 1055 1319 627 1319 344 c 0
 1319 313 1318 285 1318 258 c 0
 1315 70 1285 -10 1218 -10 c 0
 1166 -10 1160 7 1138 209 c 0
 1132 267 1128 321 1128 373 c 0
 1128 421 1131 466 1137 511 c 0
 1147 586 1156 754 1156 884 c 2
 1156 926 l 2
 1156 1084 1150 1128 1128 1152 c 0
 1112 1170 1093 1180 1086 1175 c 1
 878 1247 l 2
 846 1254 832 1258 827 1281 c 1
 825 1222 820 1205 801 1205 c 0
 796 1205 790 1206 782 1208 c 0
 774 1210 763 1211 750 1211 c 0
 723 1211 688 1207 660 1200 c 0
 398 1134 401 1135 358 1047 c 0
 332 993 311 887 305 770 c 0
 303 734 302 703 302 676 c 0
 302 587 313 536 343 460 c 0
 369 393 402 293 415 238 c 0
 428 183 473 101 514 56 c 0
 560 6 578 -12 606 -12 c 0
 622 -12 642 -6 672 5 c 0
 700 15 724 20 745 20 c 0
 800 20 828 -16 828 -90 c 0
 828 -163 782 -201 703 -201 c 0
 650 -201 581 -184 502 -149 c 0
 333 -74 278 0 151 329 c 0
 103 453 92 523 92 691 c 0
 92 806 102 905 115 913 c 0
 127 920 138 966 138 1012 c 0
 138 1072 161 1142 198 1207 c 1
 180 1209 161 1209 142 1209 c 0xa6
 90 1208 49 1191 7 1191 c 0xc6
 -14 1191 -35 1196 -58 1209 c 0
 -100 1234 -119 1273 -119 1318 c 0
 -119 1331 -117 1345 -114 1359 c 0xa6
EndSplineSet
EndChar

StartChar: bn_aukaar
Encoding: 64 2508 64
GlifName: bn_aukaar
Width: 1332
VWidth: 0
GlyphClass: 2
Flags: W
HStem: -201 189<536.853 776.646> 1191 275<-56.9233 139.571> 1209 257<-33.0022 196.593 614.22 826.765> 1209 237<1243.42 1379.53> 1230 216<1171.03 1342.97>
VStem: 92 210<453.734 986.23> 283 196<1897.76 2052.19> 1039 95<1446 1507.76> 1089 200<93.3141 531.486> 1089 155<-32.1341 302.154 303.936 895.485> 1115 99<458.983 1074.78>
LayerCount: 2
Fore
SplineSet
-114 1359 m 0x9420
 -101 1415 -56 1441 0 1455 c 0
 33 1463 62 1466 89 1466 c 0xc420
 144 1466 193 1455 259 1455 c 2
 270 1455 l 2
 395 1458 617 1466 617 1470 c 2
 617 1470 615 1471 613 1471 c 1
 639 1474 667 1476 696 1476 c 2
 828 1477 l 1
 828 1417 l 1
 904 1413 965 1407 985 1400 c 0
 1001 1394 1012 1391 1020 1391 c 0
 1034 1391 1039 1400 1039 1422 c 0
 1039 1477 880 1665 834 1665 c 0
 815 1665 801 1673 801 1683 c 0
 801 1693 739 1715 665 1732 c 0
 389 1795 348 1811 309 1870 c 0
 292 1897 283 1925 283 1952 c 0
 283 2003 313 2052 367 2081 c 0
 399 2098 423 2107 440 2107 c 0
 469 2107 479 2080 479 2020 c 0
 479 1907 498 1889 631 1871 c 0
 862 1840 1133 1621 1134 1465 c 2
 1134 1446 l 1x8b
 1192 1445 1254 1441 1322 1434 c 0
 1404 1426 1375 1426 1386 1390 c 0
 1396 1358 1404 1329 1404 1301 c 0
 1404 1276 1398 1252 1380 1227 c 0
 1370 1214 1358 1209 1344 1209 c 0x93
 1322 1209 1296 1221 1270 1227 c 0
 1261 1229 1252 1230 1243 1230 c 0
 1219 1230 1192 1225 1170 1221 c 1
 1189 1093 1208 869 1214 686 c 0x8820
 1216 624 1225 566 1235 556 c 0
 1245 546 1253 507 1253 469 c 0
 1253 431 1264 380 1277 356 c 0
 1285 341 1289 323 1289 303 c 0x8880
 1289 285 1286 264 1279 244 c 0
 1267 206 1252 139 1244 91 c 0x8840
 1236 43 1214 -15 1194 -40 c 0
 1176 -62 1167 -74 1158 -74 c 0
 1149 -74 1139 -62 1120 -38 c 0
 1098 -10 1089 32 1089 172 c 0x8880
 1089 235 1091 317 1094 427 c 0
 1101 656 1109 854 1112 867 c 0
 1114 875 1115 885 1115 896 c 0
 1115 973 1066 1115 1017 1170 c 0
 974 1219 888 1267 828 1284 c 1
 827 1222 820 1205 801 1205 c 0
 796 1205 790 1206 782 1208 c 0
 774 1210 763 1211 750 1211 c 0
 723 1211 688 1207 660 1200 c 0
 398 1134 401 1135 358 1047 c 0
 332 993 311 887 305 770 c 0
 303 734 302 703 302 676 c 0
 302 587 313 536 343 460 c 0
 369 393 402 293 415 238 c 0
 428 183 473 101 514 56 c 0
 560 6 578 -12 606 -12 c 0
 622 -12 642 -6 672 5 c 0
 700 15 724 20 745 20 c 0
 800 20 828 -16 828 -90 c 0
 828 -163 782 -201 703 -201 c 0
 650 -201 581 -184 502 -149 c 0
 333 -74 278 0 151 329 c 0
 103 453 92 523 92 691 c 0
 92 806 102 905 115 913 c 0
 127 920 138 966 138 1012 c 0
 138 1072 161 1142 198 1207 c 1
 180 1209 161 1209 142 1209 c 0xa420
 90 1208 49 1191 7 1191 c 0xc420
 -14 1191 -35 1196 -58 1209 c 0
 -100 1234 -119 1273 -119 1318 c 0
 -119 1331 -117 1345 -114 1359 c 0x9420
EndSplineSet
EndChar

StartChar: bn_hasanta
Encoding: 65 2509 65
GlifName: bn_hasanta
Width: 0
VWidth: 0
GlyphClass: 4
Flags: W
HStem: -411 356
VStem: -290 462
AnchorPoint: "blwm" -421 -1 mark 0
LayerCount: 2
Fore
SplineSet
-290 -131 m 1
 -202 -55 l 1
 -104 -110 -46 -134 48 -195 c 0
 83 -218 102 -236 128 -268 c 0
 150 -295 172 -312 172 -347 c 0
 172 -377 158 -410 128 -411 c 2
 121 -411 l 2
 72 -411 45 -383 0 -355 c 0
 -32 -335 -40 -312 -70 -289 c 0
 -108 -260 -133 -250 -172 -222 c 0
 -219 -188 -244 -166 -290 -131 c 1
EndSplineSet
EndChar

StartChar: uni09CE
Encoding: 66 2510 66
GlifName: uni09C_E_
Width: 1598
VWidth: 0
GlyphClass: 2
Flags: W
HStem: -80 250<1232.74 1382.23> 1220 201<390.247 685.399>
VStem: 85 264<877.767 1181.51> 713 231<1052.33 1191.45>
LayerCount: 2
Fore
SplineSet
315 1401 m 0
 358 1414 423 1421 485 1421 c 0
 502 1421 519 1420 535 1419 c 0
 745 1405 909 1282 941 1113 c 0
 943 1103 944 1093 944 1084 c 0
 944 948 760 840 523 840 c 2
 499 840 l 1
 493 840 l 2
 456 840 438 831 438 809 c 0
 438 790 451 761 479 722 c 0
 551 620 806 379 884 340 c 0
 924 320 980 288 1007 270 c 0
 1034 252 1145 206 1253 170 c 0
 1543 73 1593 50 1593 9 c 0
 1593 -48 1534 -80 1441 -80 c 0
 1408 -80 1370 -76 1329 -67 c 0
 1270 -54 1206 -28 1184 -9 c 0
 1160 13 1116 26 1067 26 c 0
 1023 26 983 34 977 45 c 0
 970 56 953 64 936 64 c 0
 920 64 878 89 844 119 c 0
 810 149 735 189 680 207 c 0
 625 225 548 268 512 300 c 0
 411 389 284 526 284 544 c 0
 284 553 254 589 216 624 c 0
 170 667 142 714 130 769 c 0
 100 905 85 997 85 1065 c 0
 85 1130 99 1172 126 1211 c 0
 139 1230 152 1262 152 1278 c 0
 152 1326 213 1371 315 1401 c 0
681 1188 m 0
 656 1208 595 1220 533 1220 c 0
 497 1220 461 1216 430 1208 c 0
 379 1195 349 1101 349 1014 c 0
 349 960 361 909 387 883 c 0
 396 874 403 868 408 868 c 0
 417 868 422 883 431 919 c 0
 445 974 458 987 521 1000 c 0
 646 1027 682 1046 703 1101 c 0
 709 1118 713 1131 713 1141 c 0
 713 1158 703 1170 681 1188 c 0
EndSplineSet
PickledDataWithLists: "(dp0
Vcom.fontlab.hintData
p1
(dp2
Vhhints
p3
(lp4
(dp5
Vposition
p6
I-80
sVwidth
p7
I250
sa(dp8
g6
I1220
sg7
I201
sasVvhints
p9
(lp10
(dp11
g6
I85
sg7
I264
sa(dp12
g6
I713
sg7
I231
sass."
EndChar

StartChar: bn_auMark
Encoding: 67 2519 67
GlifName: bn_auM_ark
Width: 504
VWidth: 0
GlyphClass: 2
Flags: W
HStem: 1209 237<415.422 551.53> 1230 216<343.035 514.966> 1260 160<-336.812 -64.3704> 1291 129<-63.8096 86.7909>
VStem: -545 196<1897.76 2052.19> 211 95<1446 1507.76> 261 200<93.3141 531.486> 261 155<-32.1341 302.154 303.936 895.485> 287 99<458.983 1074.78>
LayerCount: 2
Fore
SplineSet
-461 2081 m 0x2c
 -429 2098 -405 2107 -388 2107 c 0
 -359 2107 -349 2080 -349 2020 c 0
 -349 1907 -330 1889 -197 1871 c 0
 34 1840 305 1621 306 1465 c 2
 306 1446 l 1x4c
 364 1445 426 1441 494 1434 c 0
 576 1426 547 1426 558 1390 c 0
 568 1358 576 1329 576 1301 c 0
 576 1276 570 1252 552 1227 c 0
 542 1214 530 1209 516 1209 c 0x8c
 494 1209 468 1221 442 1227 c 0
 433 1229 424 1230 415 1230 c 0
 391 1230 364 1225 342 1221 c 1
 361 1093 380 869 386 686 c 0x4880
 388 624 397 566 407 556 c 0
 417 546 425 507 425 469 c 0
 425 431 436 380 449 356 c 0
 457 341 461 323 461 303 c 0x4a
 461 285 458 264 451 244 c 0
 439 206 424 139 416 91 c 0x49
 408 43 386 -15 366 -40 c 0
 348 -62 339 -74 330 -74 c 0
 321 -74 311 -62 292 -38 c 0
 270 -10 261 32 261 172 c 0x4a
 261 235 263 317 266 427 c 0
 273 656 281 854 284 867 c 0
 286 875 287 885 287 896 c 0
 287 973 238 1115 189 1170 c 0
 135 1231 14 1291 -40 1291 c 0x1880
 -52 1291 -60 1288 -64 1282 c 0
 -71 1270 -136 1260 -205 1260 c 0x2880
 -331 1260 -333 1261 -342 1340 c 2
 -351 1420 l 1x1880
 -124 1420 l 2
 2 1420 127 1411 157 1400 c 0
 173 1394 184 1391 192 1391 c 0
 206 1391 211 1400 211 1422 c 0
 211 1477 52 1665 6 1665 c 0
 -13 1665 -27 1673 -27 1683 c 0
 -27 1693 -89 1715 -163 1732 c 0
 -439 1795 -480 1811 -519 1870 c 0
 -536 1897 -545 1925 -545 1952 c 0
 -545 2003 -515 2052 -461 2081 c 0x2c
EndSplineSet
EndChar

StartChar: bn_rra
Encoding: 68 2524 68
GlifName: bn_R_a
Width: 1372
VWidth: 0
GlyphClass: 3
Flags: W
HStem: -350 234<841.926 1012.07> -62 215<617.406 987.161> 576 211<894.416 1110.19> 576 162<874.142 1020.04> 1235 212<76.1603 598.112 855.608 1235.87>
VStem: -9 241<459.612 555.745> 670 177<738.293 1161.07> 819 216<-326.575 -139.425> 1150 176<288.483 536.399>
AnchorPoint: "abvm" 714 1232 basechar 0
AnchorPoint: "blwm" 929 -363 basechar 0
LayerCount: 2
Fore
SplineSet
26 1429 m 0xee80
 34 1442 107 1447 341 1447 c 0
 431 1447 546 1446 689 1445 c 0
 1046 1442 1347 1433 1359 1426 c 0
 1373 1417 1381 1380 1381 1343 c 0
 1381 1308 1375 1274 1361 1260 c 0
 1347 1246 1263 1239 1106 1239 c 0
 941 1239 867 1233 855 1218 c 0
 849 1211 847 1178 847 1131 c 0
 847 998 866 760 885 741 c 0
 887 739 891 738 897 738 c 0xde80
 913 738 941 746 970 761 c 0
 1005 779 1025 787 1047 787 c 0
 1064 787 1082 783 1107 774 c 0
 1143 762 1206 717 1246 677 c 2
 1320 602 l 1
 1326 423 l 1
 1332 245 l 1
 1276 183 l 2
 1245 150 1193 93 1162 60 c 0
 1088 -19 983 -75 916 -75 c 0
 908 -75 901 -75 894 -73 c 0
 868 -67 834 -62 813 -62 c 2
 807 -62 l 2
 780 -63 757 -63 737 -63 c 0
 648 -63 619 -54 556 -18 c 0
 510 8 450 48 426 69 c 0
 401 91 353 125 316 147 c 0
 279 169 249 192 249 198 c 0
 249 204 205 257 151 315 c 0
 43 430 -9 515 -9 579 c 0
 -9 609 2 634 25 655 c 0
 46 674 64 684 81 684 c 0
 107 684 129 662 151 616 c 0
 166 584 191 548 205 536 c 0
 219 524 232 504 232 493 c 0
 232 465 318 376 396 324 c 0
 431 300 462 274 462 267 c 0
 462 260 474 254 486 254 c 0
 499 254 547 234 591 210 c 0
 662 172 728 153 797 153 c 0
 838 153 880 160 925 173 c 0
 1065 214 1150 306 1150 414 c 0
 1150 430 1148 446 1144 463 c 0
 1128 534 1075 576 1012 576 c 0
 988 576 963 571 938 558 c 0
 905 541 833 525 776 521 c 2
 674 514 l 1
 671 617 l 2
 670 645 670 677 670 705 c 0
 670 733 670 759 671 773 c 0
 672 781 672 790 672 799 c 0
 672 824 669 850 665 868 c 2
 656 978 l 1
 646 1069 l 2
 640 1118 626 1169 615 1181 c 0
 604 1193 533 1213 459 1224 c 0
 409 1231 374 1235 341 1235 c 0
 298 1235 261 1229 203 1215 c 0
 129 1197 85 1189 57 1189 c 0
 27 1189 15 1198 5 1218 c 0
 0 1228 -2 1248 -2 1272 c 0
 -2 1326 9 1402 26 1429 c 0xee80
819 -233 m 0xcd80
 819 -169 867 -116 927 -116 c 0
 987 -116 1035 -169 1035 -233 c 0
 1035 -297 987 -350 927 -350 c 0
 867 -350 819 -297 819 -233 c 0xcd80
EndSplineSet
Ligature2: "nuktNuktaFormsinBengali2lookup1 subtable" bn_dda bn_nukta
EndChar

StartChar: bn_rrha
Encoding: 69 2525 69
GlifName: bn_R_ha
Width: 1129
VWidth: 0
GlyphClass: 3
Flags: W
HStem: -315 234<605.926 776.074> -22 282<482.681 716.589> 596 230<565.064 825.675> 1182 258<15 183.38> 1220 220<43.9866 189.952 417.465 1027.56>
VStem: 192 188<364 1186.7> 583 216<-291.575 -104.425> 854 227<371.85 567.856>
AnchorPoint: "abvm" 564 1244 basechar 0
AnchorPoint: "blwm" 722 -342 basechar 0
LayerCount: 2
Fore
SplineSet
1028 1465 m 0xf7
 1031 1468 1038 1469 1046 1469 c 0
 1074 1469 1125 1454 1141 1438 c 0
 1148 1430 1159 1392 1164 1355 c 0
 1166 1342 1166 1330 1166 1320 c 0
 1166 1290 1160 1272 1144 1255 c 0
 1114 1223 1113 1223 677 1218 c 0
 497 1216 446 1210 425 1188 c 0
 403 1165 397 1090 389 762 c 2
 380 364 l 1
 426 314 l 2
 460 278 506 260 559 260 c 0
 612 260 673 278 734 314 c 0
 815 362 854 413 854 469 c 0
 854 485 851 500 845 517 c 0
 825 571 784 596 699 596 c 0
 651 596 588 588 508 572 c 0
 496 570 486 568 478 568 c 0
 456 568 446 577 434 599 c 0
 429 608 427 617 427 627 c 0
 427 706 564 811 701 824 c 0
 715 825 728 826 740 826 c 0
 785 826 817 814 885 774 c 0
 985 716 1002 693 1059 549 c 0
 1073 512 1081 491 1081 465 c 0
 1081 439 1074 407 1058 345 c 0
 1031 234 1015 205 934 118 c 0
 845 22 768 -22 673 -22 c 0
 631 -22 586 -14 534 3 c 0
 448 30 320 108 284 154 c 0
 234 218 192 383 192 499 c 0
 192 520 193 539 196 556 c 0
 203 595 206 715 206 843 c 0
 206 1021 200 1213 190 1219 c 0
 189 1220 187 1220 184 1220 c 0xef
 171 1220 144 1212 116 1200 c 0
 88 1188 64 1182 43 1182 c 0
 -1 1182 -28 1209 -28 1260 c 0
 -28 1294 -16 1349 -5 1382 c 2
 15 1440 l 1
 517 1448 l 2
 793 1452 1022 1459 1028 1465 c 0xf7
583 -198 m 0
 583 -134 631 -81 691 -81 c 0
 751 -81 799 -134 799 -198 c 0
 799 -262 751 -315 691 -315 c 0
 631 -315 583 -262 583 -198 c 0
EndSplineSet
Ligature2: "nuktNuktaFormsinBengali2lookup1 subtable" bn_ddha bn_nukta
EndChar

StartChar: bn_yya
Encoding: 70 2527 70
GlifName: bn_Y_a
Width: 1280
VWidth: 0
GlyphClass: 3
Flags: W
HStem: -220 234<451.926 622.074> 325 234<115.344 279.172> 1227 209<485.275 909.879>
VStem: 429 216<-196.575 -9.42523> 475 217<687.814 895.981> 924 175<541.262 1186.18>
AnchorPoint: "abvm" 678 1220 basechar 0
AnchorPoint: "blwm" 1205 -191 basechar 0
LayerCount: 2
Fore
SplineSet
-2 1390 m 0xec
 21 1420 370 1436 702 1436 c 0
 1006 1436 1295 1423 1305 1395 c 0
 1311 1378 1314 1360 1314 1343 c 0
 1314 1280 1275 1225 1214 1212 c 0
 1129 1193 1099 1171 1099 1056 c 0
 1099 1009 1104 947 1112 863 c 0
 1126 720 1137 495 1137 362 c 2
 1137 121 l 1
 1230 55 l 2
 1290 13 1320 -28 1320 -67 c 0
 1320 -93 1307 -119 1280 -144 c 0
 1264 -159 1250 -167 1234 -167 c 0
 1215 -167 1192 -156 1155 -135 c 0
 1108 -108 1013 -66 939 -39 c 0
 866 -12 680 81 524 168 c 0
 368 255 218 325 189 325 c 0
 127 325 88 369 88 427 c 0
 88 446 92 466 101 486 c 0
 118 527 145 559 164 559 c 0
 182 559 259 591 336 631 c 0
 447 688 475 717 475 773 c 0
 475 887 398 959 184 1049 c 0
 -12 1131 -14 1134 -22 1242 c 0
 -23 1252 -23 1263 -23 1274 c 0
 -23 1325 -15 1373 -2 1390 c 0xec
910 1185 m 0
 900 1215 869 1227 807 1227 c 2
 785 1227 l 1
 573 1218 475 1199 475 1167 c 0
 475 1149 522 1080 581 1010 c 0
 655 922 692 838 692 758 c 0
 692 694 668 633 621 577 c 0
 584 533 555 480 555 457 c 0
 555 422 809 267 867 267 c 0
 896 267 924 693 924 968 c 0
 924 1073 920 1157 910 1185 c 0
429 -103 m 0xf4
 429 -39 477 14 537 14 c 0
 597 14 645 -39 645 -103 c 0
 645 -167 597 -220 537 -220 c 0
 477 -220 429 -167 429 -103 c 0xf4
EndSplineSet
Ligature2: "nuktNuktaFormsinBengali2lookup1 subtable" bn_ya bn_nukta
EndChar

StartChar: bn_rri
Encoding: 71 2528 71
GlifName: bn_rri
Width: 1318
VWidth: 0
GlyphClass: 2
Flags: W
HStem: -368 106<737.163 841.949> 530 227<1003.84 1134.44> 984 134<365 504.463> 1354 219<513.089 753.178>
VStem: 217 147<1124.41 1264.02> 769 112<1136.58 1319.23> 798 511<530.884 752.765> 798 111<299.55 504.759> 980 94<-18.343 23.2681> 1085 76<-115.099 -61.52> 1137 137<880.712 1338.55>
AnchorPoint: "abvm" 696 1466 basechar 0
LayerCount: 2
Fore
SplineSet
1094 -60 m 0xf840
 1097 -57 1100 -56 1105 -56 c 0
 1126 -56 1161 -85 1161 -110 c 0
 1161 -139 1159 -139 1123 -116 c 0
 1097 -99 1085 -88 1085 -77 c 0
 1085 -71 1088 -66 1094 -60 c 0xf840
1255 1641 m 1
 1268 1615 1270 1579 1274 1358 c 0xfca0
 1281 949 1280 763 1298 636 c 0
 1305 585 1309 553 1309 532 c 0xfa
 1309 508 1304 497 1294 487 c 0
 1286 479 1279 474 1266 474 c 0
 1247 474 1218 484 1159 505 c 0
 1110 523 1069 530 1036 530 c 0
 943 530 909 469 909 392 c 0xf9
 909 298 960 181 1018 120 c 0
 1056 80 1074 51 1074 27 c 0
 1074 10 1065 -5 1048 -19 c 0
 1041 -25 1031 -27 1021 -27 c 0
 1001 -27 980 -18 980 -4 c 0
 980 3 958 16 931 25 c 0
 904 34 849 71 807 110 c 0
 724 186 561 314 533 325 c 0
 532 325 531 326 529 326 c 0
 497 326 339 248 300 213 c 0
 285 199 273 175 273 158 c 0
 273 125 313 72 338 72 c 0
 358 72 523 -50 604 -124 c 0
 642 -158 685 -191 702 -196 c 0
 719 -201 740 -219 751 -234 c 0
 762 -249 777 -262 785 -262 c 0
 793 -262 813 -276 831 -294 c 0
 844 -307 850 -319 850 -330 c 0
 850 -353 822 -368 771 -368 c 0
 730 -368 695 -352 636 -308 c 0
 527 -226 551 -225 438 -147 c 0
 393 -116 305 -45 243 11 c 0
 181 67 104 125 73 140 c 0
 37 157 19 174 19 193 c 0
 19 213 39 235 80 263 c 0
 116 287 154 315 165 326 c 0
 176 336 193 345 204 345 c 0
 215 345 241 359 262 376 c 0
 284 394 327 408 362 409 c 0
 398 410 416 417 416 428 c 0
 416 436 406 446 384 458 c 0
 331 486 237 552 175 602 c 0
 142 629 100 657 82 664 c 0
 60 673 48 685 48 699 c 0
 48 713 59 729 80 748 c 0
 113 777 162 796 299 830 c 0
 334 839 368 855 378 867 c 0
 388 879 414 893 438 898 c 0
 479 907 511 933 511 953 c 0
 511 958 509 962 505 966 c 0
 494 977 453 984 409 984 c 0
 380 984 349 981 324 975 c 0
 311 972 301 970 293 970 c 0
 275 970 267 980 252 1010 c 0
 229 1054 217 1097 217 1139 c 0
 217 1179 228 1217 249 1254 c 0
 271 1292 296 1341 306 1364 c 0
 316 1387 330 1406 338 1406 c 0
 346 1406 379 1428 414 1456 c 0
 513 1537 582 1573 637 1573 c 0
 719 1573 899 1472 899 1433 c 0
 899 1429 897 1426 893 1423 c 0
 885 1418 881 1409 881 1392 c 0
 881 1378 884 1358 889 1329 c 0
 898 1283 912 1200 920 1141 c 0
 963 841 965 831 1013 791 c 0
 1040 769 1067 757 1091 757 c 2
 1099 757 l 1
 1132 761 1137 764 1137 835 c 2
 1137 868 l 2xfca0
 1135 1003 1118 1209 1097 1379 c 0
 1082 1496 1077 1512 1048 1519 c 0
 1030 1524 978 1534 974 1565 c 0
 969 1601 966 1619 966 1629 c 0
 966 1637 968 1639 971 1639 c 2
 1255 1641 l 1
751 1320 m 0
 739 1336 705 1348 657 1352 c 0
 641 1354 625 1354 610 1354 c 0
 499 1354 425 1312 386 1226 c 0
 372 1196 364 1174 364 1158 c 0
 364 1121 412 1118 554 1118 c 0
 673 1118 739 1124 751 1136 c 0
 763 1148 769 1186 769 1225 c 0
 769 1264 763 1304 751 1320 c 0
797 602 m 0
 795 776 800 840 751 840 c 0
 719 840 663 812 566 769 c 0
 474 728 389 694 374 694 c 0
 361 694 338 681 338 666 c 0
 338 616 689 299 747 299 c 0
 786 299 798 344 798 526 c 0xf9
 798 549 797 574 797 602 c 0
EndSplineSet
EndChar

StartChar: bn_lli
Encoding: 72 2529 72
GlifName: bn_lli
Width: 1505
VWidth: 0
GlyphClass: 2
Flags: W
HStem: -246 181<912.749 1128.85> 45 182<388.5 666.842> 552 387<219.016 447.619>
VStem: 57 246<1286.21 1400.05> 996 240<686.826 918.069> 1169 178<-26.8282 176.008>
LayerCount: 2
Fore
SplineSet
115 1435 m 0xf8
 158 1481 225 1519 261 1519 c 0
 318 1519 353 1479 353 1432 c 0
 353 1409 345 1384 326 1361 c 0
 311 1343 303 1329 303 1319 c 0
 303 1305 318 1296 348 1286 c 0
 385 1274 448 1251 494 1233 c 0
 539 1215 657 1201 759 1200 c 0
 900 1199 975 1176 1084 1101 c 0
 1210 1015 1227 986 1235 845 c 0
 1236 835 1236 824 1236 814 c 0xf8
 1236 626 1134 460 1014 460 c 0
 968 460 920 445 909 428 c 0
 907 425 906 422 906 419 c 0
 906 387 1017 356 1144 355 c 0
 1197 355 1264 329 1295 298 c 0
 1329 263 1347 186 1347 106 c 0
 1347 39 1335 -29 1309 -77 c 0
 1263 -163 1073 -246 925 -246 c 0
 834 -246 807 -225 763 -119 c 0
 732 -45 677 17 632 29 c 0
 596 39 571 45 554 45 c 0
 521 45 514 22 500 -41 c 0
 487 -97 449 -125 403 -125 c 0
 353 -125 292 -92 244 -27 c 0
 210 18 194 46 194 70 c 0
 194 89 204 106 222 128 c 0
 276 195 342 227 435 227 c 0
 489 227 553 216 629 194 c 0
 770 153 831 114 865 43 c 0
 901 -31 964 -65 1024 -65 c 0
 1100 -65 1169 -12 1169 81 c 0xf4
 1169 90 1168 101 1167 111 c 0
 1157 182 1112 202 830 267 c 0
 491 345 413 385 378 499 c 0
 367 535 346 552 313 552 c 0
 302 552 291 550 277 547 c 0
 266 544 254 543 243 543 c 0
 203 543 167 561 133 598 c 0
 98 636 81 677 81 717 c 0
 81 783 128 847 219 896 c 0
 273 925 334 939 395 939 c 0
 520 939 643 881 694 781 c 0
 752 670 799 617 849 617 c 0
 873 617 898 630 925 654 c 0
 963 688 996 764 996 817 c 0
 996 926 996 926 537 1028 c 0
 315 1077 129 1177 74 1279 c 0
 63 1299 57 1317 57 1334 c 0
 57 1364 75 1392 115 1435 c 0xf8
EndSplineSet
EndChar

StartChar: bn_likaar
Encoding: 73 2530 73
GlifName: bn_likaar
Width: 0
VWidth: 0
GlyphClass: 4
Flags: W
HStem: -291 95<-621.835 -525.925> -275 116<-264.824 -145.77> -77 102<-604.538 -372.913> 150 145<-489.52 -401.549> 340 141<-490.334 -421.814>
VStem: -753 131<-195.554 -96.014> -608 117<288.241 378.637> -135 120<-148.58 4.79443>
AnchorPoint: "blwm" 3 766 mark 0
LayerCount: 2
Fore
SplineSet
-540 463 m 0x7f
 -512 475 -489 481 -471 481 c 0
 -436 481 -419 459 -419 414 c 0
 -419 365 -436 340 -469 340 c 0
 -483 340 -491 331 -491 316 c 0
 -491 302 -484 293 -475 295 c 2
 -474 295 l 2
 -465 295 -441 279 -421 259 c 1
 -212 164 l 1
 -198 151 -162 132 -131 121 c 0
 -83 104 -71 92 -45 40 c 0
 -22 -7 -28 -32 -22 -67 c 0
 -17 -93 -15 -116 -15 -137 c 0
 -15 -185 -28 -220 -62 -237 c 0
 -84 -248 -69 -264 -159 -272 c 0
 -180 -274 -198 -275 -214 -275 c 0x7f
 -283 -275 -309 -256 -319 -210 c 0
 -336 -134 -345 -118 -384 -98 c 0
 -413 -84 -456 -77 -497 -77 c 0
 -541 -77 -582 -85 -598 -101 c 0
 -614 -117 -622 -140 -622 -160 c 0
 -622 -180 -614 -196 -598 -196 c 0
 -586 -196 -572 -184 -568 -171 c 0
 -562 -153 -552 -148 -528 -151 c 0
 -501 -154 -496 -160 -493 -197 c 2
 -493 -206 l 2
 -493 -260 -534 -291 -609 -291 c 0xbf
 -657 -291 -672 -284 -709 -248 c 0
 -745 -213 -753 -197 -753 -161 c 0
 -753 -105 -700 -29 -642 -1 c 0
 -611 14 -537 25 -494 25 c 0
 -476 25 -464 23 -461 19 c 0
 -458 14 -438 6 -417 2 c 0
 -357 -10 -291 -60 -267 -110 c 0
 -252 -142 -232 -159 -210 -159 c 0
 -195 -159 -179 -151 -162 -135 c 0
 -144 -118 -135 -102 -135 -83 c 0
 -135 -66 -143 -46 -158 -22 c 0
 -174 4 -195 20 -220 26 c 0
 -240 30 -271 43 -287 54 c 0
 -357 102 -435 150 -444 150 c 0
 -464 150 -565 252 -587 295 c 0
 -601 322 -608 348 -608 371 c 0
 -608 412 -585 444 -540 463 c 0x7f
EndSplineSet
EndChar

StartChar: bn_llikaar
Encoding: 74 2531 74
GlifName: bn_llikaar
Width: 0
VWidth: 0
GlyphClass: 4
Flags: W
HStem: -780 91<-240.809 -99.6154> -634 91<-484 -340.42> -385 198<-602.447 -479.857>
VStem: -649 147<-28.9234 75.3625> -581 153<-691.156 -634.008> -180 119<-329.187 -187.891> -94 90<-683.214 -557.034>
AnchorPoint: "blwm" -7 298 mark 0
LayerCount: 2
Fore
SplineSet
-621 61 m 0xf4
 -599 84 -565 103 -547 103 c 0
 -519 103 -502 84 -502 60 c 0
 -502 48 -506 36 -515 24 c 0
 -533 3 -530 -4 -504 -13 c 0
 -486 -19 -454 -31 -431 -40 c 0
 -408 -49 -349 -57 -298 -57 c 0
 -227 -58 -190 -69 -136 -106 c 0
 -73 -149 -65 -163 -61 -234 c 1
 -61 -250 l 2xf4
 -61 -345 -110 -427 -171 -427 c 0
 -194 -427 -218 -433 -223 -442 c 0
 -224 -443 -224 -445 -224 -446 c 0
 -224 -462 -169 -478 -106 -479 c 0
 -80 -479 -45 -492 -30 -508 c 0
 -13 -525 -4 -564 -4 -603 c 0
 -4 -636 -10 -671 -23 -695 c 0
 -46 -738 -141 -780 -215 -780 c 0
 -261 -780 -275 -769 -297 -716 c 0
 -312 -679 -339 -648 -362 -642 c 0
 -380 -637 -392 -634 -401 -634 c 0
 -418 -634 -421 -645 -428 -677 c 0
 -435 -705 -454 -719 -477 -719 c 0
 -502 -719 -532 -702 -556 -670 c 0
 -573 -647 -581 -634 -581 -622 c 0
 -581 -613 -576 -604 -567 -593 c 0
 -540 -560 -507 -543 -461 -543 c 0
 -434 -543 -402 -549 -364 -560 c 0
 -293 -580 -263 -600 -246 -635 c 0
 -228 -672 -197 -689 -167 -689 c 0
 -129 -689 -94 -662 -94 -616 c 0xea
 -94 -611 -94 -606 -95 -601 c 0
 -100 -566 -122 -556 -263 -523 c 0
 -432 -484 -471 -464 -489 -407 c 0
 -496 -383 -511 -376 -539 -383 c 0
 -545 -384 -550 -385 -556 -385 c 0
 -576 -385 -595 -377 -611 -358 c 0
 -629 -339 -637 -319 -637 -299 c 0
 -637 -265 -613 -232 -568 -208 c 0
 -541 -193 -511 -187 -481 -187 c 0
 -418 -187 -357 -216 -331 -266 c 0
 -302 -322 -278 -348 -253 -348 c 0
 -241 -348 -228 -342 -215 -330 c 0
 -196 -313 -180 -274 -180 -248 c 0
 -180 -193 -180 -194 -410 -143 c 0
 -521 -118 -613 -68 -641 -17 c 0
 -646 -7 -649 1 -649 10 c 0
 -649 25 -641 39 -621 61 c 0xf4
EndSplineSet
EndChar

StartChar: bn_shunya
Encoding: 75 2534 75
GlifName: bn_shunya
Width: 1075
VWidth: 0
GlyphClass: 2
Flags: W
HStem: 267 187<363.919 599.856> 741 195<369.413 582.48>
VStem: 133 187<498.44 691.85> 655 217<506.272 669.556>
LayerCount: 2
Fore
SplineSet
368 920 m 0
 397 931 440 936 487 936 c 0
 574 936 673 919 720 890 c 0
 813 833 872 708 872 593 c 0
 872 550 864 509 847 473 c 0
 791 356 614 267 460 267 c 0
 438 267 417 268 397 272 c 0
 310 288 184 404 148 500 c 0
 138 526 133 554 133 583 c 0
 133 665 173 753 243 821 c 0
 291 867 348 913 368 920 c 0
597 684 m 0
 559 722 515 741 473 741 c 0
 435 741 399 726 368 695 c 0
 334 661 320 625 320 592 c 0
 320 516 394 454 480 454 c 0
 521 454 564 468 604 501 c 0
 638 529 655 556 655 584 c 0
 655 614 636 646 597 684 c 0
EndSplineSet
EndChar

StartChar: bn_ek
Encoding: 76 2535 76
GlifName: bn_ek
Width: 1012
VWidth: 0
GlyphClass: 2
Flags: W
HStem: -44 230<491.168 673.056>
VStem: 146 264<1193.55 1404.82> 246 226<202.134 342.791> 776 119<296.781 518.805>
LayerCount: 2
Fore
SplineSet
186 1400 m 0xd0
 213 1435 248 1454 289 1454 c 0
 354 1454 362 1442 410 1278 c 0xd0
 426 1222 485 1141 587 1032 c 0
 768 839 843 721 863 596 c 0
 871 545 885 471 892 434 c 0
 894 423 895 411 895 399 c 0
 895 280 804 92 705 21 c 0
 645 -22 582 -44 523 -44 c 0
 468 -44 414 -25 369 13 c 0
 297 73 246 162 246 227 c 0xb0
 246 308 383 499 502 583 c 0
 563 627 614 672 614 682 c 0
 614 707 510 846 483 857 c 0
 444 873 260 1054 202 1134 c 0
 165 1185 146 1236 146 1285 c 0
 146 1326 159 1365 186 1400 c 0xd0
759 479 m 0
 744 508 721 535 707 540 c 0
 703 541 699 542 694 542 c 0
 623 542 472 388 472 307 c 0xb0
 472 225 516 186 570 186 c 0
 637 186 721 245 760 354 c 0
 771 384 776 405 776 423 c 0
 776 442 771 457 759 479 c 0
EndSplineSet
EndChar

StartChar: bn_dui
Encoding: 77 2536 77
GlifName: bn_dui
Width: 1240
VWidth: 0
GlyphClass: 2
Flags: W
HStem: -139 155<1044.66 1206.76>
VStem: 490 192<633.017 911.43>
LayerCount: 2
Fore
SplineSet
101 1419 m 1
 106 1411 124 1407 149 1407 c 0
 162 1407 177 1408 193 1410 c 0
 212 1413 227 1415 240 1415 c 0
 278 1415 299 1398 366 1335 c 0
 467 1241 622 1024 622 978 c 0
 622 963 629 942 638 933 c 0
 647 923 663 871 673 816 c 0
 679 784 682 760 682 738 c 0
 682 703 674 673 657 630 c 0
 626 551 474 376 437 376 c 0
 425 376 419 369 419 359 c 0
 419 343 434 320 457 313 c 0
 477 307 494 294 494 285 c 0
 494 276 528 259 570 247 c 0
 612 235 675 211 711 192 c 0
 748 173 785 157 794 157 c 0
 803 157 860 134 922 104 c 0
 984 74 1074 35 1125 16 c 0
 1211 -17 1216 -23 1216 -81 c 0
 1216 -121 1210 -139 1183 -139 c 0
 1162 -139 1130 -128 1079 -108 c 0
 1044 -94 933 -53 832 -17 c 0
 731 19 618 65 579 85 c 0
 541 104 494 120 477 120 c 0
 461 120 436 130 425 141 c 0
 413 153 360 178 307 196 c 0
 197 234 183 252 183 342 c 0
 183 428 198 468 232 468 c 0
 288 468 425 581 459 656 c 0
 479 701 490 741 490 780 c 0
 490 873 428 958 283 1082 c 0
 226 1131 176 1191 171 1216 c 2
 101 1419 l 1
EndSplineSet
EndChar

StartChar: bn_tin
Encoding: 78 2537 78
GlifName: bn_tin
Width: 1596
VWidth: 0
GlyphClass: 2
Flags: W
HStem: 24 315<891.076 1086.76> 72 267<733.831 965.078>
VStem: 1299 199<565.376 907.112>
LayerCount: 2
Fore
SplineSet
872 1384 m 0xa0
 910 1410 951 1423 995 1423 c 0
 1140 1423 1309 1284 1436 1045 c 0
 1486 951 1497 898 1498 734 c 2
 1498 717 l 2
 1498 368 1408 188 1176 70 c 0
 1117 40 1049 24 999 24 c 0xa0
 964 24 938 32 928 48 c 0
 920 62 892 72 863 72 c 0x60
 778 72 484 242 366 360 c 0
 214 511 78 667 47 725 c 0
 36 746 31 764 31 780 c 0
 31 820 62 842 103 842 c 0
 141 842 187 823 224 778 c 0
 408 559 482 494 638 418 c 0
 748 365 832 339 910 339 c 0
 973 339 1032 356 1099 389 c 0
 1181 430 1213 464 1252 556 c 0
 1283 629 1299 695 1299 754 c 0
 1299 834 1270 903 1214 959 c 0
 1196 977 1180 987 1166 987 c 0
 1144 987 1125 965 1104 922 c 0
 1079 869 1053 854 981 848 c 0
 969 847 958 847 948 847 c 0
 895 847 869 862 818 916 c 0
 761 977 747 1014 747 1101 c 0
 747 1221 795 1330 872 1384 c 0xa0
EndSplineSet
EndChar

StartChar: bn_chaar
Encoding: 79 2538 79
GlifName: bn_chaar
Width: 1071
VWidth: 0
GlyphClass: 2
Flags: W
HStem: -14 196<369.472 660.248> 575 218<419.018 634.312> 1164 214<389.193 661.489>
VStem: 131 143<269.281 455.766> 140 163<893.09 1073.88> 757 180<273.985 468.464 891.114 1080.29>
LayerCount: 2
Fore
SplineSet
435 1352 m 0xec
 501 1370 532 1378 555 1378 c 0
 576 1378 590 1371 618 1359 c 0
 845 1259 941 1138 941 951 c 0
 941 859 892 728 858 728 c 0
 848 728 822 714 798 696 c 0
 781 683 771 676 771 665 c 0
 771 650 790 629 836 582 c 0
 902 514 919 477 931 379 c 0
 935 348 937 324 937 304 c 0
 937 253 922 227 877 165 c 0
 777 28 696 -14 533 -14 c 0
 269 -14 131 114 131 354 c 2
 131 372 l 1xf4
 135 512 180 606 261 645 c 0
 304 665 326 693 326 716 c 0
 326 734 312 750 283 757 c 0
 256 764 210 805 182 846 c 0
 152 891 140 918 140 957 c 0
 140 974 142 992 146 1016 c 0
 181 1228 244 1301 435 1352 c 0xec
655 1126 m 0
 611 1151 561 1164 514 1164 c 0
 460 1164 410 1147 380 1114 c 0
 328 1056 303 1014 303 976 c 0xec
 303 963 306 950 312 937 c 0
 338 881 468 793 525 793 c 0
 588 793 694 856 733 916 c 0
 748 938 755 962 755 985 c 0
 755 1037 720 1089 655 1126 c 0
610 545 m 0
 577 562 534 575 512 575 c 0
 466 575 372 516 307 446 c 0
 284 421 274 394 274 366 c 0xf4
 274 275 386 182 529 182 c 0
 625 182 732 261 754 348 c 0
 756 356 757 364 757 372 c 0
 757 432 703 497 610 545 c 0
EndSplineSet
EndChar

StartChar: bn_paanch
Encoding: 80 2539 80
GlifName: bn_paanch
Width: 1246
VWidth: 0
GlyphClass: 2
Flags: W
HStem: -28 216<461.057 903> 1131 201<479 802.11>
VStem: 28 182<396.956 844.289> 613 181<460.785 733.445>
LayerCount: 2
Fore
SplineSet
564 1322 m 0
 596 1329 635 1332 677 1332 c 0
 860 1332 1113 1272 1198 1198 c 0
 1223 1177 1233 1143 1233 1109 c 0
 1233 1048 1199 985 1147 985 c 0
 1078 985 952 910 895 835 c 0
 827 745 794 673 794 606 c 0
 794 586 797 566 803 546 c 0
 848 396 980 235 1093 192 c 0
 1130 178 1148 159 1148 133 c 0
 1148 106 1128 72 1087 33 c 0
 1023 -28 1018 -28 788 -28 c 0
 569 -28 545 -25 418 37 c 0
 207 140 105 262 43 486 c 0
 33 522 28 551 28 584 c 0
 28 624 35 671 51 747 c 0
 94 958 130 1034 238 1141 c 0
 330 1232 445 1296 564 1322 c 0
803 1119 m 0
 785 1126 703 1131 624 1131 c 2
 479 1131 l 1
 366 1025 l 2
 274 938 249 899 231 814 c 0
 217 747 210 674 210 608 c 0
 210 529 220 459 240 421 c 0
 278 348 380 260 474 221 c 0
 519 202 626 188 687 188 c 0
 714 188 732 191 732 197 c 0
 732 202 709 248 681 298 c 0
 636 379 613 465 613 543 c 0
 613 585 619 625 633 661 c 0
 650 707 670 769 676 798 c 0
 682 828 720 889 762 937 c 0
 810 993 835 1040 835 1073 c 0
 835 1095 824 1111 803 1119 c 0
EndSplineSet
EndChar

StartChar: bn_chhoi
Encoding: 81 2540 81
GlifName: bn_chhoi
Width: 1486
VWidth: 0
GlyphClass: 2
Flags: W
HStem: -42 219<720.68 997.527> 668 203<908.027 1109.22>
VStem: 589 256<1157.97 1408.31> 662 167<854.499 1197.42> 1141 202<308.314 639.383>
LayerCount: 2
Fore
SplineSet
695 1438 m 0xe8
 718 1444 740 1450 746 1451 c 0
 748 1451 750 1452 752 1452 c 0
 801 1452 845 1335 845 1218 c 0xe8
 845 1198 844 1178 841 1159 c 0
 833 1101 829 1037 829 983 c 0
 829 916 835 864 846 854 c 0
 849 851 857 850 870 850 c 0
 893 850 929 854 966 862 c 0
 996 868 1022 871 1046 871 c 0
 1128 871 1183 834 1249 741 c 0
 1295 676 1316 616 1332 503 c 0
 1339 451 1343 415 1343 385 c 0
 1343 335 1332 300 1306 231 c 0
 1245 73 1193 22 1045 -20 c 0
 996 -34 949 -42 904 -42 c 0
 753 -42 612 41 406 238 c 0
 237 399 143 529 143 590 c 0
 143 614 158 627 188 627 c 0
 193 627 198 627 203 626 c 0
 234 622 269 601 281 578 c 0
 293 555 357 480 425 408 c 0
 569 256 714 177 854 177 c 0
 937 177 962 188 1045 261 c 0
 1137 342 1141 350 1141 463 c 0
 1141 607 1106 668 1019 668 c 0
 1013 668 1007 668 1000 667 c 0
 942 662 918 647 892 599 c 0
 869 556 840 535 796 531 c 0
 787 530 778 530 770 530 c 0
 682 530 667 591 662 856 c 0xd8
 658 1060 649 1131 618 1196 c 0
 598 1237 589 1275 589 1308 c 0
 589 1373 625 1421 695 1438 c 0xe8
EndSplineSet
EndChar

StartChar: bn_saat
Encoding: 82 2541 82
GlifName: bn_saat
Width: 1293
VWidth: 0
GlyphClass: 2
Flags: W
HStem: 658 196<396.925 622.844> 1210 243<523.325 784.187>
VStem: 215 143<893.383 1102.97> 867 195<894.5 1141.61>
LayerCount: 2
Fore
SplineSet
600 1438 m 0
 631 1448 663 1453 695 1453 c 0
 824 1453 952 1372 1011 1243 c 0
 1045 1170 1062 1059 1062 937 c 0
 1062 852 1054 762 1036 677 c 0
 1024 620 995 482 972 371 c 2
 930 169 l 1
 1005 107 l 2
 1054 66 1079 32 1079 3 c 0
 1079 -22 1060 -43 1024 -63 c 0
 992 -80 954 -88 916 -88 c 0
 845 -88 772 -60 735 -10 c 0
 709 25 697 45 697 86 c 0
 697 115 703 156 714 219 c 0
 747 412 803 654 828 713 c 0
 832 722 834 729 834 735 c 0
 834 748 825 755 808 755 c 0
 781 755 734 738 672 706 c 0
 612 675 530 658 446 658 c 0
 271 658 215 723 215 923 c 0
 215 1205 320 1346 600 1438 c 0
805 1154 m 0
 771 1177 691 1200 628 1206 c 0
 605 1208 586 1210 570 1210 c 0
 514 1210 489 1194 436 1144 c 0
 385 1096 358 1040 358 989 c 0
 358 952 372 918 402 891 c 0
 429 867 452 854 483 854 c 0
 527 854 586 879 696 934 c 0
 812 992 867 1036 867 1077 c 0
 867 1103 846 1127 805 1154 c 0
EndSplineSet
EndChar

StartChar: bn_aat
Encoding: 83 2542 83
GlifName: bn_aat
Width: 1551
VWidth: 0
GlyphClass: 2
Flags: W
HStem: -80 199<555.106 793.934> 523 232<454.266 860.928> 1254 260<138.044 251.395>
VStem: 227 197<407 1016.4> 271 161<760.847 1230.68> 903 178<226.249 475.47>
LayerCount: 2
Fore
SplineSet
134 1465 m 0xec
 152 1498 190 1514 230 1514 c 0
 268 1514 307 1500 334 1470 c 0
 393 1405 432 1203 432 966 c 2
 432 940 l 1xec
 429 713 l 1
 576 731 l 2
 658 741 820 752 940 755 c 0
 1060 758 1208 774 1272 789 c 0
 1316 799 1349 805 1373 805 c 0
 1424 805 1434 778 1434 708 c 0
 1434 593 1354 530 1183 510 c 0
 1084 498 1056 493 1056 469 c 0
 1056 462 1058 453 1062 443 c 0
 1075 407 1081 367 1081 325 c 0
 1081 177 1006 12 901 -40 c 0
 847 -67 790 -80 734 -80 c 0
 583 -80 435 12 348 174 c 0
 281 297 227 592 227 758 c 0xf4
 227 819 234 863 251 874 c 0
 262 881 271 943 271 1020 c 0
 271 1032 270 1043 270 1055 c 0
 265 1214 262 1223 193 1254 c 0
 140 1277 112 1326 112 1381 c 0
 112 1408 119 1437 134 1465 c 0xec
866 472 m 0
 839 511 812 523 745 523 c 2
 728 523 l 2
 673 522 605 516 579 510 c 0
 553 504 506 494 477 488 c 0
 441 480 424 453 424 411 c 0xf4
 424 369 441 313 477 251 c 0
 526 164 596 119 669 119 c 0
 728 119 789 148 843 207 c 0
 883 250 903 303 903 355 c 0
 903 396 891 436 866 472 c 0
EndSplineSet
EndChar

StartChar: bn_noi
Encoding: 84 2543 84
GlifName: bn_noi
Width: 1602
VWidth: 0
GlyphClass: 2
Flags: W
HStem: -78 471<842 1133> 635 275<531.917 737.618>
VStem: 138 336<374.513 576.331> 192 234<1316.65 1488.11> 1217 256<421.64 790.162>
LayerCount: 2
Fore
SplineSet
258 1502 m 0xd8
 294 1520 312 1529 327 1529 c 0
 344 1529 356 1518 383 1493 c 0
 407 1471 426 1429 426 1400 c 0xd8
 426 1312 482 1289 747 1268 c 0
 884 1257 1018 1238 1043 1225 c 0
 1069 1212 1120 1186 1161 1165 c 0
 1201 1144 1287 1059 1353 975 c 0
 1472 822 1472 822 1473 641 c 2
 1473 624 l 2
 1473 530 1465 431 1457 400 c 0
 1413 246 994 -78 844 -78 c 0
 840 -78 835 -78 831 -77 c 0
 788 -71 767 -40 767 3 c 0
 767 48 790 106 835 162 c 0
 887 226 912 287 912 344 c 0
 912 409 879 471 812 531 c 0
 734 602 676 635 626 635 c 0
 593 635 563 621 532 592 c 0
 500 562 474 508 474 472 c 0
 474 392 395 314 325 314 c 0
 317 314 309 315 301 317 c 0
 168 356 138 394 138 522 c 2
 138 528 l 2xe8
 139 685 174 749 306 837 c 0
 379 886 462 910 545 910 c 0
 628 910 712 886 788 837 c 0
 952 731 1055 610 1087 487 c 0
 1105 418 1113 393 1129 393 c 0
 1137 393 1146 399 1159 408 c 0
 1197 436 1217 506 1217 585 c 0
 1217 654 1202 730 1172 793 c 0
 1087 974 911 1073 672 1074 c 0
 554 1074 306 1155 306 1193 c 0
 306 1201 279 1239 244 1280 c 0
 209 1321 192 1363 192 1401 c 0
 192 1443 214 1480 258 1502 c 0xd8
EndSplineSet
EndChar

StartChar: bn_asamia_ra
Encoding: 85 2544 85
GlifName: bn_asamia_ra
Width: 1295
VWidth: 0
GlyphClass: 2
Flags: W
HStem: 1220 232<-31 491.887> 1232 201<139.113 836.045>
VStem: 856 209<1054.61 1199.04>
AnchorPoint: "abvm" 948 1208 basechar 0
AnchorPoint: "blwm" 1264 -212 basechar 0
LayerCount: 2
Fore
SplineSet
-48 1358 m 2xa0
 -31 1452 l 1xa0
 662 1433 l 2
 1237 1418 1395 1408 1395 1346 c 0
 1395 1327 1381 1304 1359 1274 c 0
 1334 1239 1284 1222 1206 1218 c 0
 1141 1215 1082 1196 1071 1175 c 0
 1067 1167 1065 1134 1065 1083 c 0
 1065 892 1092 461 1120 256 c 0
 1138 129 1158 84 1228 19 c 0
 1284 -34 1311 -72 1311 -105 c 0
 1311 -127 1299 -146 1276 -165 c 0
 1270 -170 1263 -173 1253 -173 c 0
 1219 -173 1156 -138 1028 -54 c 0
 912 22 748 121 667 163 c 0
 586 205 470 267 411 300 c 0
 204 416 141 448 93 463 c 0
 69 471 48 497 48 523 c 0
 48 572 181 659 559 863 c 0
 750 967 856 1065 856 1142 c 0
 856 1207 790 1232 570 1232 c 0x60
 500 1232 415 1230 311 1225 c 0
 236 1222 171 1220 118 1220 c 0
 17 1220 -43 1226 -50 1237 c 0
 -54 1244 -56 1259 -56 1279 c 0
 -56 1302 -53 1330 -48 1358 c 2xa0
904 660 m 0
 898 712 861 748 828 748 c 0
 813 748 800 741 790 725 c 0
 787 720 785 713 785 705 c 0
 785 660 838 587 877 587 c 0
 895 587 905 605 905 638 c 0
 905 645 905 652 904 660 c 0
788 477 m 0
 659 564 607 598 569 598 c 0
 546 598 528 585 503 564 c 0
 476 542 461 524 461 506 c 0
 461 473 512 439 635 369 c 0
 719 322 816 265 849 244 c 0
 871 230 885 221 894 221 c 0
 908 221 910 243 910 300 c 0
 910 383 893 406 788 477 c 0
EndSplineSet
EndChar

StartChar: bn_asamia_va
Encoding: 86 2545 86
GlifName: bn_asamia_va
Width: 1315
VWidth: 0
GlyphClass: 2
Flags: W
HStem: -301 136<972.932 1051.02> 51 160<819.651 924.335> 1187 260<-34 617.641> 1223 229<17.7522 736.155> 1248 207<191.728 841.799 1081 1184>
VStem: 863 218<1072.43 1225.17> 925 157<316.204 786.219>
AnchorPoint: "abvm" 984 1220 basechar 0
AnchorPoint: "blwm" 1273 -193 basechar 0
LayerCount: 2
Fore
SplineSet
83 273 m 1xc0
 172 258 l 1
 508 62 724 -8 1066 -165 c 0
 1079 -171 1085 -181 1085 -193 c 0
 1085 -235 1017 -301 966 -301 c 0
 961 -301 956 -300 951 -299 c 0
 609 -194 415 -73 102 45 c 0
 79 54 72 81 72 117 c 0
 72 163 83 223 83 273 c 1xc0
467 1452 m 2xd4
 663 1454 821 1455 945 1455 c 0
 1220 1455 1334 1450 1351 1439 c 0
 1362 1432 1372 1401 1372 1371 c 0
 1372 1301 1323 1273 1184 1259 c 2
 1081 1249 l 1xcc
 1082 814 l 2xca
 1083 574 1090 362 1098 342 c 0
 1106 322 1117 260 1121 203 c 0
 1128 112 1137 91 1203 23 c 0
 1252 -28 1278 -71 1278 -105 c 0
 1278 -133 1269 -156 1259 -156 c 0
 1227 -156 1100 -87 1074 -55 c 0
 1061 -39 1029 -24 1007 -24 c 0
 984 -24 944 -8 918 13 c 0
 892 34 860 51 849 51 c 0
 822 51 688 137 608 206 c 0
 574 235 537 259 526 259 c 0
 515 259 470 289 427 325 c 0
 384 361 340 391 331 391 c 0
 314 391 166 485 119 525 c 0
 113 531 109 536 109 543 c 0
 109 556 123 574 154 607 c 0
 186 640 250 686 295 709 c 0
 340 732 380 757 383 764 c 0
 392 783 652 956 673 956 c 0
 682 956 730 993 781 1038 c 0
 843 1094 863 1117 863 1145 c 0
 863 1152 862 1158 860 1166 c 0
 848 1218 800 1248 737 1248 c 0xcc
 719 1248 699 1245 679 1240 c 0
 642 1230 581 1223 536 1223 c 2
 527 1223 l 1
 501 1223 l 2xd4
 389 1223 183 1208 74 1192 c 0
 52 1189 33 1187 17 1187 c 0
 -11 1187 -30 1192 -42 1202 c 0
 -60 1217 -70 1255 -70 1299 c 0
 -70 1332 -65 1367 -53 1398 c 2
 -34 1447 l 1xe4
 467 1452 l 2xd4
910 745 m 0
 903 784 891 804 868 804 c 0
 839 804 794 772 722 705 c 0
 662 650 578 590 535 571 c 0
 480 547 452 518 452 491 c 0
 452 466 475 444 522 428 c 0
 559 416 630 376 684 339 c 0
 792 266 892 211 917 211 c 0
 921 211 923 213 923 215 c 0
 924 224 925 251 925 288 c 0xc2
 925 426 917 705 910 745 c 0
EndSplineSet
EndChar

StartChar: bn_takamark
Encoding: 87 2546 87
GlifName: bn_takamark
Width: 1232
VWidth: 0
GlyphClass: 4
Flags: W
HStem: -150 565
VStem: 476 652
LayerCount: 2
Fore
SplineSet
938 135 m 1
 1021 23 1128 -114 1128 -144 c 0
 1128 -148 1127 -150 1123 -150 c 0
 1103 -150 1025 -94 850 59 c 1
 752 114 694 138 600 199 c 0
 565 222 546 240 520 272 c 0
 498 299 476 316 476 351 c 0
 476 381 490 414 520 415 c 2
 527 415 l 2
 576 415 603 387 648 359 c 0
 680 339 688 316 718 293 c 0
 756 264 781 254 820 226 c 0
 867 192 892 170 938 135 c 1
EndSplineSet
EndChar

StartChar: bn_currency1
Encoding: 88 2548 88
GlifName: bn_currency1
Width: 1735
VWidth: 0
GlyphClass: 2
Flags: W
HStem: -69 190<163.282 308.675> 273 265<1343.5 1529.65>
VStem: 1298 282<325.332 491.669>
LayerCount: 2
Fore
SplineSet
1337 487 m 0
 1364 521 1399 538 1435 538 c 0
 1470 538 1506 522 1537 491 c 0
 1566 462 1580 444 1580 422 c 0
 1580 401 1568 377 1543 337 c 0
 1510 284 1492 273 1440 273 c 0
 1372 273 1298 341 1298 405 c 0
 1298 422 1316 460 1337 487 c 0
1417 1192 m 0
 1440 1209 1452 1217 1461 1217 c 0
 1471 1217 1478 1208 1496 1190 c 0
 1518 1168 1528 1137 1528 1102 c 0
 1528 1047 1503 980 1454 917 c 0
 1337 763 1309 721 1275 646 c 0
 1258 608 1231 575 1218 574 c 0
 1204 573 1152 521 1099 457 c 0
 1047 393 928 286 835 219 c 0
 674 103 359 -69 306 -69 c 0
 293 -69 273 -77 263 -86 c 0
 253 -95 217 -105 183 -109 c 0
 176 -110 169 -110 163 -110 c 0
 106 -110 84 -80 84 -6 c 0
 84 76 117 121 175 121 c 0
 203 121 236 128 246 136 c 0
 256 144 329 175 407 205 c 0
 485 235 575 279 606 302 c 0
 638 326 691 359 727 377 c 0
 816 422 1129 730 1175 817 c 0
 1196 857 1222 898 1234 908 c 0
 1246 918 1284 981 1317 1045 c 0
 1350 1109 1395 1177 1417 1192 c 0
EndSplineSet
EndChar

StartChar: bn_currency2
Encoding: 89 2549 89
GlifName: bn_currency2
Width: 1589
VWidth: 0
GlyphClass: 2
Flags: W
HStem: 264 299<1259.65 1438.91> 676 259<105.288 414.553>
VStem: 1219 286<331.445 496.249>
LayerCount: 2
Fore
SplineSet
1261 524 m 0
 1284 545 1306 563 1310 563 c 0
 1342 563 1478 513 1489 497 c 0
 1500 481 1505 463 1505 443 c 0
 1505 372 1444 285 1367 267 c 0
 1359 265 1351 264 1344 264 c 0
 1273 264 1219 344 1219 422 c 0
 1219 460 1232 497 1261 524 c 0
1217 1182 m 0
 1249 1210 1290 1224 1323 1224 c 0
 1349 1224 1371 1215 1378 1196 c 0
 1380 1190 1381 1183 1381 1175 c 0
 1381 1121 1327 1030 1238 937 c 0
 1122 816 1010 678 1010 658 c 0
 1010 650 950 568 875 475 c 0
 794 374 711 245 668 152 c 0
 577 -45 524 -101 426 -101 c 0
 348 -101 309 -78 309 -34 c 0
 309 5 341 61 404 129 c 0
 506 239 574 351 574 408 c 0
 574 458 527 548 476 595 c 0
 427 641 309 676 214 676 c 2
 199 676 l 2
 176 675 158 674 143 674 c 0
 86 674 78 684 63 724 c 0
 58 737 56 750 56 764 c 0
 56 786 62 810 73 838 c 0
 99 901 146 935 204 935 c 0
 222 935 241 932 261 925 c 0
 293 914 338 904 360 904 c 0
 506 904 652 753 697 554 c 2
 709 499 l 1
 760 563 l 2
 817 635 846 682 876 747 c 0
 887 772 905 791 916 791 c 0
 927 791 935 799 935 810 c 0
 935 829 968 871 1052 958 c 0
 1080 987 1116 1037 1134 1073 c 0
 1152 1109 1188 1157 1217 1182 c 0
EndSplineSet
EndChar

StartChar: bn_currency3
Encoding: 90 2550 90
GlifName: bn_currency3
Width: 1709
VWidth: 0
GlyphClass: 2
Flags: W
HStem: -33 213<514.667 788.473> 157 285<250.85 364.556> 499 284<1376.53 1515.08> 764 379<429.718 572.426>
VStem: 124 385<225 457.5> 238 246<745 893> 598 216<576.236 839> 1296 269<546.637 683.646> 1317 233<1058.91 1161.85>
LayerCount: 2
Fore
SplineSet
1398 1225 m 0x9a80
 1422 1258 1461 1277 1493 1277 c 0
 1512 1277 1529 1270 1538 1255 c 0
 1546 1242 1550 1224 1550 1204 c 0x9a80
 1550 1159 1530 1098 1490 1031 c 0
 1458 976 1433 925 1433 916 c 0
 1433 907 1419 890 1404 877 c 0
 1385 861 1376 842 1376 825 c 0
 1376 802 1393 783 1425 783 c 0
 1487 783 1565 704 1565 641 c 0
 1565 614 1544 570 1518 544 c 0
 1487 513 1451 499 1417 499 c 0
 1353 499 1296 548 1296 626 c 2
 1296 631 l 1
 1296 645 l 2
 1296 671 1293 684 1286 684 c 0
 1275 684 1255 649 1225 578 c 0
 1200 519 1152 432 1121 388 c 0
 1058 298 1050 286 972 155 c 0
 905 43 809 -33 733 -33 c 0xa3
 600 -33 479 9 399 83 c 0
 355 123 311 157 300 157 c 0
 289 157 266 177 250 202 c 0
 234 227 199 272 173 300 c 0
 139 337 124 374 124 425 c 0x4b
 124 490 126 497 173 497 c 2
 186 497 l 2
 220 496 269 484 295 469 c 0
 326 451 363 442 400 442 c 0
 446 442 493 456 534 481 c 0
 589 515 598 532 598 595 c 0
 598 690 564 764 519 764 c 0
 500 764 484 756 484 745 c 0
 484 733 473 726 450 726 c 0
 427 726 394 733 350 745 c 0
 282 764 238 823 238 893 c 0x56
 238 992 418 1143 536 1143 c 0
 585 1143 731 1026 731 986 c 0
 731 977 752 943 776 915 c 0
 804 881 814 861 814 817 c 0
 814 802 813 783 811 761 c 0
 806 706 790 624 778 582 c 0
 747 478 642 338 564 300 c 0
 526 282 509 261 509 242 c 0
 509 208 563 180 638 180 c 0
 665 180 694 184 725 192 c 0
 808 214 893 309 994 487 c 0
 1019 531 1049 577 1062 593 c 0
 1075 609 1113 677 1148 745 c 0
 1183 813 1225 889 1242 915 c 0
 1259 941 1293 1010 1317 1067 c 0
 1341 1124 1377 1196 1398 1225 c 0x9a80
EndSplineSet
EndChar

StartChar: bn_currency4
Encoding: 91 2551 91
GlifName: bn_currency4
Width: 1118
VWidth: 0
GlyphClass: 2
Flags: W
HStem: 455 284<661.223 858.553>
VStem: 155 211<0.858154 1063.85> 621 301<499.966 674.441>
LayerCount: 2
Fore
SplineSet
660 699 m 0
 686 727 718 739 752 739 c 0
 822 739 896 684 918 597 c 0
 921 586 922 576 922 568 c 0
 922 544 910 528 879 501 c 0
 844 471 789 455 740 455 c 0
 695 455 655 468 641 494 c 0
 628 519 621 550 621 581 c 0
 621 627 635 672 660 699 c 0
161 1154 m 0
 179 1183 193 1193 230 1193 c 0
 238 1193 247 1193 257 1192 c 0
 324 1187 328 1183 341 1101 c 0
 348 1054 358 790 363 513 c 0
 365 377 366 276 366 201 c 0
 366 37 360 -3 343 -22 c 0
 324 -43 287 -54 254 -54 c 0
 226 -54 201 -46 191 -31 c 0
 183 -19 166 244 155 551 c 0
 147 769 143 906 143 994 c 0
 143 1099 149 1134 161 1154 c 0
EndSplineSet
EndChar

StartChar: bn_currency1less
Encoding: 92 2552 92
GlifName: bn_currency1less
Width: 1334
VWidth: 0
GlyphClass: 2
Flags: W
HStem: 602 229<1001.69 1168.02>
VStem: 229 75<391.125 649.508> 772 123<74 629.782> 977 230<641.3 798.339>
LayerCount: 2
Fore
SplineSet
1044 819 m 0
 1058 827 1075 831 1093 831 c 0
 1123 831 1156 820 1182 799 c 0
 1200 785 1207 764 1207 742 c 0
 1207 680 1149 602 1088 602 c 0
 1081 602 1075 603 1068 605 c 0
 1000 626 977 651 977 705 c 0
 977 764 993 790 1044 819 c 0
293 1153 m 0
 309 1173 328 1182 345 1182 c 0
 361 1182 375 1174 381 1156 c 0
 382 1152 383 1141 383 1127 c 0
 383 1091 379 1028 371 962 c 0
 360 869 347 734 342 660 c 0
 337 586 324 498 314 462 c 0
 307 438 304 419 304 406 c 0
 304 391 308 384 317 384 c 0
 335 384 370 415 421 476 c 0
 601 692 821 909 858 909 c 0
 860 909 861 909 862 908 c 0
 878 892 895 496 895 264 c 0
 895 186 894 126 889 106 c 0
 882 77 873 67 847 67 c 0
 842 67 835 67 828 68 c 2
 778 74 l 1
 772 353 l 2
 769 507 759 633 750 633 c 0
 740 633 715 606 691 572 c 0
 627 479 421 245 346 179 c 0
 310 147 265 121 249 121 c 0
 222 121 186 183 186 219 c 0
 186 226 187 231 190 235 c 0
 200 251 217 468 229 737 c 0
 239 966 262 1117 293 1153 c 0
EndSplineSet
EndChar

StartChar: bn_currency16
Encoding: 93 2553 93
GlifName: bn_currency16
Width: 1065
VWidth: 0
GlyphClass: 2
Flags: W
HStem: 452 479<411.14 681.339>
VStem: 320 507<554.982 779.709>
LayerCount: 2
Fore
SplineSet
385 864 m 0
 428 910 483 931 540 931 c 0
 659 931 783 839 820 691 c 0
 825 673 827 657 827 643 c 0
 827 603 807 574 755 529 c 0
 696 478 602 452 519 452 c 0
 443 452 377 474 353 518 c 0
 331 559 320 611 320 664 c 0
 320 741 343 819 385 864 c 0
EndSplineSet
EndChar

StartChar: bn_isshar
Encoding: 94 2554 94
GlifName: bn_isshar
Width: 1206
VWidth: 0
GlyphClass: 2
Flags: W
HStem: 290 152<328.421 768.575> 563 94<443.011 572.492> 741 108<447.043 558.024>
VStem: 82 139<560.758 1030.17> 329 114<658.238 726.604>
LayerCount: 2
Fore
SplineSet
386 804 m 0
 423 835 466 849 505 849 c 0
 569 849 622 811 622 747 c 0
 622 712 599 690 577 690 c 0
 565 690 554 696 546 711 c 0
 535 730 513 741 493 741 c 0
 474 741 456 732 449 713 c 0
 445 703 443 694 443 687 c 0
 443 667 458 657 487 657 c 0
 497 657 509 659 523 661 c 0
 539 664 552 665 561 665 c 0
 579 665 585 660 585 649 c 0
 584 600 552 575 477 565 c 0
 465 563 453 563 443 563 c 0
 366 563 329 605 329 689 c 0
 329 742 342 767 386 804 c 0
96 1013 m 0
 108 1027 129 1034 150 1034 c 0
 176 1034 201 1024 208 1005 c 0
 214 989 220 929 221 872 c 0
 224 643 244 562 311 501 c 0
 368 449 388 442 485 442 c 0
 672 442 744 461 878 543 c 0
 995 615 1010 632 1055 737 c 0
 1086 810 1120 854 1139 854 c 0
 1147 854 1152 846 1154 828 c 0
 1155 816 1155 804 1155 792 c 0
 1155 527 914 317 572 292 c 0
 550 290 529 290 509 290 c 0
 264 290 129 402 101 632 c 0
 89 736 82 831 82 901 c 0
 82 960 87 1002 96 1013 c 0
EndSplineSet
EndChar

StartChar: uni09FD
Encoding: 95 2557 95
GlifName: uni09F_D_
Width: 977
VWidth: 0
GlyphClass: 2
Flags: W
HStem: 793 166<391.972 556.63> 1147 207<391.644 556.296>
VStem: 232 135<983.968 1117.49> 569 232<971.9 1133.82>
LayerCount: 2
Fore
SplineSet
351 1301 m 0
 403 1336 442 1354 490 1354 c 0
 539 1354 597 1335 689 1298 c 0
 751 1272 801 1160 801 1063 c 0
 801 1043 799 1024 795 1007 c 0
 769 904 608 793 484 793 c 0
 437 793 361 823 312 861 c 0
 250 909 232 938 232 1018 c 0
 232 1036 233 1056 234 1079 c 0
 242 1206 260 1240 351 1301 c 0
569 1053 m 0
 569 1113 527 1147 480 1147 c 0
 450 1147 417 1133 391 1102 c 0
 375 1082 367 1068 367 1053 c 0
 367 1038 375 1024 391 1004 c 0
 417 973 450 959 480 959 c 0
 527 959 569 993 569 1053 c 0
EndSplineSet
PickledDataWithLists: "(dp0
Vcom.fontlab.hintData
p1
(dp2
Vhhints
p3
(lp4
(dp5
Vposition
p6
I793
sVwidth
p7
I166
sa(dp8
g6
I1147
sg7
I207
sasVvhints
p9
(lp10
(dp11
g6
I232
sg7
I135
sa(dp12
g6
I569
sg7
I232
sass."
EndChar

StartChar: zwnj
Encoding: 96 8204 96
GlifName: zwnj
Width: 0
VWidth: 0
GlyphClass: 2
Flags: W
VStem: -98 181<136 1537>
LayerCount: 2
Fore
SplineSet
83 136 m 1
 -98 136 l 1
 -98 1537 l 1
 83 1537 l 1
 83 136 l 1
EndSplineSet
EndChar

StartChar: zwj
Encoding: 97 8205 97
GlifName: zwj
Width: 0
VWidth: 0
GlyphClass: 2
Flags: W
VStem: -86 178<174 908>
LayerCount: 2
Fore
SplineSet
440 908 m 1
 319 801 l 1
 86 908 l 1
 92 174 l 1
 -86 174 l 1
 -92 908 l 1
 -342 746 l 1
 -462 850 l 1
 -111 1082 l 1
 -381 1242 l 1
 -258 1346 l 1
 -2 1184 l 1
 274 1379 l 1
 398 1278 l 1
 107 1082 l 1
 440 908 l 1
EndSplineSet
EndChar

StartChar: uni25CC
Encoding: 98 9676 98
GlifName: uni25C_C_
Width: 1493
VWidth: 0
GlyphClass: 2
Flags: W
HStem: 1310 144<594 822>
VStem: 594 228<1310 1454>
LayerCount: 2
Fore
SplineSet
70 517 m 1
 14 746 l 1
 176 773 l 1
 232 547 l 1
 70 517 l 1
23 892 m 1
 90 1100 l 1
 247 1062 l 1
 182 856 l 1
 23 892 l 1
187 1238 m 1
 393 1379 l 1
 494 1266 l 1
 288 1125 l 1
 187 1238 l 1
587 1454 m 1
 822 1454 l 1
 822 1310 l 1
 594 1310 l 1
 587 1454 l 1
1045 1398 m 1
 1306 1238 l 1
 1210 1120 l 1
 958 1282 l 1
 1045 1398 l 1
1419 1054 m 1
 1472 758 l 1
 1310 739 l 1
 1255 1031 l 1
 1419 1054 l 1
1437 496 m 1
 1291 327 l 1
 1160 419 l 1
 1304 582 l 1
 1437 496 l 1
1066 166 m 1
 813 101 l 1
 767 241 l 1
 1024 302 l 1
 1066 166 l 1
477 138 m 1
 232 294 l 1
 327 416 l 1
 574 258 l 1
 477 138 l 1
EndSplineSet
EndChar

StartChar: bn_half_rra
Encoding: 99 -1 99
GlifName: bn_half_R_a
Width: 792
VWidth: 0
GlyphClass: 3
Flags: W
HStem: 289 171<520.709 663.291> 491 126<340.295 627.165> 1205 263<75.3609 538.942 697.392 888.806>
VStem: 510 164<298.501 450.526> 539 160<1099.97 1201.91> 680 126<670.249 841.578>
LayerCount: 2
Fore
SplineSet
510 375 m 0xf0
 510 421 546 460 592 460 c 0
 638 460 674 421 674 375 c 0
 674 328 638 289 592 289 c 0
 546 289 510 328 510 375 c 0xf0
7 1419 m 0
 42 1452 67 1468 237 1468 c 0
 319 1468 436 1464 603 1457 c 0
 883 1439 877 1431 918 1408 c 1
 972 1386 994 1369 994 1347 c 0
 994 1324 971 1296 936 1251 c 1
 924 1207 921 1205 867 1205 c 0
 716 1205 699 1202 699 1172 c 0xe8
 699 1154 683 1125 663 1107 c 0
 642 1088 628 1052 628 1018 c 0
 628 967 635 959 697 940 c 0
 770 918 806 861 806 767 c 0
 806 714 732 564 706 564 c 0
 695 564 672 548 654 528 c 0
 632 503 580 491 523 491 c 0
 463 491 395 504 345 531 c 0
 238 588 25 810 11 879 c 0
 9 889 8 898 8 906 c 0
 8 935 21 948 41 948 c 0
 79 948 142 899 185 816 c 0
 254 682 353 617 487 617 c 0
 565 617 590 625 631 665 c 0
 665 697 680 738 680 772 c 0xe4
 680 812 659 844 621 844 c 0
 613 844 605 843 596 840 c 0
 590 838 582 837 572 837 c 0
 554 837 532 840 516 847 c 0
 484 859 468 881 468 922 c 0
 468 957 480 1008 503 1080 c 0
 523 1142 539 1195 539 1198 c 0xe8
 539 1201 460 1205 366 1205 c 0
 196 1205 123 1183 73 1183 c 0
 46 1183 26 1190 0 1209 c 0
 -36 1236 -64 1264 -64 1302 c 0
 -64 1333 -44 1371 7 1419 c 0
EndSplineSet
Ligature2: "halfHalfFormsinBengali2lookup6 subtable" bn_rra bn_hasanta
EndChar

StartChar: bn_half_rrha
Encoding: 100 -1 100
GlifName: bn_half_R_ha
Width: 695
VWidth: 0
GlyphClass: 3
Flags: W
HStem: 433 171<439.709 582.291> 685 116<427.142 611.169> 1060 83<430.832 582.641> 1270 136<193 276 395.547 715.371>
VStem: 279 101<866.173 1251.46> 429 164<442.501 594.526> 637 139<829.14 1013.24>
LayerCount: 2
Fore
SplineSet
15 1387 m 0
 33 1400 170 1406 318 1406 c 0
 500 1406 699 1397 715 1381 c 0
 723 1373 726 1366 726 1355 c 0
 726 1344 723 1331 715 1314 c 0
 699 1277 691 1269 612 1269 c 0
 596 1269 577 1269 555 1270 c 2
 530 1270 l 2
 460 1270 406 1263 395 1252 c 0
 384 1241 380 1196 380 1139 c 0
 380 1041 394 909 416 864 c 0
 436 823 470 801 510 801 c 0
 536 801 564 810 591 828 c 0
 627 852 637 874 637 928 c 0
 637 993 632 1000 558 1029 c 0
 514 1046 464 1060 446 1060 c 0
 426 1060 416 1066 416 1076 c 0
 416 1088 431 1106 458 1124 c 0
 478 1137 500 1143 533 1143 c 0
 551 1143 572 1141 598 1138 c 0
 731 1121 776 1065 776 918 c 0
 776 823 772 812 712 762 c 0
 651 712 566 685 489 685 c 0
 441 685 397 695 363 717 c 0
 299 758 282 824 279 1050 c 2
 276 1256 l 1
 193 1261 l 2
 67 1269 29 1282 5 1325 c 0
 -3 1339 -7 1349 -7 1357 c 0
 -7 1368 0 1376 15 1387 c 0
429 519 m 0
 429 565 465 604 511 604 c 0
 557 604 593 565 593 519 c 0
 593 472 557 433 511 433 c 0
 465 433 429 472 429 519 c 0
EndSplineSet
Ligature2: "halfHalfFormsinBengali2lookup6 subtable" bn_rrha bn_hasanta
EndChar

StartChar: bn_half_yya
Encoding: 101 -1 101
GlifName: bn_half_Y_a
Width: 640
VWidth: 0
GlyphClass: 3
Flags: W
HStem: 346 171<211.709 354.291> 430 118<674.782 760.809> 1294 105<211.391 520.718> 1304 138<209.026 424.105 425.888 460.527 541.182 769.958>
VStem: -15 224<1199.22 1289.6> 201 164<355.501 507.526> 218 149<948.446 1096.67> 531 113<685.624 1283>
LayerCount: 2
Fore
SplineSet
201 432 m 0x85
 201 478 237 517 283 517 c 0
 329 517 365 478 365 432 c 0
 365 385 329 346 283 346 c 0
 237 346 201 385 201 432 c 0x85
-15 1329 m 2x5b
 -15 1442 l 1
 123 1442 l 2x5b
 199 1442 301 1429 351 1413 c 0
 381 1403 406 1399 425 1399 c 0x2b
 444 1399 459 1403 467 1413 c 0
 481 1429 556 1442 632 1442 c 0
 763 1442 771 1438 771 1370 c 0
 771 1320 762 1304 730 1304 c 0
 725 1304 719 1304 712 1305 c 0
 705 1306 699 1306 694 1306 c 0
 655 1306 652 1274 646 1081 c 0
 645 1034 644 990 644 948 c 0
 644 705 668 548 706 548 c 0
 743 548 767 519 767 481 c 0
 767 470 765 459 761 448 c 0
 757 436 748 430 731 430 c 0
 706 430 661 444 583 475 c 0
 297 588 11 745 11 790 c 0
 11 813 55 854 110 884 c 0
 165 914 212 960 217 989 c 0
 218 994 218 1000 218 1005 c 0
 218 1068 155 1141 61 1183 c 0
 -5 1213 -15 1231 -15 1329 c 2x5b
530 998 m 2
 522 1283 l 1
 373 1292 l 2
 351 1293 332 1294 315 1294 c 0x2b
 244 1294 209 1283 209 1258 c 0
 209 1242 223 1221 250 1194 c 0
 315 1129 367 1025 367 968 c 0
 367 958 365 950 362 943 c 0
 352 925 320 879 292 844 c 2
 239 779 l 1
 364 718 l 2
 418 692 463 678 490 678 c 0
 501 678 509 680 513 685 c 0
 524 697 531 793 531 912 c 0
 531 940 531 969 530 998 c 2
EndSplineSet
Ligature2: "halfHalfFormsinBengali2lookup6 subtable" bn_yya bn_hasanta
EndChar

StartChar: bn_half_asamese_ra
Encoding: 102 -1 102
GlifName: bn_half_asamese_ra
Width: 846
VWidth: 0
GlyphClass: 3
Flags: W
HStem: 1250 213<6 537.884 667.349 839.286>
VStem: 538 126<1128.14 1222.76>
LayerCount: 2
Fore
SplineSet
-4 1407 m 1
 6 1463 l 1
 422 1452 l 2
 767 1443 862 1436 862 1399 c 0
 862 1368 853 1331 840 1282 c 1
 825 1261 795 1251 748 1249 c 0
 709 1247 674 1236 667 1223 c 0
 665 1218 664 1199 664 1168 c 0
 664 1053 680 794 697 671 c 0
 708 595 720 568 762 529 c 0
 796 497 811 475 811 455 c 0
 811 442 804 430 790 419 c 0
 786 416 783 414 777 414 c 0
 757 414 719 435 642 485 c 0
 572 531 474 591 425 616 c 0
 376 641 306 678 271 698 c 0
 147 768 110 787 81 796 c 0
 67 801 54 816 54 832 c 0
 54 861 133 914 360 1036 c 0
 475 1098 538 1157 538 1203 c 0
 538 1242 499 1257 367 1257 c 0
 325 1257 273 1256 211 1253 c 0
 166 1251 128 1250 96 1250 c 0
 35 1250 -1 1253 -5 1260 c 0
 -7 1264 -9 1273 -9 1285 c 0
 -9 1320 -7 1364 -4 1407 c 1
567 914 m 0
 563 945 542 967 522 967 c 0
 513 967 505 963 499 953 c 0
 497 950 496 946 496 941 c 0
 496 914 528 870 551 870 c 0
 562 870 568 881 568 901 c 0
 568 905 568 909 567 914 c 0
498 804 m 0
 421 856 389 877 366 877 c 0
 352 877 342 869 327 856 c 0
 311 843 301 832 301 821 c 0
 301 801 332 781 406 739 c 0
 456 711 514 677 534 664 c 0
 547 656 556 650 561 650 c 0
 569 650 571 664 571 698 c 0
 571 748 561 761 498 804 c 0
EndSplineSet
EndChar

StartChar: bn_half_asamese_va
Encoding: 103 -1 103
GlifName: bn_half_asamese_va
Width: 833
VWidth: 0
GlyphClass: 3
Flags: W
HStem: 332 82<581.037 670.706> 543 96<491.402 583.888> 1225 228<9 471.484> 1247 209<9 39.2068 40.4695 471.484> 1262 196<40.4695 543.444 678 846.219>
VStem: 547 131<1140.65 1211.77> 584 95<639.798 994.991>
LayerCount: 2
Fore
SplineSet
79 677 m 1xc0
 133 668 l 1
 335 550 464 508 669 414 c 0
 677 410 680 404 680 397 c 0
 680 372 640 332 609 332 c 0
 606 332 603 332 600 333 c 0
 395 396 279 469 91 540 c 0
 77 545 73 561 73 583 c 0
 73 611 79 647 79 677 c 1xc0
310 1456 m 2xd4
 428 1457 522 1458 596 1458 c 0
 761 1458 830 1455 840 1448 c 1
 847 1436 853 1385 853 1335 c 0
 853 1293 823 1276 740 1268 c 2
 678 1262 l 1xcc
 679 1001 l 2xca
 680 857 683 730 688 718 c 0
 693 706 700 669 702 635 c 0
 706 580 711 568 751 527 c 0
 780 496 796 470 796 450 c 0
 796 433 791 419 785 419 c 0
 766 419 690 461 674 480 c 0
 666 490 647 498 634 498 c 0
 620 498 596 508 580 521 c 0
 564 534 546 543 539 543 c 0
 523 543 442 595 394 636 c 0
 374 653 352 668 345 668 c 0
 338 668 312 686 286 708 c 0
 260 730 233 747 228 747 c 0
 218 747 129 804 101 828 c 0
 97 832 95 835 95 839 c 0
 95 847 103 857 122 877 c 0
 141 897 179 924 206 938 c 0
 233 952 257 967 259 971 c 0
 264 982 420 1086 433 1086 c 0
 438 1086 467 1109 498 1136 c 0
 535 1170 547 1183 547 1200 c 0
 547 1204 546 1207 545 1212 c 0
 538 1243 510 1262 472 1262 c 0xcc
 461 1262 449 1260 437 1257 c 0
 415 1251 378 1247 351 1247 c 2
 346 1247 l 1
 330 1247 l 2xd4
 263 1247 139 1238 74 1228 c 0
 61 1226 50 1225 40 1225 c 0
 23 1225 11 1228 4 1234 c 0
 -7 1243 -13 1266 -13 1292 c 0
 -13 1336 -9 1383 -2 1424 c 1
 9 1453 l 1xe4
 310 1456 l 2xd4
575 960 m 0
 571 983 564 995 550 995 c 0
 533 995 506 976 463 936 c 0
 427 903 376 866 350 855 c 0
 317 841 301 823 301 807 c 0
 301 792 315 780 343 770 c 0
 365 763 408 738 440 716 c 0
 505 672 565 639 580 639 c 0
 582 639 583 641 583 642 c 0
 584 647 584 664 584 686 c 0xc2
 584 769 579 936 575 960 c 0
EndSplineSet
EndChar

StartChar: bn_ka_sa
Encoding: 141 -1 141
GlifName: bn_k_sa
Width: 2554
VWidth: 0
GlyphClass: 3
Flags: W
HStem: 584 152<442.975 683> 672 160<1149.4 1280.97> 805 189<1914.87 2157.43> 983 175<753.133 866.02> 1201 240<-17.2896 136.647> 1243 186<2458.72 2566.63> 1263 183<104.478 531.981>
VStem: 555 159<736.954 946.448> 871 254<843.078 981.276> 1589 149<896.189 1158.48> 2232 249<34.0029 570.402> 2304 133<922.988 1230.54>
AnchorPoint: "abvm" 1656 1238 basechar 0
AnchorPoint: "blwm" 2214 -81 basechar 0
LayerCount: 2
Fore
SplineSet
555 883 m 0x81c0
 555 941 550 964 516 964 c 0
 496 964 466 957 422 943 c 0
 381 931 360 916 360 894 c 0
 360 872 381 843 422 801 c 0
 463 758 492 736 513 736 c 0
 543 736 555 783 555 883 c 0x81c0
2300 1087 m 0
 2292 1164 2278 1232 2267 1240 c 0
 2259 1246 2190 1250 2098 1250 c 0
 2064 1250 2028 1249 1990 1248 c 2
 1733 1240 l 1
 1738 1068 l 2
 1741 974 1746 896 1750 896 c 0
 1754 896 1801 919 1851 946 c 0
 1911 978 1980 994 2042 994 c 0
 2097 994 2147 981 2182 956 c 0
 2213 934 2237 922 2256 922 c 0
 2288 922 2304 954 2304 1020 c 0x21d0
 2304 1039 2303 1062 2300 1087 c 0
1095 1429 m 0x05e0
 1099 1441 1442 1448 1793 1448 c 0
 2144 1448 2504 1441 2543 1429 c 0
 2559 1424 2572 1381 2572 1331 c 0
 2572 1259 2563 1243 2524 1243 c 0
 2463 1243 2437 1198 2437 1028 c 0x05d0
 2437 946 2443 835 2454 685 c 0
 2471 447 2481 308 2481 220 c 0
 2481 104 2464 74 2425 15 c 0
 2382 -50 2353 -82 2328 -82 c 0
 2307 -82 2290 -60 2269 -18 c 0
 2244 33 2232 75 2232 172 c 0
 2232 235 2237 322 2246 449 c 0
 2249 498 2251 538 2251 572 c 0
 2251 705 2220 736 2110 783 c 0
 2076 798 2054 805 2032 805 c 0x25e0
 2004 805 1977 793 1924 766 c 0
 1854 730 1811 688 1788 630 c 0
 1754 545 1708 513 1601 513 c 0
 1576 513 1548 515 1517 518 c 0
 1416 528 1368 547 1312 601 c 0
 1271 640 1220 672 1197 672 c 0
 1164 672 1133 734 1133 782 c 0
 1133 796 1135 809 1141 819 c 0
 1147 828 1163 832 1185 832 c 0x41e0
 1224 832 1279 819 1310 796 c 0
 1323 786 1369 765 1412 748 c 0
 1441 736 1461 729 1476 729 c 0
 1498 729 1513 743 1539 776 c 0
 1572 817 1589 890 1589 965 c 0
 1589 1041 1572 1119 1538 1168 c 0
 1492 1234 1474 1241 1315 1248 c 2
 1072 1255 l 1
 1073 1270 l 1
 1036 1251 979 1239 906 1239 c 0
 891 1239 876 1239 860 1240 c 0
 848 1241 837 1241 827 1241 c 0
 781 1241 750 1234 743 1221 c 0
 740 1217 739 1212 739 1207 c 0
 739 1182 776 1158 822 1158 c 0
 900 1157 1028 1072 1082 985 c 0
 1110 939 1125 904 1125 870 c 0
 1125 829 1104 788 1061 734 c 0
 1017 678 995 669 913 669 c 0
 814 669 754 709 754 755 c 0
 754 781 773 810 814 834 c 0
 852 857 871 893 871 924 c 0
 871 953 854 978 820 983 c 1
 815 983 l 2
 769 983 714 897 714 819 c 0
 714 796 703 752 690 722 c 0
 681 701 676 685 676 670 c 0
 676 655 681 642 690 626 c 0
 697 614 701 605 701 598 c 0
 701 589 693 584 673 584 c 0
 647 584 602 591 529 604 c 0
 437 620 399 640 331 709 c 0
 284 756 209 823 161 860 c 0
 113 897 70 941 63 960 c 0
 61 965 61 969 61 974 c 0
 61 1018 128 1069 213 1084 c 0
 253 1091 340 1115 406 1136 c 0
 498 1165 526 1185 531 1219 c 0
 532 1224 532 1229 532 1233 c 0
 532 1262 506 1263 339 1263 c 0x93e0
 188 1263 136 1255 117 1231 c 0
 102 1211 74 1201 46 1201 c 0
 22 1201 -3 1209 -18 1225 c 0
 -33 1242 -41 1290 -41 1337 c 0
 -41 1386 -32 1433 -16 1441 c 0x09e0
 -9 1444 74 1446 198 1446 c 0x03e0
 292 1446 410 1445 535 1443 c 0
 996 1435 1056 1432 1088 1399 c 1
 1090 1412 1093 1423 1095 1429 c 0x05e0
EndSplineSet
LCarets2: 2 0 0
Ligature2: "akhnAkhandFormsinBengali2lookup2 subtable" bn_ka bn_hasanta bn_sa
EndChar

StartChar: bn_ka_na
Encoding: 142 -1 142
GlifName: bn_k_na
Width: 1348
VWidth: 0
GlyphClass: 3
Flags: W
HStem: 65 437<173.046 323.678> 1251 209<87.4233 618.76>
VStem: 563 257<-355.098 4.55736>
AnchorPoint: "abvm" 744 1250 basechar 0
AnchorPoint: "blwm" 750 -471 basechar 0
LayerCount: 2
Fore
SplineSet
-19 1433 m 0
 0 1452 85 1460 341 1460 c 0
 415 1460 504 1459 609 1458 c 0
 1109 1453 1218 1446 1284 1412 c 0
 1328 1390 1363 1358 1363 1340 c 0
 1363 1295 1292 1233 1241 1233 c 0
 1217 1233 1188 1222 1180 1209 c 0
 1175 1201 1168 1196 1158 1196 c 0
 1148 1196 1135 1201 1119 1209 c 0
 1089 1225 1037 1232 989 1232 c 0
 941 1232 899 1225 889 1209 c 0
 887 1206 886 1203 886 1200 c 0
 886 1167 977 1117 1073 1101 c 0
 1132 1091 1194 1050 1275 967 c 0
 1356 884 1381 852 1381 811 c 0
 1381 800 1379 789 1376 775 c 0
 1352 668 1222 553 1115 546 c 1
 1100 546 l 2
 1055 546 1008 557 988 573 c 0
 963 594 950 630 950 667 c 0
 950 709 966 752 997 780 c 0
 1031 811 1046 839 1046 859 c 0
 1046 878 1033 889 1012 889 c 0
 990 889 959 877 924 848 c 0
 888 818 870 767 860 672 c 0
 853 599 830 492 810 437 c 0
 792 388 783 335 783 271 c 0
 783 243 785 213 788 180 c 0
 809 -39 820 -158 820 -228 c 0
 820 -313 804 -328 766 -365 c 0
 732 -399 707 -416 684 -416 c 0
 658 -416 634 -394 599 -347 c 0
 574 -314 563 -294 563 -263 c 0
 563 -241 569 -214 579 -174 c 0
 597 -104 606 -45 606 7 c 0
 606 67 594 117 570 163 c 0
 546 208 520 231 490 231 c 0
 459 231 425 207 384 160 c 0
 347 117 285 82 229 72 c 0
 205 68 186 65 171 65 c 0
 136 65 119 78 93 109 c 0
 61 149 45 195 45 243 c 0
 45 330 97 419 190 469 c 0
 231 491 257 502 287 502 c 0
 325 502 370 484 461 443 c 0
 495 428 539 397 562 372 c 0
 586 345 607 332 623 332 c 0
 644 332 656 354 656 397 c 0
 656 455 636 474 529 526 c 0
 458 560 343 644 267 715 c 0
 191 786 125 843 115 843 c 0
 105 843 86 865 70 894 c 0
 63 907 60 918 60 929 c 0
 60 974 117 1007 229 1025 c 0
 383 1049 632 1145 632 1179 c 0
 632 1224 549 1251 417 1251 c 0
 386 1251 351 1249 315 1246 c 0
 215 1238 107 1217 77 1202 c 0
 58 1192 44 1187 33 1187 c 0
 16 1187 5 1198 -13 1221 c 0
 -37 1253 -49 1298 -49 1340 c 0
 -49 1378 -39 1413 -19 1433 c 0
651 843 m 0
 620 843 555 850 504 859 c 0
 482 863 464 865 450 865 c 0
 422 865 412 857 412 840 c 0
 412 788 439 762 537 717 c 0
 579 698 601 687 617 687 c 0
 635 687 645 701 666 733 c 0
 691 770 703 795 703 813 c 0
 703 834 686 843 651 843 c 0
EndSplineSet
Ligature2: "akhnAkhandFormsinBengali2lookup2 subtable" bn_ka bn_hasanta bn_na
EndChar

StartChar: bn_ka_la
Encoding: 143 -1 143
GlifName: bn_k_la
Width: 1413
VWidth: 0
GlyphClass: 3
Flags: W
HStem: 24 230<408.265 583.759> 41 253<-198 20.8641> 657 107<1020.56 1053.88> 1242 223<40.5607 756.816 1013.67 1154.63> 1243 197<1018.2 1400.45>
VStem: -383 259<-85.7797 32.3927> 305 282<813.867 940.5> 679 154<219.512 439.768> 815 205<766.366 872.711> 1177 235<766.535 897.58>
AnchorPoint: "abvm" 894 1226 basechar 0
AnchorPoint: "blwm" 828 -747 basechar 0
LayerCount: 2
Fore
SplineSet
-4 1444 m 0xb740
 8 1458 294 1465 601 1465 c 0xb740
 952 1465 1332 1456 1369 1440 c 0
 1392 1430 1412 1381 1412 1333 c 0
 1412 1251 1398 1244 1238 1243 c 0
 1084 1242 1002 1212 1002 1174 c 0
 1002 1143 1057 1108 1173 1080 c 0
 1287 1053 1412 892 1412 771 c 0
 1412 732 1383 658 1351 614 c 0
 1316 565 1291 545 1246 545 c 0
 1226 545 1202 549 1171 556 c 0
 1106 570 1052 599 1052 619 c 0
 1052 645 1044 657 1034 657 c 0
 1015 657 987 620 981 568 c 0
 975 522 937 470 895 449 c 0
 850 427 833 407 833 364 c 0
 833 347 835 327 840 301 c 0
 851 240 867 8 877 -218 c 0
 882 -331 885 -414 885 -477 c 0
 885 -607 873 -648 843 -676 c 0
 822 -696 804 -706 787 -706 c 0
 732 -706 698 -599 680 -375 c 0
 657 -101 599 24 496 24 c 0xaf40
 422 24 366 -50 366 -146 c 0
 366 -194 339 -247 305 -268 c 0
 291 -276 278 -281 266 -281 c 0
 234 -281 202 -251 142 -174 c 0
 84 -100 39 -30 39 -13 c 0
 39 17 -5 41 -47 41 c 0
 -59 41 -71 39 -82 35 c 0
 -110 24 -124 -6 -124 -34 c 0
 -124 -62 -110 -87 -82 -87 c 0
 -17 -87 15 -129 15 -181 c 0
 15 -237 -21 -304 -92 -347 c 0
 -119 -364 -146 -372 -172 -372 c 0
 -236 -372 -294 -322 -336 -227 c 0
 -368 -154 -383 -84 -383 -19 c 0
 -383 161 -270 294 -126 294 c 0x6740
 -63 294 6 268 75 211 c 0
 133 162 164 139 191 139 c 0
 215 139 236 158 271 194 c 0
 309 233 387 254 469 254 c 0
 520 254 572 246 617 229 c 0
 636 222 649 217 659 217 c 0
 673 217 679 226 679 252 c 0
 679 272 676 302 670 344 c 0
 654 457 614 523 477 664 c 0
 361 782 305 864 305 919 c 0
 305 962 339 989 408 1005 c 0
 673 1066 758 1108 758 1178 c 0
 758 1228 744 1242 589 1242 c 0
 542 1242 482 1241 406 1239 c 0
 370 1238 334 1238 300 1238 c 0
 152 1238 32 1246 13 1259 c 0
 -12 1277 -26 1323 -26 1367 c 0
 -26 1398 -19 1427 -4 1444 c 0xb740
805 771 m 0
 811 808 815 836 815 857 c 0x26c0
 815 891 804 904 776 904 c 0
 754 904 722 897 676 884 c 0
 616 868 587 849 587 818 c 0
 587 790 611 750 658 693 c 0
 704 638 732 607 751 607 c 0
 776 607 787 658 805 771 c 0
1176 826 m 0
 1168 875 1146 901 1118 901 c 0
 1100 901 1079 890 1059 867 c 0
 1033 838 1020 815 1020 799 c 0
 1020 775 1047 764 1101 764 c 0
 1155 764 1177 776 1177 810 c 0
 1177 815 1177 820 1176 826 c 0
EndSplineSet
Ligature2: "akhnAkhandFormsinBengali2lookup2 subtable" bn_ka bn_hasanta bn_la
EndChar

StartChar: bn_ka_ta
Encoding: 144 -1 144
GlifName: bn_k_ta
Width: 1785
VWidth: 0
GlyphClass: 3
Flags: W
HStem: -43 204<701.746 1080.47> 476 353<854.096 1138.6> 860 179<1397.79 1599.5> 860 142<1398.18 1576.59> 931 237<297.51 491.261> 1124 321<654.486 1394.49>
VStem: 781 563<545.883 786.144> 1187 208<261.158 493.709> 1599 157<225.712 849.143>
AnchorPoint: "abvm" 882 1248 basechar 0
AnchorPoint: "blwm" 1116 -81 basechar 0
LayerCount: 2
Fore
SplineSet
18 1397 m 0xca80
 57 1434 268 1445 951 1445 c 0
 1808 1445 1834 1443 1834 1371 c 0
 1834 1303 1806 1296 1492 1286 c 0
 1305 1280 1152 1263 1152 1249 c 0
 1152 1235 1200 1169 1256 1103 c 0
 1319 1029 1347 1002 1394 1002 c 0xd680
 1418 1002 1446 1009 1485 1020 c 0
 1527 1032 1556 1039 1580 1039 c 0
 1619 1039 1642 1021 1677 979 c 0
 1713 936 1743 866 1745 822 c 0
 1747 778 1752 661 1756 558 c 0
 1760 455 1776 321 1793 254 c 0
 1802 218 1807 192 1807 172 c 0
 1807 136 1791 121 1756 108 c 0
 1742 103 1729 100 1717 100 c 0
 1636 100 1601 227 1599 510 c 0
 1598 676 1584 823 1568 839 c 0
 1554 853 1534 860 1511 860 c 0
 1447 860 1365 809 1349 743 c 0
 1345 729 1344 712 1344 695 c 0xe280
 1344 655 1353 611 1370 580 c 0
 1386 550 1395 512 1395 458 c 0
 1395 389 1381 293 1353 152 c 0
 1345 110 1287 48 1221 9 c 0
 1161 -26 1073 -43 977 -43 c 0
 846 -43 700 -11 593 49 c 0
 527 86 439 135 393 161 c 0
 348 187 243 282 157 374 c 0
 63 475 27 523 27 565 c 0
 27 581 32 597 42 614 c 0
 64 655 97 687 114 687 c 0
 131 687 216 604 303 501 c 0
 390 398 527 280 611 237 c 0
 712 185 812 161 900 161 c 0
 1066 161 1187 247 1187 399 c 0xe180
 1187 471 1186 494 1144 494 c 0
 1125 494 1097 489 1058 482 c 0
 1037 478 1016 476 996 476 c 0
 872 476 781 553 781 669 c 0
 781 774 844 829 967 829 c 0
 979 829 993 828 1006 827 c 0
 1025 825 1041 824 1055 824 c 0
 1118 824 1136 843 1143 896 c 0
 1144 901 1144 907 1144 912 c 0
 1144 962 1108 1004 1021 1058 c 0
 950 1102 878 1124 808 1124 c 0xe680
 715 1124 626 1085 551 1009 c 0
 498 955 452 931 399 931 c 0
 387 931 375 933 362 935 c 0
 307 945 264 974 264 1001 c 0
 264 1097 309 1168 371 1168 c 0
 404 1168 455 1185 486 1208 c 0
 495 1214 499 1220 499 1224 c 0
 499 1232 481 1236 443 1236 c 0
 410 1236 361 1233 294 1227 c 0
 223 1221 171 1217 133 1217 c 0
 52 1217 31 1234 7 1277 c 0
 -5 1300 -12 1319 -12 1337 c 0
 -12 1359 -2 1378 18 1397 c 0xca80
EndSplineSet
LCarets2: 2 0 0
Substitution2: "ss01StyleSet1inBengali2lookup11 subtable" bn_ka_ta.alt
Ligature2: "akhnAkhandFormsinBengali2lookup2 subtable" bn_ka bn_hasanta bn_ta
EndChar

StartChar: bn_ka_ra
Encoding: 145 -1 145
GlifName: bn_k_ra
Width: 1498
VWidth: 0
GlyphClass: 3
Flags: W
HStem: 10 199<549.43 731.131> 479 188<1167.84 1356> 853 184<978.323 1250.26> 979 443<480.884 619.003>
VStem: 12 456<795.81 972.32> 733 456<-186.518 9.23911> 745 168<209.28 375.191> 1302 178<667.054 800.648>
AnchorPoint: "abvm" 648 1218 basechar 0
AnchorPoint: "blwm" 1014 -285 basechar 0
LayerCount: 2
Fore
SplineSet
11 1365 m 0xdb
 49 1411 163 1422 599 1422 c 0xdb
 895 1422 1219 1411 1317 1398 c 0
 1450 1380 1486 1365 1486 1316 c 0
 1486 1309 1485 1301 1484 1293 c 0
 1473 1219 1448 1214 1126 1214 c 0
 936 1214 767 1202 752 1189 c 0
 747 1184 744 1175 744 1164 c 0
 744 1144 752 1117 766 1090 c 0
 790 1045 816 1028 889 1028 c 0
 916 1028 949 1030 991 1034 c 0
 1014 1036 1036 1037 1058 1037 c 0
 1306 1037 1480 899 1480 716 c 0
 1480 675 1471 632 1453 588 c 0
 1417 502 1397 479 1315 479 c 0
 1296 479 1275 480 1249 482 c 0
 1120 491 1084 511 1042 599 c 0
 1022 640 1011 692 1011 730 c 0
 1011 744 1012 757 1016 766 c 0
 1025 790 1034 802 1047 802 c 0
 1063 802 1086 784 1128 745 c 0
 1182 694 1232 667 1264 667 c 0
 1288 667 1302 682 1302 713 c 0
 1302 793 1219 853 1109 853 c 0
 972 853 932 793 920 569 c 0
 916 489 913 426 913 375 c 0xeb
 913 206 943 175 1044 130 c 0
 1138 88 1189 8 1189 -71 c 0
 1189 -129 1162 -185 1105 -225 c 0
 1050 -264 991 -282 937 -282 c 0
 825 -282 733 -205 733 -80 c 0xed
 733 -14 727 10 695 10 c 0
 683 10 667 6 646 0 c 0
 409 -73 264 -110 174 -110 c 0
 81 -110 46 -71 26 8 c 0
 19 36 14 59 14 79 c 0
 14 175 125 187 616 204 c 2
 745 209 l 1
 718 522 l 2
 704 693 667 872 637 918 c 0
 610 960 574 979 542 979 c 0
 502 979 468 947 468 888 c 0
 468 785 314 703 187 703 c 0
 136 703 89 716 58 747 c 0
 28 777 12 875 12 965 c 0
 12 1046 25 1121 51 1138 c 0
 61 1145 66 1154 66 1165 c 0
 66 1183 53 1208 28 1236 c 0
 -2 1270 -16 1291 -16 1311 c 0
 -16 1327 -7 1344 11 1365 c 0xdb
EndSplineSet
Substitution2: "ss01StyleSet1inBengali2lookup11 subtable" bn_ka_ra.alt
Ligature2: "vatuVattuVariantsinBengali2lookup5 subtable" bn_ka bn_ra_phala
EndChar

StartChar: bn_ka_ssa
Encoding: 146 -1 146
GlifName: bn_k_S_ha
Width: 1761
VWidth: 0
GlyphClass: 3
Flags: W
HStem: 170 413<272.116 536.791> 368 198<1445.53 1574.72> 758 120<856.892 929.906> 845 201<406.583 555.161> 1229 238<361.428 927.568>
VStem: 149 189<1056.05 1169.97> 180 520<340.5 500.8> 947 202<330.688 756.791> 956 202<984.362 1211.87> 1245 196<569.246 722.065> 1587 151<570.939 759.906>
AnchorPoint: "abvm" 1044 1230 basechar 0
AnchorPoint: "blwm" 1308 -183 basechar 0
LayerCount: 2
Fore
SplineSet
-10 1438 m 0x9c60
 22 1459 86 1467 365 1467 c 0
 484 1467 641 1465 851 1463 c 0
 1355 1458 1780 1447 1796 1439 c 0
 1814 1429 1822 1408 1822 1385 c 0
 1822 1348 1801 1304 1765 1282 c 1
 1708 1256 1646 1246 1529 1246 c 0
 1485 1246 1434 1247 1373 1250 c 0
 1366 1250 1359 1251 1352 1251 c 0
 1304 1251 1246 1242 1215 1231 c 0
 1173 1215 1158 1207 1158 1172 c 0
 1158 1156 1161 1133 1166 1102 c 0
 1175 1045 1185 991 1189 984 c 0
 1193 977 1268 965 1359 958 c 0
 1557 942 1602 921 1677 809 c 0
 1717 749 1738 670 1738 596 c 0
 1738 529 1721 466 1687 425 c 0
 1650 379 1622 368 1540 368 c 2
 1529 368 l 2
 1468 369 1403 381 1382 396 c 0
 1334 431 1245 586 1245 635 c 0
 1245 690 1312 759 1358 759 c 0
 1363 759 1367 758 1371 757 c 0
 1411 742 1417 730 1441 626 c 0
 1451 582 1470 566 1511 566 c 0x5ce0
 1554 566 1571 582 1583 635 c 0
 1585 645 1587 656 1587 666 c 0
 1587 737 1525 795 1410 831 c 0
 1376 842 1353 848 1332 848 c 0
 1303 848 1280 836 1236 810 c 0
 1189 782 1150 749 1149 735 c 2
 1149 705 l 2
 1149 657 1150 560 1152 456 c 0
 1156 259 1165 190 1195 149 c 0
 1293 16 1315 -23 1315 -68 c 0
 1315 -95 1305 -122 1294 -129 c 0
 1293 -130 1292 -130 1290 -130 c 0
 1249 -130 987 -5 918 49 c 0
 898 64 832 101 767 134 c 0
 702 167 632 204 610 218 c 0
 597 227 586 231 575 231 c 0
 561 231 546 223 526 206 c 0
 498 182 460 170 417 170 c 0
 372 170 322 184 275 211 c 0
 209 249 180 310 180 371 c 0x8b60
 180 476 264 583 389 583 c 0
 399 583 410 583 421 581 c 0
 432 579 442 579 451 579 c 0
 490 579 517 593 556 631 c 0
 590 665 605 685 605 708 c 0
 605 720 601 733 594 749 c 0
 581 780 548 818 521 832 c 0
 505 840 492 845 480 845 c 0
 460 845 442 833 410 804 c 0
 323 726 230 686 153 686 c 0
 98 686 51 707 19 749 c 0
 -5 780 -16 813 -16 846 c 0
 -16 897 12 949 67 999 c 0
 111 1039 149 1086 149 1103 c 0
 149 1145 102 1185 53 1185 c 0
 -14 1185 -57 1263 -57 1335 c 0
 -57 1377 -43 1416 -10 1438 c 0x9c60
929 1179 m 0
 919 1227 909 1229 650 1229 c 0
 384 1229 382 1228 354 1171 c 0
 343 1149 338 1129 338 1113 c 0
 338 1069 377 1045 455 1045 c 0
 462 1045 469 1046 477 1046 c 2
 495 1046 l 2x1ce0
 611 1046 737 992 767 926 c 0
 782 893 797 878 824 878 c 0x2ce0
 843 878 869 886 904 901 c 0
 943 918 956 929 956 969 c 0
 956 984 954 1003 951 1028 c 0
 945 1083 935 1152 929 1179 c 0
946 630 m 0
 947 644 947 658 947 671 c 0
 947 720 941 753 930 757 c 0
 928 758 925 758 923 758 c 0
 884 758 810 670 792 599 c 0
 783 561 757 514 732 489 c 0
 713 470 700 446 700 430 c 0x2b60
 700 426 701 423 703 420 c 0
 718 398 873 329 904 329 c 0
 906 329 908 329 909 330 c 0
 918 339 939 502 946 630 c 0
EndSplineSet
Ligature2: "akhnAkhandinBengali2lookup12 subtable" bn_ka bn_hasanta bn_ssa
EndChar

StartChar: bn_ka_ssa_ma
Encoding: 147 -1 147
GlifName: bn_k_S_h_ma
Width: 1059
VWidth: 0
GlyphClass: 3
Flags: W
HStem: -204 142<829.34 955.512> -125 288<191.169 368.989> -94 128<420 627> 464 135<793.15 1005.85> 697 122<603.019 650.783> 716 148<252.474 431.499> 1044 71<537.159 635.385> 1075 92<759.766 888.375> 1258 124<0.211407 141.254 758.749 1063.5> 1289 94<258.354 652.811>
VStem: 177 79<1163.38 1216.78> 369 176<163.898 263.968> 461 153<866.1 953.719> 655 64<819.83 1041.01> 669 89<1177.56 1251.09> 710 80<60.434 463.922> 900 104<955.854 1050.48>
AnchorPoint: "abvm" 594 1218 basechar 0
AnchorPoint: "blwm" 918 -255 basechar 0
LayerCount: 2
Fore
SplineSet
4 560 m 2x503180
 -2 639 l 1
 147 626 l 2
 289 614 356 611 815 599 c 0
 960 595 1023 581 1023 546 c 0
 1023 531 1012 513 991 489 c 0
 970 466 952 456 921 456 c 0
 909 456 895 457 879 460 c 0
 862 463 846 464 832 464 c 0
 812 464 796 461 793 456 c 0
 791 453 790 440 790 420 c 0
 790 317 814 27 829 -21 c 0
 836 -44 859 -62 879 -62 c 0
 899 -62 930 -79 949 -99 c 0
 964 -116 972 -127 972 -138 c 0
 972 -148 966 -158 955 -173 c 0
 939 -195 924 -204 887 -204 c 0x903180
 870 -204 849 -202 822 -199 c 0
 765 -192 692 -173 662 -157 c 0
 593 -120 487 -94 420 -94 c 0x303180
 398 -94 380 -97 369 -103 c 0
 340 -118 313 -125 287 -125 c 0
 242 -125 202 -103 177 -60 c 0
 159 -30 151 1 151 29 c 0
 151 104 208 163 299 163 c 0
 354 163 369 171 369 203 c 0
 369 226 344 256 309 275 c 0
 277 292 227 336 199 371 c 0
 171 406 116 446 79 458 c 0
 18 478 9 490 4 560 c 2x503180
666 466 m 0
 632 482 532 491 458 491 c 0
 408 491 369 487 369 477 c 0
 369 469 387 444 409 421 c 0
 497 332 545 244 545 171 c 0
 545 162 544 153 543 145 c 0
 540 125 538 111 538 99 c 0
 538 71 549 61 582 46 c 0
 599 38 614 34 627 34 c 0x303180
 672 34 693 81 693 179 c 2
 693 200 l 1
 693 226 l 2
 693 284 698 350 705 380 c 0
 708 395 710 407 710 417 c 0
 710 441 698 451 666 466 c 0
0 1314 m 2
 0 1382 l 1x14ac80
 532 1383 l 1
 1065 1384 l 1
 1065 1313 l 1
 1065 1243 l 1
 969 1254 l 2
 935 1258 904 1260 878 1260 c 0
 799 1260 758 1242 758 1206 c 0x106a80
 758 1176 772 1167 817 1167 c 0
 905 1167 1004 1076 1004 995 c 0
 1004 911 952 839 891 839 c 0
 849 839 826 864 826 894 c 0
 826 916 838 941 864 962 c 0
 889 982 900 996 900 1010 c 0
 900 1018 896 1027 889 1038 c 0
 876 1060 842 1075 807 1075 c 0
 740 1075 724 1032 719 835 c 0
 717 751 708 717 684 708 c 0
 665 701 652 697 641 697 c 0x196480
 622 697 613 710 603 741 c 0
 595 768 579 794 567 801 c 0
 563 804 557 805 550 805 c 0
 516 805 450 778 408 743 c 0
 390 729 345 716 310 716 c 0
 253 716 246 723 246 778 c 0
 246 841 264 851 399 864 c 0
 456 869 461 876 461 952 c 0
 461 1011 441 1045 417 1045 c 0
 401 1045 382 1029 367 995 c 0
 347 951 325 931 289 931 c 0
 272 931 251 936 227 944 c 0
 177 962 151 992 151 1033 c 0
 151 1050 155 1070 165 1091 c 0
 173 1109 177 1122 177 1136 c 0
 177 1154 170 1172 154 1196 c 0
 126 1239 81 1267 46 1267 c 0
 36 1267 28 1265 20 1260 c 0
 18 1259 17 1258 15 1258 c 0x14ac80
 6 1258 0 1279 0 1314 c 2
547 1277 m 0
 481 1285 419 1289 370 1289 c 0
 308 1289 265 1283 258 1271 c 0
 256 1269 256 1265 256 1260 c 0
 256 1246 262 1223 272 1200 c 0
 288 1165 298 1153 328 1153 c 0
 340 1153 355 1155 375 1158 c 0
 392 1161 408 1163 421 1163 c 0
 451 1163 470 1155 489 1138 c 0
 506 1123 520 1115 538 1115 c 0
 551 1115 567 1119 589 1127 c 0
 624 1139 656 1161 662 1177 c 0
 667 1189 669 1199 669 1209 c 0x126280
 669 1247 632 1267 547 1277 c 0
655 931 m 0x1a2c80
 655 1042 654 1044 596 1044 c 2
 537 1044 l 1
 575 937 l 2
 596 878 614 827 614 824 c 0
 614 821 623 819 635 819 c 0
 646 819 655 870 655 931 c 0x1a2c80
EndSplineSet
Ligature2: "akhnAkhandFormsinBengali2lookup2 subtable" bn_ka_ssa bn_hasanta bn_ma
EndChar

StartChar: bn_ka_ssa_nna
Encoding: 148 -1 148
GlifName: bn_k_S_h_N_a
Width: 1101
VWidth: 0
GlyphClass: 3
Flags: W
HStem: 210 378<217.953 410.368> 363 180<482.903 606.285> 635 185<346.5 459.5> 662 77<618.67 675.374> 691 129<398.654 477.044> 832 147<855.245 943.949> 909 91<774.893 851.326> 1004 160<374.432 470.852> 1024 112<613.54 659.754> 1073 112<806.008 930.136> 1271 174<2.37413 92.9219 260.679 424.161>
VStem: 285 70<855.891 897.844> 478 132<823.17 1002.78> 629 210<-172.784 210.539> 677 124<447 586.682 1193.8 1262.62> 690 75<740.294 908.82> 944 125<936 1062.88>
AnchorPoint: "abvm" 576 1230 basechar 0
AnchorPoint: "blwm" 750 -249 basechar 0
LayerCount: 2
Fore
SplineSet
11 1439 m 0x203a80
 15 1443 83 1445 181 1445 c 0
 457 1445 976 1432 1033 1419 c 0
 1091 1406 1096 1400 1101 1329 c 2
 1106 1252 l 1
 954 1265 l 2
 907 1269 873 1271 850 1271 c 0
 811 1271 801 1265 801 1252 c 0
 801 1215 838 1185 883 1185 c 0
 942 1185 1046 1118 1058 1072 c 0
 1064 1050 1069 1003 1069 966 c 0
 1069 906 1061 896 997 864 c 0
 955 843 932 832 913 832 c 0x247a80
 891 832 874 845 839 875 c 0
 812 898 790 909 776 909 c 0x023c80
 764 909 758 901 758 886 c 0
 758 880 759 873 761 864 c 0
 764 854 765 843 765 832 c 0x043980
 765 786 745 739 721 739 c 0
 706 739 695 723 695 702 c 0
 695 677 700 669 736 669 c 0
 748 669 764 669 784 671 c 0
 795 672 805 672 814 672 c 0
 861 672 884 662 884 644 c 0
 884 633 875 619 857 602 c 0
 825 572 806 473 806 356 c 0
 806 299 811 238 820 178 c 0
 833 97 839 42 839 -3 c 0
 839 -50 832 -85 818 -128 c 0
 801 -179 766 -209 729 -209 c 0
 716 -209 703 -206 691 -198 c 0
 650 -172 629 -109 629 -12 c 0
 629 16 631 46 634 79 c 0
 640 139 644 181 644 212 c 0
 644 270 632 292 602 324 c 0
 578 350 552 363 530 363 c 0x543c80
 510 363 493 351 487 328 c 0
 482 309 442 272 399 247 c 0
 353 221 323 210 291 210 c 0
 280 210 270 211 258 213 c 0
 183 227 145 275 145 356 c 0
 145 387 150 422 161 462 c 0
 176 517 194 536 258 564 c 0
 295 580 344 588 388 588 c 0x803c80
 437 588 479 578 491 559 c 0
 496 550 518 543 539 543 c 0
 560 543 600 521 627 495 c 2
 677 447 l 1
 677 559 l 2
 677 640 674 662 658 662 c 0x503a80
 655 662 651 662 646 660 c 0
 642 659 637 658 630 658 c 0
 608 658 574 664 544 675 c 0
 515 686 497 691 482 691 c 0x083a80
 465 691 452 683 431 667 c 0
 403 646 379 635 356 635 c 0
 337 635 319 642 301 656 c 0
 264 684 246 714 246 750 c 0
 246 768 250 787 259 807 c 0
 273 841 285 870 285 873 c 0
 285 876 257 895 223 915 c 0
 164 950 160 956 160 1049 c 0
 160 1156 120 1227 41 1258 c 0
 7 1271 0 1287 0 1351 c 0
 0 1394 5 1433 11 1439 c 0x203a80
648 1263 m 0
 630 1270 524 1274 428 1274 c 0
 346 1274 270 1271 264 1265 c 0
 259 1260 258 1236 263 1211 c 0
 271 1168 304 1139 335 1139 c 0
 345 1139 356 1143 365 1150 c 0
 376 1159 385 1164 405 1164 c 0x013a80
 430 1164 473 1156 557 1138 c 0
 563 1137 568 1136 574 1136 c 0x00ba80
 628 1136 677 1185 677 1224 c 0
 677 1240 669 1255 648 1263 c 0
915 1049 m 0
 898 1066 889 1073 868 1073 c 0x047880
 854 1073 834 1070 803 1064 c 0
 782 1060 772 1058 772 1052 c 0
 772 1047 779 1038 792 1024 c 0
 806 1009 827 1000 845 1000 c 0x02b880
 849 1000 853 1000 856 1001 c 0
 861 1002 866 1003 872 1003 c 0
 888 1003 906 998 917 988 c 0
 925 982 931 979 935 979 c 0x043880
 941 979 944 984 944 992 c 0
 944 1006 934 1030 915 1049 c 0
685 953 m 0
 678 996 664 1024 650 1024 c 0
 615 1024 611 1010 610 882 c 2
 610 871 l 2
 610 775 623 739 661 739 c 0
 677 739 690 817 690 888 c 0x10b980
 690 912 688 934 685 953 c 0
477 919 m 0
 472 985 466 999 433 1003 c 0
 429 1003 426 1004 423 1004 c 0
 399 1004 386 990 370 950 c 0
 361 928 355 914 355 903 c 0
 355 886 368 874 397 849 c 0
 419 830 437 820 450 820 c 0x213880
 469 820 478 843 478 888 c 0
 478 897 478 908 477 919 c 0
EndSplineSet
Ligature2: "akhnAkhandFormsinBengali2lookup2 subtable" bn_ka_ssa bn_hasanta bn_na
EndChar

